%TF.GenerationSoftware,KiCad,Pcbnew,5.1.5+dfsg1-2build2*%
%TF.CreationDate,2021-11-19T00:53:45-06:00*%
%TF.ProjectId,Audio_Dac_I2S,41756469-6f5f-4446-9163-5f4932532e6b,rev?*%
%TF.SameCoordinates,Original*%
%TF.FileFunction,Copper,L1,Top*%
%TF.FilePolarity,Positive*%
%FSLAX46Y46*%
G04 Gerber Fmt 4.6, Leading zero omitted, Abs format (unit mm)*
G04 Created by KiCad (PCBNEW 5.1.5+dfsg1-2build2) date 2021-11-19 00:53:45*
%MOMM*%
%LPD*%
G04 APERTURE LIST*
%TA.AperFunction,ComponentPad*%
%ADD10O,1.700000X1.700000*%
%TD*%
%TA.AperFunction,ComponentPad*%
%ADD11R,1.700000X1.700000*%
%TD*%
%TA.AperFunction,SMDPad,CuDef*%
%ADD12R,3.000000X1.250000*%
%TD*%
%TA.AperFunction,SMDPad,CuDef*%
%ADD13R,2.000000X0.600000*%
%TD*%
%TA.AperFunction,ComponentPad*%
%ADD14O,1.400000X1.400000*%
%TD*%
%TA.AperFunction,ComponentPad*%
%ADD15C,1.400000*%
%TD*%
%TA.AperFunction,ComponentPad*%
%ADD16C,1.524000*%
%TD*%
%TA.AperFunction,BGAPad,CuDef*%
%ADD17C,0.450000*%
%TD*%
%TA.AperFunction,ComponentPad*%
%ADD18O,1.800000X1.800000*%
%TD*%
%TA.AperFunction,ComponentPad*%
%ADD19R,1.800000X1.800000*%
%TD*%
%TA.AperFunction,ComponentPad*%
%ADD20C,1.600000*%
%TD*%
%TA.AperFunction,ViaPad*%
%ADD21C,0.400000*%
%TD*%
%TA.AperFunction,Conductor*%
%ADD22C,0.400000*%
%TD*%
%TA.AperFunction,Conductor*%
%ADD23C,0.127000*%
%TD*%
G04 APERTURE END LIST*
D10*
%TO.P,PI_OUT1,4*%
%TO.N,DATA*%
X195554600Y-92349320D03*
%TO.P,PI_OUT1,3*%
%TO.N,EN*%
X193014600Y-92349320D03*
%TO.P,PI_OUT1,2*%
%TO.N,INTERR*%
X190474600Y-92349320D03*
D11*
%TO.P,PI_OUT1,1*%
%TO.N,DCLK*%
X187934600Y-92349320D03*
%TD*%
D10*
%TO.P,J2,11*%
%TO.N,GND*%
X216715340Y-49072800D03*
%TO.P,J2,10*%
%TO.N,h1*%
X214175340Y-49072800D03*
%TO.P,J2,9*%
%TO.N,j1*%
X211635340Y-49072800D03*
%TO.P,J2,8*%
%TO.N,k1*%
X209095340Y-49072800D03*
%TO.P,J2,7*%
%TO.N,l1*%
X206555340Y-49072800D03*
%TO.P,J2,6*%
%TO.N,m1*%
X204015340Y-49072800D03*
%TO.P,J2,5*%
%TO.N,n1*%
X201475340Y-49072800D03*
%TO.P,J2,4*%
%TO.N,r1*%
X198935340Y-49072800D03*
%TO.P,J2,3*%
%TO.N,p1*%
X196395340Y-49072800D03*
%TO.P,J2,2*%
%TO.N,u1*%
X193855340Y-49072800D03*
D11*
%TO.P,J2,1*%
%TO.N,GND*%
X191315340Y-49072800D03*
%TD*%
D10*
%TO.P,DBG1,5*%
%TO.N,SDATA*%
X222862140Y-54772560D03*
%TO.P,DBG1,4*%
%TO.N,LRCK*%
X225402140Y-54772560D03*
%TO.P,DBG1,3*%
%TO.N,MCLK*%
X227942140Y-54772560D03*
%TO.P,DBG1,2*%
%TO.N,Net-(C2-Pad2)*%
X230482140Y-54772560D03*
D11*
%TO.P,DBG1,1*%
%TO.N,Net-(C4-Pad2)*%
X233022140Y-54772560D03*
%TD*%
D12*
%TO.P,U2,3*%
%TO.N,Net-(C7-Pad2)*%
X233830000Y-57665000D03*
%TO.P,U2,2*%
%TO.N,Net-(C6-Pad1)*%
X233860000Y-48085000D03*
%TO.P,U2,1*%
%TO.N,GND*%
X243230000Y-49925000D03*
%TD*%
D13*
%TO.P,U1,5*%
%TO.N,Net-(C4-Pad2)*%
X221575000Y-74210000D03*
%TO.P,U1,6*%
%TO.N,GND*%
X221575000Y-72985000D03*
%TO.P,U1,7*%
%TO.N,5Vin*%
X221575000Y-71735000D03*
%TO.P,U1,8*%
%TO.N,Net-(C2-Pad2)*%
X221575000Y-70460000D03*
%TO.P,U1,4*%
%TO.N,MCLK*%
X215500000Y-74235000D03*
%TO.P,U1,3*%
%TO.N,LRCK*%
X215500000Y-72960000D03*
%TO.P,U1,2*%
%TO.N,Net-(R1-Pad1)*%
X215475000Y-71710000D03*
%TO.P,U1,1*%
%TO.N,SDATA*%
X215500000Y-70460000D03*
%TD*%
D14*
%TO.P,R13,2*%
%TO.N,Net-(C4-Pad1)*%
X239306000Y-70739000D03*
D15*
%TO.P,R13,1*%
%TO.N,Net-(C7-Pad2)*%
X239306000Y-78359000D03*
%TD*%
D14*
%TO.P,10k,2*%
%TO.N,Net-(C2-Pad1)*%
X232590000Y-60610000D03*
D15*
%TO.P,10k,1*%
%TO.N,Net-(C6-Pad1)*%
X232590000Y-68230000D03*
%TD*%
D14*
%TO.P,R11,2*%
%TO.N,Net-(C4-Pad1)*%
X236220000Y-81280000D03*
D15*
%TO.P,R11,1*%
%TO.N,GND*%
X228600000Y-81280000D03*
%TD*%
D14*
%TO.P,10k,2*%
%TO.N,GND*%
X229600000Y-68280000D03*
D15*
%TO.P,10k,1*%
%TO.N,Net-(C2-Pad1)*%
X229600000Y-60660000D03*
%TD*%
D14*
%TO.P,R9,2*%
%TO.N,GND*%
X223370000Y-76990000D03*
D15*
%TO.P,R9,1*%
%TO.N,Net-(C4-Pad2)*%
X223370000Y-84610000D03*
%TD*%
D14*
%TO.P,267k,2*%
%TO.N,Net-(C2-Pad2)*%
X223340000Y-60840000D03*
D15*
%TO.P,267k,1*%
%TO.N,GND*%
X223340000Y-68460000D03*
%TD*%
D14*
%TO.P,R7,2*%
%TO.N,V3.3*%
X214630000Y-57150000D03*
D15*
%TO.P,R7,1*%
%TO.N,Net-(IC1-PadH8)*%
X214630000Y-64770000D03*
%TD*%
D14*
%TO.P,R6,2*%
%TO.N,V3.3*%
X217170000Y-54610000D03*
D15*
%TO.P,R6,1*%
%TO.N,Net-(IC1-PadG8)*%
X209550000Y-54610000D03*
%TD*%
D14*
%TO.P,R4,2*%
%TO.N,GND*%
X210820000Y-59690000D03*
D15*
%TO.P,R4,1*%
%TO.N,tck*%
X218440000Y-59690000D03*
%TD*%
D14*
%TO.P,R3,2*%
%TO.N,GND*%
X212090000Y-62230000D03*
D15*
%TO.P,R3,1*%
%TO.N,Net-(IC1-PadG9)*%
X212090000Y-69850000D03*
%TD*%
D14*
%TO.P,R2,2*%
%TO.N,V3.3*%
X217170000Y-52070000D03*
D15*
%TO.P,R2,1*%
%TO.N,Net-(IC1-PadH9)*%
X209550000Y-52070000D03*
%TD*%
D14*
%TO.P,R1,2*%
%TO.N,GND*%
X213360000Y-83820000D03*
D15*
%TO.P,R1,1*%
%TO.N,Net-(R1-Pad1)*%
X213360000Y-76200000D03*
%TD*%
D16*
%TO.P,J14,2*%
%TO.N,GND*%
X198120000Y-83820000D03*
%TO.P,J14,9*%
%TO.N,tdi*%
X198120000Y-81280000D03*
%TO.P,J14,8*%
%TO.N,Net-(J14-Pad8)*%
X200660000Y-83820000D03*
%TO.P,J14,7*%
%TO.N,Net-(J14-Pad7)*%
X200660000Y-81280000D03*
%TO.P,J14,6*%
%TO.N,Net-(J14-Pad6)*%
X203200000Y-83820000D03*
%TO.P,J14,5*%
%TO.N,tms*%
X203200000Y-81280000D03*
%TO.P,J14,4*%
%TO.N,V3.3*%
X205740000Y-83820000D03*
%TO.P,J14,3*%
%TO.N,tdo*%
X205740000Y-81280000D03*
%TO.P,J14,2*%
%TO.N,GND*%
X208280000Y-83820000D03*
%TO.P,J14,1*%
%TO.N,tck*%
X208280000Y-81280000D03*
%TD*%
D10*
%TO.P,J3,20*%
%TO.N,e5*%
X236220000Y-87630000D03*
%TO.P,J3,19*%
%TO.N,e4*%
X233680000Y-87630000D03*
%TO.P,J3,18*%
%TO.N,d18*%
X231140000Y-87630000D03*
%TO.P,J3,17*%
%TO.N,d17*%
X228600000Y-87630000D03*
%TO.P,J3,16*%
%TO.N,d16*%
X226060000Y-87630000D03*
%TO.P,J3,15*%
%TO.N,d15*%
X223520000Y-87630000D03*
%TO.P,J3,14*%
%TO.N,d8*%
X220980000Y-87630000D03*
%TO.P,J3,13*%
%TO.N,d7*%
X218440000Y-87630000D03*
%TO.P,J3,12*%
%TO.N,d6*%
X215900000Y-87630000D03*
%TO.P,J3,11*%
%TO.N,d5*%
X213360000Y-87630000D03*
%TO.P,J3,10*%
%TO.N,d4*%
X210820000Y-87630000D03*
%TO.P,J3,9*%
%TO.N,GND*%
X208280000Y-87630000D03*
%TO.P,J3,8*%
%TO.N,c18*%
X205740000Y-87630000D03*
%TO.P,J3,7*%
%TO.N,c17*%
X203200000Y-87630000D03*
%TO.P,J3,6*%
%TO.N,c10*%
X200660000Y-87630000D03*
%TO.P,J3,5*%
%TO.N,c9*%
X198120000Y-87630000D03*
%TO.P,J3,4*%
%TO.N,c8*%
X195580000Y-87630000D03*
%TO.P,J3,3*%
%TO.N,c7*%
X193040000Y-87630000D03*
%TO.P,J3,2*%
%TO.N,c6*%
X190500000Y-87630000D03*
D11*
%TO.P,J3,1*%
%TO.N,c5*%
X187960000Y-87630000D03*
%TD*%
D10*
%TO.P,J1,40*%
%TO.N,DATA*%
X181540000Y-92660000D03*
%TO.P,J1,39*%
%TO.N,GND*%
X184080000Y-92660000D03*
%TO.P,J1,26*%
%TO.N,Net-(J1-Pad26)*%
X181540000Y-74880000D03*
%TO.P,J1,25*%
%TO.N,GND*%
X184080000Y-74880000D03*
%TO.P,J1,22*%
%TO.N,DCLK*%
X181540000Y-69800000D03*
%TO.P,J1,21*%
%TO.N,Net-(J1-Pad21)*%
X184080000Y-69800000D03*
%TO.P,J1,30*%
%TO.N,GND*%
X181540000Y-79960000D03*
%TO.P,J1,29*%
%TO.N,Net-(J1-Pad29)*%
X184080000Y-79960000D03*
%TO.P,J1,8*%
%TO.N,Net-(J1-Pad8)*%
X181540000Y-52020000D03*
%TO.P,J1,7*%
%TO.N,Net-(J1-Pad7)*%
X184080000Y-52020000D03*
%TO.P,J1,32*%
%TO.N,Net-(J1-Pad32)*%
X181540000Y-82500000D03*
%TO.P,J1,31*%
%TO.N,Net-(J1-Pad31)*%
X184080000Y-82500000D03*
%TO.P,J1,18*%
%TO.N,INTERR*%
X181540000Y-64720000D03*
%TO.P,J1,17*%
%TO.N,V3.3*%
X184080000Y-64720000D03*
%TO.P,J1,36*%
%TO.N,Net-(J1-Pad36)*%
X181540000Y-87580000D03*
%TO.P,J1,35*%
%TO.N,Net-(J1-Pad35)*%
X184080000Y-87580000D03*
%TO.P,J1,34*%
%TO.N,GND*%
X181540000Y-85040000D03*
%TO.P,J1,33*%
%TO.N,Net-(J1-Pad33)*%
X184080000Y-85040000D03*
%TO.P,J1,38*%
%TO.N,Net-(J1-Pad38)*%
X181540000Y-90120000D03*
%TO.P,J1,37*%
%TO.N,Net-(J1-Pad37)*%
X184080000Y-90120000D03*
%TO.P,J1,20*%
%TO.N,GND*%
X181540000Y-67260000D03*
%TO.P,J1,19*%
%TO.N,Net-(J1-Pad19)*%
X184080000Y-67260000D03*
%TO.P,J1,10*%
%TO.N,Net-(J1-Pad10)*%
X181540000Y-54560000D03*
%TO.P,J1,9*%
%TO.N,GND*%
X184080000Y-54560000D03*
%TO.P,J1,14*%
X181540000Y-59640000D03*
%TO.P,J1,13*%
%TO.N,Net-(J1-Pad13)*%
X184080000Y-59640000D03*
%TO.P,J1,28*%
%TO.N,Net-(J1-Pad28)*%
X181540000Y-77420000D03*
%TO.P,J1,27*%
%TO.N,Net-(J1-Pad27)*%
X184080000Y-77420000D03*
%TO.P,J1,12*%
%TO.N,Net-(J1-Pad12)*%
X181540000Y-57100000D03*
%TO.P,J1,11*%
%TO.N,Net-(J1-Pad11)*%
X184080000Y-57100000D03*
%TO.P,J1,24*%
%TO.N,Net-(J1-Pad24)*%
X181540000Y-72340000D03*
%TO.P,J1,23*%
%TO.N,Net-(J1-Pad23)*%
X184080000Y-72340000D03*
D11*
%TO.P,J1,1*%
%TO.N,Net-(J1-Pad1)*%
X184080000Y-44400000D03*
D10*
%TO.P,J1,2*%
%TO.N,5Vin*%
X181540000Y-44400000D03*
%TO.P,J1,5*%
%TO.N,Net-(J1-Pad5)*%
X184080000Y-49480000D03*
%TO.P,J1,4*%
%TO.N,Net-(J1-Pad4)*%
X181540000Y-46940000D03*
%TO.P,J1,16*%
%TO.N,EN*%
X181540000Y-62180000D03*
%TO.P,J1,15*%
%TO.N,Net-(J1-Pad15)*%
X184080000Y-62180000D03*
%TO.P,J1,3*%
%TO.N,Net-(J1-Pad3)*%
X184080000Y-46940000D03*
%TO.P,J1,6*%
%TO.N,GND*%
X181540000Y-49480000D03*
%TD*%
D17*
%TO.P,IC1,V18*%
%TO.N,GND*%
X194820000Y-78200000D03*
%TO.P,IC1,V17*%
%TO.N,Net-(IC1-PadV17)*%
X194820000Y-77400000D03*
%TO.P,IC1,V16*%
%TO.N,Net-(IC1-PadV16)*%
X194820000Y-76600000D03*
%TO.P,IC1,V15*%
%TO.N,Net-(IC1-PadV15)*%
X194820000Y-75800000D03*
%TO.P,IC1,V14*%
%TO.N,Net-(IC1-PadV14)*%
X194820000Y-75000000D03*
%TO.P,IC1,V13*%
%TO.N,Net-(IC1-PadV13)*%
X194820000Y-74200000D03*
%TO.P,IC1,V12*%
%TO.N,Net-(IC1-PadV12)*%
X194820000Y-73400000D03*
%TO.P,IC1,V11*%
%TO.N,Net-(IC1-PadV11)*%
X194820000Y-72600000D03*
%TO.P,IC1,V10*%
%TO.N,Net-(IC1-PadV10)*%
X194820000Y-71800000D03*
%TO.P,IC1,V9*%
%TO.N,Net-(IC1-PadV9)*%
X194820000Y-71000000D03*
%TO.P,IC1,V8*%
%TO.N,Net-(IC1-PadV8)*%
X194820000Y-70200000D03*
%TO.P,IC1,V7*%
%TO.N,Net-(IC1-PadV7)*%
X194820000Y-69400000D03*
%TO.P,IC1,V6*%
%TO.N,Net-(IC1-PadV6)*%
X194820000Y-68600000D03*
%TO.P,IC1,V5*%
%TO.N,Net-(IC1-PadV5)*%
X194820000Y-67800000D03*
%TO.P,IC1,V4*%
%TO.N,Net-(IC1-PadV4)*%
X194820000Y-67000000D03*
%TO.P,IC1,V3*%
%TO.N,Net-(IC1-PadV3)*%
X194820000Y-66200000D03*
%TO.P,IC1,V2*%
%TO.N,Net-(IC1-PadV2)*%
X194820000Y-65400000D03*
%TO.P,IC1,V1*%
%TO.N,GND*%
X194820000Y-64600000D03*
%TO.P,IC1,U18*%
%TO.N,Net-(IC1-PadU18)*%
X195620000Y-78200000D03*
%TO.P,IC1,U17*%
%TO.N,Net-(IC1-PadU17)*%
X195620000Y-77400000D03*
%TO.P,IC1,U16*%
%TO.N,Net-(IC1-PadU16)*%
X195620000Y-76600000D03*
%TO.P,IC1,U15*%
%TO.N,Net-(IC1-PadU15)*%
X195620000Y-75800000D03*
%TO.P,IC1,U14*%
%TO.N,GND*%
X195620000Y-75000000D03*
%TO.P,IC1,U13*%
%TO.N,Net-(IC1-PadU13)*%
X195620000Y-74200000D03*
%TO.P,IC1,U12*%
%TO.N,Net-(IC1-PadU12)*%
X195620000Y-73400000D03*
%TO.P,IC1,U11*%
%TO.N,Net-(IC1-PadU11)*%
X195620000Y-72600000D03*
%TO.P,IC1,U10*%
%TO.N,GND*%
X195620000Y-71800000D03*
%TO.P,IC1,U9*%
%TO.N,Net-(IC1-PadU9)*%
X195620000Y-71000000D03*
%TO.P,IC1,U8*%
%TO.N,Net-(IC1-PadU8)*%
X195620000Y-70200000D03*
%TO.P,IC1,U7*%
%TO.N,Net-(IC1-PadU7)*%
X195620000Y-69400000D03*
%TO.P,IC1,U6*%
%TO.N,Net-(IC1-PadU6)*%
X195620000Y-68600000D03*
%TO.P,IC1,U5*%
%TO.N,Net-(IC1-PadU5)*%
X195620000Y-67800000D03*
%TO.P,IC1,U4*%
%TO.N,GND*%
X195620000Y-67000000D03*
%TO.P,IC1,U3*%
%TO.N,Net-(IC1-PadU3)*%
X195620000Y-66200000D03*
%TO.P,IC1,U2*%
%TO.N,Net-(IC1-PadU2)*%
X195620000Y-65400000D03*
%TO.P,IC1,U1*%
%TO.N,u1*%
X195620000Y-64600000D03*
%TO.P,IC1,T18*%
%TO.N,Net-(IC1-PadT18)*%
X196420000Y-78200000D03*
%TO.P,IC1,T17*%
%TO.N,Net-(IC1-PadT17)*%
X196420000Y-77400000D03*
%TO.P,IC1,T16*%
%TO.N,Net-(IC1-PadT16)*%
X196420000Y-76600000D03*
%TO.P,IC1,T15*%
%TO.N,Net-(IC1-PadT15)*%
X196420000Y-75800000D03*
%TO.P,IC1,T14*%
%TO.N,Net-(IC1-PadT14)*%
X196420000Y-75000000D03*
%TO.P,IC1,T13*%
%TO.N,Net-(IC1-PadT13)*%
X196420000Y-74200000D03*
%TO.P,IC1,T12*%
%TO.N,Net-(IC1-PadT12)*%
X196420000Y-73400000D03*
%TO.P,IC1,T11*%
%TO.N,Net-(IC1-PadT11)*%
X196420000Y-72600000D03*
%TO.P,IC1,T10*%
%TO.N,Net-(IC1-PadT10)*%
X196420000Y-71800000D03*
%TO.P,IC1,T9*%
%TO.N,Net-(IC1-PadT9)*%
X196420000Y-71000000D03*
%TO.P,IC1,T8*%
%TO.N,Net-(IC1-PadT8)*%
X196420000Y-70200000D03*
%TO.P,IC1,T7*%
%TO.N,Net-(IC1-PadT7)*%
X196420000Y-69400000D03*
%TO.P,IC1,T6*%
%TO.N,Net-(IC1-PadT6)*%
X196420000Y-68600000D03*
%TO.P,IC1,T5*%
%TO.N,Net-(IC1-PadT5)*%
X196420000Y-67800000D03*
%TO.P,IC1,T4*%
%TO.N,Net-(IC1-PadT4)*%
X196420000Y-67000000D03*
%TO.P,IC1,T3*%
%TO.N,Net-(IC1-PadT3)*%
X196420000Y-66200000D03*
%TO.P,IC1,T2*%
%TO.N,Net-(IC1-PadT2)*%
X196420000Y-65400000D03*
%TO.P,IC1,T1*%
%TO.N,Net-(IC1-PadT1)*%
X196420000Y-64600000D03*
%TO.P,IC1,R18*%
%TO.N,Net-(IC1-PadR18)*%
X197220000Y-78200000D03*
%TO.P,IC1,R17*%
%TO.N,Net-(IC1-PadR17)*%
X197220000Y-77400000D03*
%TO.P,IC1,R16*%
%TO.N,Net-(IC1-PadR16)*%
X197220000Y-76600000D03*
%TO.P,IC1,R15*%
%TO.N,Net-(IC1-PadR15)*%
X197220000Y-75800000D03*
%TO.P,IC1,R14*%
%TO.N,Net-(IC1-PadR14)*%
X197220000Y-75000000D03*
%TO.P,IC1,R13*%
%TO.N,Net-(IC1-PadR13)*%
X197220000Y-74200000D03*
%TO.P,IC1,R12*%
%TO.N,Net-(IC1-PadR12)*%
X197220000Y-73400000D03*
%TO.P,IC1,R11*%
%TO.N,Net-(IC1-PadR11)*%
X197220000Y-72600000D03*
%TO.P,IC1,R10*%
%TO.N,Net-(IC1-PadR10)*%
X197220000Y-71800000D03*
%TO.P,IC1,R9*%
%TO.N,Net-(IC1-PadR9)*%
X197220000Y-71000000D03*
%TO.P,IC1,R8*%
%TO.N,Net-(IC1-PadR8)*%
X197220000Y-70200000D03*
%TO.P,IC1,R7*%
%TO.N,GND*%
X197220000Y-69400000D03*
%TO.P,IC1,R6*%
%TO.N,Net-(IC1-PadR6)*%
X197220000Y-68600000D03*
%TO.P,IC1,R5*%
%TO.N,Net-(IC1-PadR5)*%
X197220000Y-67800000D03*
%TO.P,IC1,R4*%
%TO.N,Net-(IC1-PadR4)*%
X197220000Y-67000000D03*
%TO.P,IC1,R3*%
%TO.N,Net-(IC1-PadR3)*%
X197220000Y-66200000D03*
%TO.P,IC1,R2*%
%TO.N,Net-(IC1-PadR2)*%
X197220000Y-65400000D03*
%TO.P,IC1,R1*%
%TO.N,r1*%
X197220000Y-64600000D03*
%TO.P,IC1,P18*%
%TO.N,Net-(IC1-PadP18)*%
X198020000Y-78200000D03*
%TO.P,IC1,P17*%
%TO.N,Net-(IC1-PadP17)*%
X198020000Y-77400000D03*
%TO.P,IC1,P16*%
%TO.N,Net-(IC1-PadP16)*%
X198020000Y-76600000D03*
%TO.P,IC1,P15*%
%TO.N,Net-(IC1-PadP15)*%
X198020000Y-75800000D03*
%TO.P,IC1,P14*%
%TO.N,Net-(IC1-PadP14)*%
X198020000Y-75000000D03*
%TO.P,IC1,P13*%
%TO.N,V3.3*%
X198020000Y-74200000D03*
%TO.P,IC1,P12*%
%TO.N,Net-(IC1-PadP12)*%
X198020000Y-73400000D03*
%TO.P,IC1,P11*%
%TO.N,Net-(IC1-PadP11)*%
X198020000Y-72600000D03*
%TO.P,IC1,P10*%
%TO.N,Net-(IC1-PadP10)*%
X198020000Y-71800000D03*
%TO.P,IC1,P9*%
%TO.N,V3.3*%
X198020000Y-71000000D03*
%TO.P,IC1,P8*%
X198020000Y-70200000D03*
%TO.P,IC1,P7*%
X198020000Y-69400000D03*
%TO.P,IC1,P6*%
%TO.N,Net-(IC1-PadP6)*%
X198020000Y-68600000D03*
%TO.P,IC1,P5*%
%TO.N,Net-(IC1-PadP5)*%
X198020000Y-67800000D03*
%TO.P,IC1,P4*%
%TO.N,Net-(IC1-PadP4)*%
X198020000Y-67000000D03*
%TO.P,IC1,P3*%
%TO.N,Net-(IC1-PadP3)*%
X198020000Y-66200000D03*
%TO.P,IC1,P2*%
%TO.N,Net-(IC1-PadP2)*%
X198020000Y-65400000D03*
%TO.P,IC1,P1*%
%TO.N,p1*%
X198020000Y-64600000D03*
%TO.P,IC1,N18*%
%TO.N,Net-(IC1-PadN18)*%
X198820000Y-78200000D03*
%TO.P,IC1,N17*%
%TO.N,GND*%
X198820000Y-77400000D03*
%TO.P,IC1,N16*%
%TO.N,Net-(IC1-PadN16)*%
X198820000Y-76600000D03*
%TO.P,IC1,N15*%
%TO.N,Net-(IC1-PadN15)*%
X198820000Y-75800000D03*
%TO.P,IC1,N14*%
%TO.N,Net-(IC1-PadN14)*%
X198820000Y-75000000D03*
%TO.P,IC1,N13*%
%TO.N,Net-(IC1-PadN13)*%
X198820000Y-74200000D03*
%TO.P,IC1,N12*%
%TO.N,GND*%
X198820000Y-73400000D03*
%TO.P,IC1,N11*%
%TO.N,Net-(IC1-PadN11)*%
X198820000Y-72600000D03*
%TO.P,IC1,N10*%
%TO.N,GND*%
X198820000Y-71800000D03*
%TO.P,IC1,N9*%
%TO.N,V3.3*%
X198820000Y-71000000D03*
%TO.P,IC1,N8*%
%TO.N,Net-(IC1-PadN8)*%
X198820000Y-70200000D03*
%TO.P,IC1,N7*%
%TO.N,Net-(IC1-PadN7)*%
X198820000Y-69400000D03*
%TO.P,IC1,N6*%
%TO.N,Net-(IC1-PadN6)*%
X198820000Y-68600000D03*
%TO.P,IC1,N5*%
%TO.N,GND*%
X198820000Y-67800000D03*
%TO.P,IC1,N4*%
%TO.N,Net-(IC1-PadN4)*%
X198820000Y-67000000D03*
%TO.P,IC1,N3*%
%TO.N,Net-(IC1-PadN3)*%
X198820000Y-66200000D03*
%TO.P,IC1,N2*%
%TO.N,GND*%
X198820000Y-65400000D03*
%TO.P,IC1,N1*%
%TO.N,n1*%
X198820000Y-64600000D03*
%TO.P,IC1,M18*%
%TO.N,Net-(IC1-PadM18)*%
X199620000Y-78200000D03*
%TO.P,IC1,M17*%
%TO.N,Net-(IC1-PadM17)*%
X199620000Y-77400000D03*
%TO.P,IC1,M16*%
%TO.N,Net-(IC1-PadM16)*%
X199620000Y-76600000D03*
%TO.P,IC1,M15*%
%TO.N,Net-(IC1-PadM15)*%
X199620000Y-75800000D03*
%TO.P,IC1,M14*%
%TO.N,GND*%
X199620000Y-75000000D03*
%TO.P,IC1,M13*%
%TO.N,V3.3*%
X199620000Y-74200000D03*
%TO.P,IC1,M12*%
%TO.N,Net-(IC1-PadM12)*%
X199620000Y-73400000D03*
%TO.P,IC1,M11*%
%TO.N,Net-(IC1-PadM11)*%
X199620000Y-72600000D03*
%TO.P,IC1,M10*%
%TO.N,Net-(IC1-PadM10)*%
X199620000Y-71800000D03*
%TO.P,IC1,M9*%
%TO.N,Net-(IC1-PadM9)*%
X199620000Y-71000000D03*
%TO.P,IC1,M8*%
%TO.N,Net-(IC1-PadM8)*%
X199620000Y-70200000D03*
%TO.P,IC1,M7*%
%TO.N,Net-(IC1-PadM7)*%
X199620000Y-69400000D03*
%TO.P,IC1,M6*%
%TO.N,V3.3*%
X199620000Y-68600000D03*
%TO.P,IC1,M5*%
X199620000Y-67800000D03*
%TO.P,IC1,M4*%
%TO.N,Net-(IC1-PadM4)*%
X199620000Y-67000000D03*
%TO.P,IC1,M3*%
%TO.N,CLK*%
X199620000Y-66200000D03*
%TO.P,IC1,M2*%
%TO.N,Net-(IC1-PadM2)*%
X199620000Y-65400000D03*
%TO.P,IC1,M1*%
%TO.N,m1*%
X199620000Y-64600000D03*
%TO.P,IC1,L18*%
%TO.N,Net-(IC1-PadL18)*%
X200420000Y-78200000D03*
%TO.P,IC1,L17*%
%TO.N,Net-(IC1-PadL17)*%
X200420000Y-77400000D03*
%TO.P,IC1,L16*%
%TO.N,Net-(IC1-PadL16)*%
X200420000Y-76600000D03*
%TO.P,IC1,L15*%
%TO.N,Net-(IC1-PadL15)*%
X200420000Y-75800000D03*
%TO.P,IC1,L14*%
%TO.N,V3.3*%
X200420000Y-75000000D03*
%TO.P,IC1,L13*%
X200420000Y-74200000D03*
%TO.P,IC1,L12*%
%TO.N,Net-(IC1-PadL12)*%
X200420000Y-73400000D03*
%TO.P,IC1,L11*%
%TO.N,Net-(IC1-PadL11)*%
X200420000Y-72600000D03*
%TO.P,IC1,L10*%
%TO.N,Net-(IC1-PadL10)*%
X200420000Y-71800000D03*
%TO.P,IC1,L9*%
%TO.N,Net-(IC1-PadL9)*%
X200420000Y-71000000D03*
%TO.P,IC1,L8*%
%TO.N,Net-(IC1-PadL8)*%
X200420000Y-70200000D03*
%TO.P,IC1,L7*%
%TO.N,Net-(IC1-PadL7)*%
X200420000Y-69400000D03*
%TO.P,IC1,L6*%
%TO.N,V3.3*%
X200420000Y-68600000D03*
%TO.P,IC1,L5*%
X200420000Y-67800000D03*
%TO.P,IC1,L4*%
%TO.N,GND*%
X200420000Y-67000000D03*
%TO.P,IC1,L3*%
%TO.N,Net-(IC1-PadL3)*%
X200420000Y-66200000D03*
%TO.P,IC1,L2*%
%TO.N,Net-(IC1-PadL2)*%
X200420000Y-65400000D03*
%TO.P,IC1,L1*%
%TO.N,l1*%
X200420000Y-64600000D03*
%TO.P,IC1,K18*%
%TO.N,Net-(IC1-PadK18)*%
X201220000Y-78200000D03*
%TO.P,IC1,K17*%
%TO.N,Net-(IC1-PadK17)*%
X201220000Y-77400000D03*
%TO.P,IC1,K16*%
%TO.N,Net-(IC1-PadK16)*%
X201220000Y-76600000D03*
%TO.P,IC1,K15*%
%TO.N,Net-(IC1-PadK15)*%
X201220000Y-75800000D03*
%TO.P,IC1,K14*%
%TO.N,V3.3*%
X201220000Y-75000000D03*
%TO.P,IC1,K13*%
%TO.N,GND*%
X201220000Y-74200000D03*
%TO.P,IC1,K12*%
%TO.N,Net-(IC1-PadK12)*%
X201220000Y-73400000D03*
%TO.P,IC1,K11*%
%TO.N,Net-(IC1-PadK11)*%
X201220000Y-72600000D03*
%TO.P,IC1,K10*%
%TO.N,Net-(IC1-PadK10)*%
X201220000Y-71800000D03*
%TO.P,IC1,K9*%
%TO.N,GND*%
X201220000Y-71000000D03*
%TO.P,IC1,K8*%
%TO.N,Net-(IC1-PadK8)*%
X201220000Y-70200000D03*
%TO.P,IC1,K7*%
%TO.N,Net-(IC1-PadK7)*%
X201220000Y-69400000D03*
%TO.P,IC1,K6*%
%TO.N,GND*%
X201220000Y-68600000D03*
%TO.P,IC1,K5*%
%TO.N,V3.3*%
X201220000Y-67800000D03*
%TO.P,IC1,K4*%
%TO.N,Net-(IC1-PadK4)*%
X201220000Y-67000000D03*
%TO.P,IC1,K3*%
%TO.N,Net-(IC1-PadK3)*%
X201220000Y-66200000D03*
%TO.P,IC1,K2*%
%TO.N,Net-(IC1-PadK2)*%
X201220000Y-65400000D03*
%TO.P,IC1,K1*%
%TO.N,k1*%
X201220000Y-64600000D03*
%TO.P,IC1,J18*%
%TO.N,Net-(IC1-PadJ18)*%
X202020000Y-78200000D03*
%TO.P,IC1,J17*%
%TO.N,GND*%
X202020000Y-77400000D03*
%TO.P,IC1,J16*%
%TO.N,Net-(IC1-PadJ16)*%
X202020000Y-76600000D03*
%TO.P,IC1,J15*%
%TO.N,Net-(IC1-PadJ15)*%
X202020000Y-75800000D03*
%TO.P,IC1,J14*%
%TO.N,V3.3*%
X202020000Y-75000000D03*
%TO.P,IC1,J13*%
X202020000Y-74200000D03*
%TO.P,IC1,J12*%
%TO.N,Net-(IC1-PadJ12)*%
X202020000Y-73400000D03*
%TO.P,IC1,J11*%
%TO.N,Net-(IC1-PadJ11)*%
X202020000Y-72600000D03*
%TO.P,IC1,J10*%
%TO.N,GND*%
X202020000Y-71800000D03*
%TO.P,IC1,J9*%
%TO.N,Net-(IC1-PadJ9)*%
X202020000Y-71000000D03*
%TO.P,IC1,J8*%
%TO.N,tck*%
X202020000Y-70200000D03*
%TO.P,IC1,J7*%
%TO.N,tms*%
X202020000Y-69400000D03*
%TO.P,IC1,J6*%
%TO.N,Net-(IC1-PadJ6)*%
X202020000Y-68600000D03*
%TO.P,IC1,J5*%
%TO.N,V3.3*%
X202020000Y-67800000D03*
%TO.P,IC1,J4*%
%TO.N,Net-(IC1-PadJ4)*%
X202020000Y-67000000D03*
%TO.P,IC1,J3*%
%TO.N,Net-(IC1-PadJ3)*%
X202020000Y-66200000D03*
%TO.P,IC1,J2*%
%TO.N,Net-(IC1-PadJ2)*%
X202020000Y-65400000D03*
%TO.P,IC1,J1*%
%TO.N,j1*%
X202020000Y-64600000D03*
%TO.P,IC1,H18*%
%TO.N,Net-(IC1-PadH18)*%
X202820000Y-78200000D03*
%TO.P,IC1,H17*%
%TO.N,Net-(IC1-PadH17)*%
X202820000Y-77400000D03*
%TO.P,IC1,H16*%
%TO.N,Net-(IC1-PadH16)*%
X202820000Y-76600000D03*
%TO.P,IC1,H15*%
%TO.N,Net-(IC1-PadH15)*%
X202820000Y-75800000D03*
%TO.P,IC1,H14*%
%TO.N,GND*%
X202820000Y-75000000D03*
%TO.P,IC1,H13*%
%TO.N,V3.3*%
X202820000Y-74200000D03*
%TO.P,IC1,H12*%
%TO.N,Net-(IC1-PadH12)*%
X202820000Y-73400000D03*
%TO.P,IC1,H11*%
%TO.N,Net-(IC1-PadH11)*%
X202820000Y-72600000D03*
%TO.P,IC1,H10*%
%TO.N,Net-(IC1-PadH10)*%
X202820000Y-71800000D03*
%TO.P,IC1,H9*%
%TO.N,Net-(IC1-PadH9)*%
X202820000Y-71000000D03*
%TO.P,IC1,H8*%
%TO.N,Net-(IC1-PadH8)*%
X202820000Y-70200000D03*
%TO.P,IC1,H7*%
%TO.N,Net-(IC1-PadH7)*%
X202820000Y-69400000D03*
%TO.P,IC1,H6*%
%TO.N,Net-(IC1-PadH6)*%
X202820000Y-68600000D03*
%TO.P,IC1,H5*%
%TO.N,V3.3*%
X202820000Y-67800000D03*
%TO.P,IC1,H4*%
%TO.N,tdo*%
X202820000Y-67000000D03*
%TO.P,IC1,H3*%
%TO.N,tdi*%
X202820000Y-66200000D03*
%TO.P,IC1,H2*%
%TO.N,Net-(IC1-PadH2)*%
X202820000Y-65400000D03*
%TO.P,IC1,H1*%
%TO.N,h1*%
X202820000Y-64600000D03*
%TO.P,IC1,G18*%
%TO.N,Net-(IC1-PadG18)*%
X203620000Y-78200000D03*
%TO.P,IC1,G17*%
%TO.N,Net-(IC1-PadG17)*%
X203620000Y-77400000D03*
%TO.P,IC1,G16*%
%TO.N,Net-(IC1-PadG16)*%
X203620000Y-76600000D03*
%TO.P,IC1,G15*%
%TO.N,Net-(IC1-PadG15)*%
X203620000Y-75800000D03*
%TO.P,IC1,G14*%
%TO.N,V3.3*%
X203620000Y-75000000D03*
%TO.P,IC1,G13*%
X203620000Y-74200000D03*
%TO.P,IC1,G12*%
%TO.N,Net-(IC1-PadG12)*%
X203620000Y-73400000D03*
%TO.P,IC1,G11*%
%TO.N,Net-(IC1-PadG11)*%
X203620000Y-72600000D03*
%TO.P,IC1,G10*%
%TO.N,Net-(IC1-PadG10)*%
X203620000Y-71800000D03*
%TO.P,IC1,G9*%
%TO.N,Net-(IC1-PadG9)*%
X203620000Y-71000000D03*
%TO.P,IC1,G8*%
%TO.N,Net-(IC1-PadG8)*%
X203620000Y-70200000D03*
%TO.P,IC1,G7*%
%TO.N,Net-(IC1-PadG7)*%
X203620000Y-69400000D03*
%TO.P,IC1,G6*%
%TO.N,Net-(IC1-PadG6)*%
X203620000Y-68600000D03*
%TO.P,IC1,G5*%
%TO.N,V3.3*%
X203620000Y-67800000D03*
%TO.P,IC1,G4*%
%TO.N,GND*%
X203620000Y-67000000D03*
%TO.P,IC1,G3*%
%TO.N,Net-(IC1-PadG3)*%
X203620000Y-66200000D03*
%TO.P,IC1,G2*%
%TO.N,GND*%
X203620000Y-65400000D03*
%TO.P,IC1,G1*%
%TO.N,Net-(IC1-PadG1)*%
X203620000Y-64600000D03*
%TO.P,IC1,F18*%
%TO.N,Net-(IC1-PadF18)*%
X204420000Y-78200000D03*
%TO.P,IC1,F17*%
%TO.N,GND*%
X204420000Y-77400000D03*
%TO.P,IC1,F16*%
%TO.N,Net-(IC1-PadF16)*%
X204420000Y-76600000D03*
%TO.P,IC1,F15*%
%TO.N,Net-(IC1-PadF15)*%
X204420000Y-75800000D03*
%TO.P,IC1,F14*%
%TO.N,V3.3*%
X204420000Y-75000000D03*
%TO.P,IC1,F13*%
%TO.N,Net-(IC1-PadF13)*%
X204420000Y-74200000D03*
%TO.P,IC1,F12*%
%TO.N,Net-(IC1-PadF12)*%
X204420000Y-73400000D03*
%TO.P,IC1,F11*%
%TO.N,Net-(IC1-PadF11)*%
X204420000Y-72600000D03*
%TO.P,IC1,F10*%
%TO.N,Net-(IC1-PadF10)*%
X204420000Y-71800000D03*
%TO.P,IC1,F9*%
%TO.N,V3.3*%
X204420000Y-71000000D03*
%TO.P,IC1,F8*%
%TO.N,GND*%
X204420000Y-70200000D03*
%TO.P,IC1,F7*%
%TO.N,Net-(IC1-PadF7)*%
X204420000Y-69400000D03*
%TO.P,IC1,F6*%
%TO.N,V3.3*%
X204420000Y-68600000D03*
%TO.P,IC1,F5*%
%TO.N,Net-(IC1-PadF5)*%
X204420000Y-67800000D03*
%TO.P,IC1,F4*%
%TO.N,Net-(IC1-PadF4)*%
X204420000Y-67000000D03*
%TO.P,IC1,F3*%
%TO.N,Net-(IC1-PadF3)*%
X204420000Y-66200000D03*
%TO.P,IC1,F2*%
%TO.N,Net-(IC1-PadF2)*%
X204420000Y-65400000D03*
%TO.P,IC1,F1*%
%TO.N,Net-(IC1-PadF1)*%
X204420000Y-64600000D03*
%TO.P,IC1,E18*%
%TO.N,Net-(IC1-PadE18)*%
X205220000Y-78200000D03*
%TO.P,IC1,E17*%
%TO.N,Net-(IC1-PadE17)*%
X205220000Y-77400000D03*
%TO.P,IC1,E16*%
%TO.N,Net-(IC1-PadE16)*%
X205220000Y-76600000D03*
%TO.P,IC1,E15*%
%TO.N,Net-(IC1-PadE15)*%
X205220000Y-75800000D03*
%TO.P,IC1,E14*%
%TO.N,Net-(IC1-PadE14)*%
X205220000Y-75000000D03*
%TO.P,IC1,E13*%
%TO.N,GND*%
X205220000Y-74200000D03*
%TO.P,IC1,E12*%
%TO.N,Net-(IC1-PadE12)*%
X205220000Y-73400000D03*
%TO.P,IC1,E11*%
%TO.N,Net-(IC1-PadE11)*%
X205220000Y-72600000D03*
%TO.P,IC1,E10*%
%TO.N,GND*%
X205220000Y-71800000D03*
%TO.P,IC1,E9*%
%TO.N,V3.3*%
X205220000Y-71000000D03*
%TO.P,IC1,E8*%
X205220000Y-70200000D03*
%TO.P,IC1,E7*%
%TO.N,VCCIO_B8*%
X205220000Y-69400000D03*
%TO.P,IC1,E6*%
%TO.N,GND*%
X205220000Y-68600000D03*
%TO.P,IC1,E5*%
%TO.N,e5*%
X205220000Y-67800000D03*
%TO.P,IC1,E4*%
%TO.N,e4*%
X205220000Y-67000000D03*
%TO.P,IC1,E3*%
%TO.N,Net-(IC1-PadE3)*%
X205220000Y-66200000D03*
%TO.P,IC1,E2*%
%TO.N,Net-(IC1-PadE2)*%
X205220000Y-65400000D03*
%TO.P,IC1,E1*%
%TO.N,Net-(IC1-PadE1)*%
X205220000Y-64600000D03*
%TO.P,IC1,D18*%
%TO.N,d18*%
X206020000Y-78200000D03*
%TO.P,IC1,D17*%
%TO.N,d17*%
X206020000Y-77400000D03*
%TO.P,IC1,D16*%
%TO.N,d16*%
X206020000Y-76600000D03*
%TO.P,IC1,D15*%
%TO.N,d15*%
X206020000Y-75800000D03*
%TO.P,IC1,D14*%
%TO.N,Net-(IC1-PadD14)*%
X206020000Y-75000000D03*
%TO.P,IC1,D13*%
%TO.N,Net-(IC1-PadD13)*%
X206020000Y-74200000D03*
%TO.P,IC1,D12*%
%TO.N,Net-(IC1-PadD12)*%
X206020000Y-73400000D03*
%TO.P,IC1,D11*%
%TO.N,Net-(IC1-PadD11)*%
X206020000Y-72600000D03*
%TO.P,IC1,D10*%
%TO.N,Net-(IC1-PadD10)*%
X206020000Y-71800000D03*
%TO.P,IC1,D9*%
%TO.N,Net-(IC1-PadD9)*%
X206020000Y-71000000D03*
%TO.P,IC1,D8*%
%TO.N,d8*%
X206020000Y-70200000D03*
%TO.P,IC1,D7*%
%TO.N,d7*%
X206020000Y-69400000D03*
%TO.P,IC1,D6*%
%TO.N,d6*%
X206020000Y-68600000D03*
%TO.P,IC1,D5*%
%TO.N,d5*%
X206020000Y-67800000D03*
%TO.P,IC1,D4*%
%TO.N,d4*%
X206020000Y-67000000D03*
%TO.P,IC1,D3*%
%TO.N,GND*%
X206020000Y-66200000D03*
%TO.P,IC1,D2*%
%TO.N,Net-(IC1-PadD2)*%
X206020000Y-65400000D03*
%TO.P,IC1,D1*%
%TO.N,Net-(IC1-PadD1)*%
X206020000Y-64600000D03*
%TO.P,IC1,C18*%
%TO.N,c18*%
X206820000Y-78200000D03*
%TO.P,IC1,C17*%
%TO.N,c17*%
X206820000Y-77400000D03*
%TO.P,IC1,C16*%
%TO.N,Net-(IC1-PadC16)*%
X206820000Y-76600000D03*
%TO.P,IC1,C15*%
%TO.N,Net-(IC1-PadC15)*%
X206820000Y-75800000D03*
%TO.P,IC1,C14*%
%TO.N,Net-(IC1-PadC14)*%
X206820000Y-75000000D03*
%TO.P,IC1,C13*%
%TO.N,Net-(IC1-PadC13)*%
X206820000Y-74200000D03*
%TO.P,IC1,C12*%
%TO.N,Net-(IC1-PadC12)*%
X206820000Y-73400000D03*
%TO.P,IC1,C11*%
%TO.N,Net-(IC1-PadC11)*%
X206820000Y-72600000D03*
%TO.P,IC1,C10*%
%TO.N,c10*%
X206820000Y-71800000D03*
%TO.P,IC1,C9*%
%TO.N,c9*%
X206820000Y-71000000D03*
%TO.P,IC1,C8*%
%TO.N,c8*%
X206820000Y-70200000D03*
%TO.P,IC1,C7*%
%TO.N,c7*%
X206820000Y-69400000D03*
%TO.P,IC1,C6*%
%TO.N,c6*%
X206820000Y-68600000D03*
%TO.P,IC1,C5*%
%TO.N,c5*%
X206820000Y-67800000D03*
%TO.P,IC1,C4*%
%TO.N,Net-(IC1-PadC4)*%
X206820000Y-67000000D03*
%TO.P,IC1,C3*%
%TO.N,Net-(IC1-PadC3)*%
X206820000Y-66200000D03*
%TO.P,IC1,C2*%
%TO.N,Net-(IC1-PadC2)*%
X206820000Y-65400000D03*
%TO.P,IC1,C1*%
%TO.N,Net-(IC1-PadC1)*%
X206820000Y-64600000D03*
%TO.P,IC1,B18*%
%TO.N,Net-(IC1-PadB18)*%
X207620000Y-78200000D03*
%TO.P,IC1,B17*%
%TO.N,Net-(IC1-PadB17)*%
X207620000Y-77400000D03*
%TO.P,IC1,B16*%
%TO.N,Net-(IC1-PadB16)*%
X207620000Y-76600000D03*
%TO.P,IC1,B15*%
%TO.N,GND*%
X207620000Y-75800000D03*
%TO.P,IC1,B14*%
%TO.N,Net-(IC1-PadB14)*%
X207620000Y-75000000D03*
%TO.P,IC1,B13*%
%TO.N,Net-(IC1-PadB13)*%
X207620000Y-74200000D03*
%TO.P,IC1,B12*%
%TO.N,Net-(IC1-PadB12)*%
X207620000Y-73400000D03*
%TO.P,IC1,B11*%
%TO.N,Net-(IC1-PadB11)*%
X207620000Y-72600000D03*
%TO.P,IC1,B10*%
%TO.N,GND*%
X207620000Y-71800000D03*
%TO.P,IC1,B9*%
%TO.N,Net-(IC1-PadB9)*%
X207620000Y-71000000D03*
%TO.P,IC1,B8*%
%TO.N,Net-(IC1-PadB8)*%
X207620000Y-70200000D03*
%TO.P,IC1,B7*%
%TO.N,Net-(IC1-PadB7)*%
X207620000Y-69400000D03*
%TO.P,IC1,B6*%
%TO.N,GND*%
X207620000Y-68600000D03*
%TO.P,IC1,B5*%
%TO.N,Net-(IC1-PadB5)*%
X207620000Y-67800000D03*
%TO.P,IC1,B4*%
%TO.N,Net-(IC1-PadB4)*%
X207620000Y-67000000D03*
%TO.P,IC1,B3*%
%TO.N,Net-(IC1-PadB3)*%
X207620000Y-66200000D03*
%TO.P,IC1,B2*%
%TO.N,Net-(IC1-PadB2)*%
X207620000Y-65400000D03*
%TO.P,IC1,B1*%
%TO.N,Net-(IC1-PadB1)*%
X207620000Y-64600000D03*
%TO.P,IC1,A18*%
%TO.N,GND*%
X208420000Y-78200000D03*
%TO.P,IC1,A17*%
%TO.N,Net-(IC1-PadA17)*%
X208420000Y-77400000D03*
%TO.P,IC1,A16*%
%TO.N,Net-(IC1-PadA16)*%
X208420000Y-76600000D03*
%TO.P,IC1,A15*%
%TO.N,Net-(IC1-PadA15)*%
X208420000Y-75800000D03*
%TO.P,IC1,A14*%
%TO.N,Net-(IC1-PadA14)*%
X208420000Y-75000000D03*
%TO.P,IC1,A13*%
%TO.N,Net-(IC1-PadA13)*%
X208420000Y-74200000D03*
%TO.P,IC1,A12*%
%TO.N,Net-(IC1-PadA12)*%
X208420000Y-73400000D03*
%TO.P,IC1,A11*%
%TO.N,Net-(IC1-PadA11)*%
X208420000Y-72600000D03*
%TO.P,IC1,A10*%
%TO.N,Net-(IC1-PadA10)*%
X208420000Y-71800000D03*
%TO.P,IC1,A9*%
%TO.N,MCLK*%
X208420000Y-71000000D03*
%TO.P,IC1,A8*%
%TO.N,LRCK*%
X208420000Y-70200000D03*
%TO.P,IC1,A7*%
%TO.N,Net-(IC1-PadA7)*%
X208420000Y-69400000D03*
%TO.P,IC1,A6*%
%TO.N,SDATA*%
X208420000Y-68600000D03*
%TO.P,IC1,A5*%
%TO.N,EN*%
X208420000Y-67800000D03*
%TO.P,IC1,A4*%
%TO.N,INTERR*%
X208420000Y-67000000D03*
%TO.P,IC1,A3*%
%TO.N,DATA*%
X208420000Y-66200000D03*
%TO.P,IC1,A2*%
%TO.N,DCLK*%
X208420000Y-65400000D03*
%TO.P,IC1,A1*%
%TO.N,GND*%
X208420000Y-64600000D03*
%TD*%
D18*
%TO.P,D4,2*%
%TO.N,V3.3*%
X194945000Y-81915000D03*
D19*
%TO.P,D4,1*%
%TO.N,tms*%
X187325000Y-81915000D03*
%TD*%
%TO.P,D3,1*%
%TO.N,tdi*%
X189230000Y-57150000D03*
D18*
%TO.P,D3,2*%
%TO.N,V3.3*%
X196850000Y-57150000D03*
%TD*%
%TO.P,D2,2*%
%TO.N,V3.3*%
X207010000Y-57150000D03*
D19*
%TO.P,D2,1*%
%TO.N,tdo*%
X199390000Y-57150000D03*
%TD*%
D18*
%TO.P,D1,2*%
%TO.N,V3.3*%
X207010000Y-60960000D03*
D19*
%TO.P,D1,1*%
%TO.N,tck*%
X199390000Y-60960000D03*
%TD*%
D16*
%TO.P,clk1,4*%
%TO.N,V3.3*%
X186894200Y-43587080D03*
%TO.P,clk1,3*%
%TO.N,CLK*%
X186894200Y-59187080D03*
%TO.P,clk1,2*%
%TO.N,GND*%
X194894200Y-59187080D03*
%TO.P,clk1,1*%
%TO.N,Net-(clk1-Pad1)*%
X194894200Y-43587080D03*
%TD*%
D20*
%TO.P,C10,2*%
%TO.N,GND*%
X190500000Y-71835000D03*
%TO.P,C10,1*%
%TO.N,tms*%
X190500000Y-76835000D03*
%TD*%
%TO.P,C9,2*%
%TO.N,GND*%
X187960000Y-71940000D03*
%TO.P,C9,1*%
%TO.N,tdi*%
X187960000Y-76940000D03*
%TD*%
%TO.P,C8,2*%
%TO.N,GND*%
X216353400Y-79832200D03*
%TO.P,C8,1*%
%TO.N,tdo*%
X211353400Y-79832200D03*
%TD*%
%TO.P,C7,2*%
%TO.N,Net-(C7-Pad2)*%
X232410000Y-78740000D03*
%TO.P,C7,1*%
%TO.N,GND*%
X232410000Y-83740000D03*
%TD*%
%TO.P,C6,2*%
%TO.N,GND*%
X235520000Y-62150000D03*
%TO.P,C6,1*%
%TO.N,Net-(C6-Pad1)*%
X235520000Y-67150000D03*
%TD*%
%TO.P,C5,2*%
%TO.N,5Vin*%
X230110000Y-75810000D03*
%TO.P,C5,1*%
%TO.N,GND*%
X230110000Y-70810000D03*
%TD*%
%TO.P,C4,2*%
%TO.N,Net-(C4-Pad2)*%
X220910000Y-80680000D03*
%TO.P,C4,1*%
%TO.N,Net-(C4-Pad1)*%
X225910000Y-80680000D03*
%TD*%
%TO.P,C3,2*%
%TO.N,5Vin*%
X226610000Y-75710000D03*
%TO.P,C3,1*%
%TO.N,GND*%
X226610000Y-70710000D03*
%TD*%
%TO.P,C2,2*%
%TO.N,Net-(C2-Pad2)*%
X220780000Y-64410000D03*
%TO.P,C2,1*%
%TO.N,Net-(C2-Pad1)*%
X225780000Y-64410000D03*
%TD*%
%TO.P,C1,2*%
%TO.N,GND*%
X190500000Y-63500000D03*
%TO.P,C1,1*%
%TO.N,tck*%
X190500000Y-68500000D03*
%TD*%
D21*
%TO.N,GND*%
X242252500Y-49974500D03*
X243967000Y-49847500D03*
X220789500Y-72898000D03*
X222186500Y-73025000D03*
%TO.N,Net-(IC1-PadG8)*%
X203644500Y-70231000D03*
%TO.N,DATA*%
X208419700Y-66154300D03*
%TO.N,c9*%
X206799180Y-71122540D03*
%TO.N,V3.3*%
X204528420Y-68724780D03*
X203702920Y-67906900D03*
X202824080Y-67970400D03*
X202097640Y-67886580D03*
X201198480Y-67899280D03*
X200418700Y-67891660D03*
X199636380Y-67881500D03*
%TO.N,GND*%
X195640960Y-67040760D03*
X203702920Y-66997580D03*
X205216760Y-71805800D03*
X204472540Y-70291960D03*
%TO.N,V3.3*%
X205160880Y-70271640D03*
X205211680Y-71005700D03*
X204406500Y-70998080D03*
%TO.N,GND*%
X202011280Y-77411580D03*
X207604360Y-71683880D03*
X201218800Y-71003160D03*
X202013820Y-71826120D03*
X198821040Y-77398880D03*
X208521300Y-78226920D03*
X207627220Y-75826620D03*
X204421740Y-77419200D03*
X194873880Y-64546480D03*
%TO.N,CLK*%
X199616060Y-66174620D03*
%TO.N,GND*%
X198833740Y-65463420D03*
X201155300Y-68625720D03*
%TO.N,V3.3*%
X200423780Y-68610480D03*
X199621140Y-68592700D03*
%TO.N,GND*%
X195628260Y-71777860D03*
X195600320Y-74970640D03*
X194851020Y-78183740D03*
%TO.N,V3.3*%
X199580500Y-74185780D03*
X200319640Y-74152760D03*
X200362820Y-75006200D03*
X201178160Y-75026520D03*
X202003660Y-75023980D03*
X202021440Y-74132440D03*
X202811380Y-74193400D03*
X203624180Y-74211180D03*
%TO.N,GND*%
X205229460Y-74203560D03*
%TO.N,V3.3*%
X204457300Y-75018900D03*
X203614020Y-74993500D03*
%TO.N,GND*%
X202806300Y-74996040D03*
X201236580Y-74211180D03*
X199626220Y-75006200D03*
%TO.N,V3.3*%
X198020940Y-74206100D03*
%TO.N,GND*%
X198815960Y-73398380D03*
X198826120Y-71803260D03*
%TO.N,V3.3*%
X198003160Y-69395340D03*
X198821040Y-70993000D03*
X198010780Y-70993000D03*
X198015860Y-70205600D03*
%TO.N,GND*%
X197220840Y-69400420D03*
X198861680Y-67932300D03*
X200393300Y-67073780D03*
X203621640Y-65417700D03*
X208429860Y-64617600D03*
X205960980Y-66200020D03*
X207556100Y-68592700D03*
X205232000Y-68630800D03*
X209889700Y-78359000D03*
%TO.N,d15*%
X206019400Y-75806300D03*
%TO.N,d17*%
X206019400Y-77419200D03*
%TO.N,d18*%
X206019400Y-78193900D03*
%TO.N,e5*%
X205232000Y-67792600D03*
%TO.N,e4*%
X205244700Y-66992500D03*
%TO.N,d16*%
X205968600Y-76581000D03*
%TO.N,d8*%
X206057500Y-70281800D03*
%TO.N,d7*%
X206082900Y-69430900D03*
%TO.N,d6*%
X205968600Y-68618100D03*
%TO.N,d4*%
X206019400Y-66992500D03*
%TO.N,d5*%
X206019400Y-67792600D03*
X206019400Y-67792600D03*
%TO.N,c18*%
X206806800Y-78219300D03*
%TO.N,c17*%
X206806800Y-77381100D03*
%TO.N,c10*%
X206781400Y-71793100D03*
%TO.N,c5*%
X206844900Y-67703700D03*
%TO.N,tck*%
X190805872Y-64862090D03*
X202031600Y-70205600D03*
X202984100Y-78943200D03*
%TO.N,5Vin*%
X222591500Y-71691500D03*
%TO.N,Net-(C6-Pad1)*%
X238125000Y-66040000D03*
%TO.N,tdo*%
X201623027Y-68216440D03*
X202808867Y-67021100D03*
X189230000Y-77368400D03*
X201980800Y-78867000D03*
X196187060Y-60247622D03*
X197612000Y-58541920D03*
%TO.N,tdi*%
X188928474Y-77854274D03*
X193167000Y-61569600D03*
X194945000Y-61747400D03*
X202336400Y-64084200D03*
X202819000Y-66201900D03*
%TO.N,tms*%
X200820001Y-69819599D03*
X202031600Y-69392800D03*
X200863199Y-78943199D03*
%TO.N,CLK*%
X192022672Y-62899999D03*
X195900040Y-63662560D03*
X196699687Y-64054339D03*
%TO.N,Net-(IC1-PadH9)*%
X203225400Y-64033400D03*
X202844400Y-70993000D03*
%TO.N,Net-(IC1-PadH8)*%
X202819000Y-70154800D03*
%TO.N,Net-(IC1-PadG9)*%
X203657200Y-70967600D03*
%TO.N,Net-(IC1-PadG8)*%
X209550000Y-54610000D03*
%TO.N,e5*%
X221645480Y-77144880D03*
X212722460Y-67797680D03*
%TO.N,e4*%
X227398580Y-81836260D03*
X211721700Y-66868040D03*
X210976944Y-65965804D03*
X209204560Y-67111880D03*
%TO.N,d18*%
X219184220Y-79133700D03*
X216618820Y-77782420D03*
X211123813Y-78184727D03*
%TO.N,d17*%
X219882720Y-82478880D03*
X217711020Y-80391000D03*
X214802720Y-79174340D03*
X213763860Y-78135480D03*
X211223324Y-77165736D03*
%TO.N,d16*%
X219146120Y-82349340D03*
X217545920Y-81765140D03*
X216362280Y-81998820D03*
X215079580Y-81683860D03*
X213273640Y-80416400D03*
X212623400Y-78849220D03*
X210093560Y-76387960D03*
%TO.N,d15*%
X219108020Y-83644740D03*
X215239600Y-78201520D03*
X214701120Y-77299820D03*
X210078320Y-75468480D03*
%TO.N,d8*%
X215818720Y-77718920D03*
X214045800Y-69781420D03*
X210931760Y-71285100D03*
%TO.N,d7*%
X214922100Y-75293220D03*
X213301580Y-74853800D03*
X212981540Y-72372220D03*
X209161380Y-70240500D03*
%TO.N,d6*%
X211259420Y-68990500D03*
X209080100Y-68990500D03*
%TO.N,d5*%
X213601300Y-79705200D03*
X211839076Y-70951824D03*
X210807300Y-69291200D03*
X210540600Y-67830700D03*
X207175100Y-63588900D03*
%TO.N,d4*%
X210718400Y-70383400D03*
X210083400Y-69253100D03*
X209883401Y-68209500D03*
X206413100Y-63982600D03*
%TO.N,c18*%
X207276700Y-85509100D03*
X209388100Y-82133853D03*
X209623001Y-80889500D03*
X209889700Y-79533800D03*
X208816600Y-78730499D03*
%TO.N,c10*%
X209232501Y-80441801D03*
X209597600Y-72809100D03*
%TO.N,c9*%
X200096120Y-86161880D03*
X201914760Y-82707480D03*
X201914760Y-80705960D03*
X205639598Y-73800000D03*
%TO.N,c8*%
X196938900Y-86979999D03*
X204609700Y-81749900D03*
X204609700Y-80454500D03*
X206603475Y-79591951D03*
X209118200Y-72275700D03*
X206439598Y-72200000D03*
X206768700Y-70240500D03*
%TO.N,c7*%
X207095627Y-81886327D03*
X207657700Y-80086200D03*
X206810000Y-69418200D03*
X208013763Y-68986855D03*
%TO.N,c6*%
X207124300Y-79511500D03*
X206819500Y-68592700D03*
%TO.N,c5*%
X193014600Y-80568800D03*
X200456800Y-79333700D03*
X206425800Y-78730500D03*
%TO.N,MCLK*%
X215739980Y-74173080D03*
X217789760Y-73708260D03*
X217883740Y-70197980D03*
X219499180Y-67332860D03*
%TO.N,LRCK*%
X215500000Y-72960000D03*
X217402000Y-73230740D03*
X217932000Y-67942460D03*
X218830500Y-67510660D03*
%TO.N,SDATA*%
X216270840Y-70258940D03*
X216923620Y-67310000D03*
X217937080Y-65359280D03*
%TO.N,DCLK*%
X208407000Y-65405000D03*
%TO.N,EN*%
X208432400Y-67792600D03*
X190982600Y-67284600D03*
X189484000Y-67284600D03*
X193126360Y-82550000D03*
X192501520Y-77663040D03*
X192307157Y-69096837D03*
%TO.N,INTERR*%
X208407000Y-66979800D03*
X193725800Y-66548000D03*
X187096400Y-66548000D03*
%TO.N,DATA*%
X191922400Y-78267560D03*
X192278000Y-66938500D03*
X192278000Y-68008500D03*
X191960500Y-76136500D03*
%TO.N,DCLK*%
X193497200Y-65252600D03*
%TO.N,u1*%
X195554600Y-60302140D03*
X195420383Y-61519932D03*
X196408040Y-62590680D03*
X195620000Y-64582700D03*
%TO.N,r1*%
X197238620Y-64444880D03*
X198003160Y-60251340D03*
%TO.N,p1*%
X196519800Y-61554360D03*
X198393660Y-63536355D03*
X198020000Y-64582700D03*
%TO.N,n1*%
X198866760Y-64503300D03*
X199059800Y-63541300D03*
X201114660Y-59207400D03*
X201236580Y-57878980D03*
%TO.N,m1*%
X202369420Y-58135999D03*
X202023980Y-59245500D03*
X199864980Y-63441580D03*
X199620000Y-64582700D03*
%TO.N,l1*%
X200464420Y-64508380D03*
X200616820Y-63510160D03*
X202582780Y-59260740D03*
X202928995Y-58128675D03*
%TO.N,k1*%
X204416660Y-58089800D03*
X203992480Y-59189999D03*
X201447400Y-63441580D03*
X201220000Y-64582700D03*
%TO.N,j1*%
X201896134Y-64373849D03*
X202194160Y-63413640D03*
X204744320Y-59222640D03*
X205237080Y-57965340D03*
%TO.N,h1*%
X208399380Y-58135999D03*
X207477360Y-59189999D03*
%TO.N,e5*%
X209232500Y-66484500D03*
%TD*%
D22*
%TO.N,tck*%
X199390000Y-59660000D02*
X199390000Y-60960000D01*
X200387001Y-58662999D02*
X199390000Y-59660000D01*
X217412999Y-58662999D02*
X200387001Y-58662999D01*
X218440000Y-59690000D02*
X217412999Y-58662999D01*
X194707962Y-60960000D02*
X190805872Y-64862090D01*
X199390000Y-60960000D02*
X194707962Y-60960000D01*
D23*
X209357630Y-81280000D02*
X208280000Y-81280000D01*
X211371542Y-81280000D02*
X209357630Y-81280000D01*
X218440000Y-74211542D02*
X211371542Y-81280000D01*
X218440000Y-59690000D02*
X218440000Y-74211542D01*
D22*
%TO.N,Net-(C2-Pad2)*%
X223340000Y-61850000D02*
X220780000Y-64410000D01*
X223340000Y-60840000D02*
X223340000Y-61850000D01*
X220780000Y-69665000D02*
X221575000Y-70460000D01*
X220780000Y-64410000D02*
X220780000Y-69665000D01*
D23*
X224039999Y-60140001D02*
X223340000Y-60840000D01*
X228366939Y-55813061D02*
X224039999Y-60140001D01*
X229441639Y-55813061D02*
X228366939Y-55813061D01*
X230482140Y-54772560D02*
X229441639Y-55813061D01*
D22*
%TO.N,Net-(C2-Pad1)*%
X229530000Y-60660000D02*
X229600000Y-60660000D01*
X225780000Y-64410000D02*
X229530000Y-60660000D01*
X232540000Y-60660000D02*
X232590000Y-60610000D01*
X229600000Y-60660000D02*
X232540000Y-60660000D01*
%TO.N,5Vin*%
X221618500Y-71691500D02*
X221575000Y-71735000D01*
X222591500Y-71691500D02*
X221618500Y-71691500D01*
%TO.N,Net-(C4-Pad2)*%
X220910000Y-74875000D02*
X221575000Y-74210000D01*
X220910000Y-80680000D02*
X220910000Y-74875000D01*
X220910000Y-82150000D02*
X223370000Y-84610000D01*
X220910000Y-80680000D02*
X220910000Y-82150000D01*
D23*
X222702000Y-74210000D02*
X221575000Y-74210000D01*
X222765501Y-74146499D02*
X222702000Y-74210000D01*
X222765501Y-73088557D02*
X222765501Y-74146499D01*
X232139499Y-58841557D02*
X233489500Y-60191558D01*
X232139499Y-56632201D02*
X232139499Y-58841557D01*
X233489500Y-60191558D02*
X233489500Y-62420500D01*
X233022140Y-55749560D02*
X232139499Y-56632201D01*
X233022140Y-54772560D02*
X233022140Y-55749560D01*
X233489500Y-62420500D02*
X222765501Y-73088557D01*
X233480501Y-62373557D02*
X233489500Y-62420500D01*
D22*
%TO.N,Net-(C4-Pad1)*%
X226709999Y-79880001D02*
X225910000Y-80680000D01*
X234820001Y-79880001D02*
X226709999Y-79880001D01*
X236220000Y-81280000D02*
X234820001Y-79880001D01*
X237904962Y-81280000D02*
X237209949Y-81280000D01*
X237209949Y-81280000D02*
X236220000Y-81280000D01*
X240333001Y-78851961D02*
X237904962Y-81280000D01*
X240333001Y-71766001D02*
X240333001Y-78851961D01*
X239306000Y-70739000D02*
X240333001Y-71766001D01*
%TO.N,Net-(C6-Pad1)*%
X234440000Y-68230000D02*
X235520000Y-67150000D01*
X232590000Y-68230000D02*
X234440000Y-68230000D01*
X233860000Y-48085000D02*
X233860000Y-49110000D01*
X238125000Y-65757158D02*
X238125000Y-66040000D01*
X238125000Y-61214696D02*
X238125000Y-65757158D01*
X236234250Y-59323946D02*
X238125000Y-61214696D01*
X236234250Y-51484250D02*
X236234250Y-59323946D01*
X233860000Y-49110000D02*
X236234250Y-51484250D01*
%TO.N,Net-(C7-Pad2)*%
X232880000Y-78270000D02*
X232410000Y-78740000D01*
X236220000Y-78270000D02*
X232880000Y-78270000D01*
X233871011Y-57706011D02*
X233871011Y-57665000D01*
X236919999Y-60754999D02*
X233871011Y-57706011D01*
X236220000Y-78270000D02*
X236919999Y-77570001D01*
X236982000Y-77024949D02*
X236982000Y-75946000D01*
X238316051Y-78359000D02*
X236982000Y-77024949D01*
X239306000Y-78359000D02*
X238316051Y-78359000D01*
X236982000Y-75946000D02*
X236919999Y-60754999D01*
X236919999Y-77570001D02*
X236982000Y-75946000D01*
D23*
%TO.N,tdo*%
X191744590Y-79882990D02*
X189230000Y-77368400D01*
X205028790Y-79882990D02*
X191744590Y-79882990D01*
X205740000Y-80594200D02*
X205028790Y-79882990D01*
X205740000Y-81280000D02*
X205740000Y-80594200D01*
X196187060Y-60247622D02*
X197612000Y-58822682D01*
X197612000Y-58822682D02*
X197612000Y-58541920D01*
%TO.N,tdi*%
X196977000Y-80137000D02*
X198120000Y-81280000D01*
X191211200Y-80137000D02*
X196977000Y-80137000D01*
X188928474Y-77854274D02*
X191211200Y-80137000D01*
X189230000Y-56123000D02*
X188824499Y-55717499D01*
X189230000Y-57150000D02*
X189230000Y-56123000D01*
X189230000Y-58177000D02*
X192622600Y-61569600D01*
X189230000Y-57150000D02*
X189230000Y-58177000D01*
X192622600Y-61569600D02*
X193167000Y-61569600D01*
X194945000Y-61747400D02*
X197129400Y-63931800D01*
X197129400Y-63931800D02*
X202184000Y-63931800D01*
X202184000Y-63931800D02*
X202336400Y-64084200D01*
X194745001Y-61947399D02*
X194945000Y-61747400D01*
X194404499Y-66447243D02*
X194404499Y-62287901D01*
X189509499Y-71342243D02*
X194404499Y-66447243D01*
X189509499Y-71856443D02*
X189509499Y-71342243D01*
X194404499Y-62287901D02*
X194745001Y-61947399D01*
X187960000Y-73405942D02*
X189509499Y-71856443D01*
X187960000Y-76940000D02*
X187960000Y-73405942D01*
%TO.N,CLK*%
X188330840Y-59187080D02*
X192054480Y-62910720D01*
X186894200Y-59187080D02*
X188330840Y-59187080D01*
X196307908Y-63662560D02*
X196699687Y-64054339D01*
X195900040Y-63662560D02*
X196307908Y-63662560D01*
%TO.N,e5*%
X225990819Y-82226761D02*
X221645480Y-77881422D01*
X232639499Y-87589557D02*
X227276703Y-82226761D01*
X233180559Y-88670501D02*
X232639499Y-88129441D01*
X232639499Y-88129441D02*
X232639499Y-87589557D01*
X235179499Y-88670501D02*
X233180559Y-88670501D01*
X227276703Y-82226761D02*
X225990819Y-82226761D01*
X236220000Y-87630000D02*
X235179499Y-88670501D01*
X221645480Y-77881422D02*
X221645480Y-77144880D01*
%TO.N,e4*%
X229490501Y-83440501D02*
X229002821Y-83440501D01*
X233680000Y-87630000D02*
X229490501Y-83440501D01*
X229002821Y-83440501D02*
X227398580Y-81836260D01*
X211721700Y-66710560D02*
X210976944Y-65965804D01*
X211721700Y-66868040D02*
X211721700Y-66710560D01*
%TO.N,d18*%
X219184220Y-79133700D02*
X217970100Y-79133700D01*
X217970100Y-79133700D02*
X216618820Y-77782420D01*
%TO.N,d17*%
X219882720Y-82478880D02*
X218622880Y-81219040D01*
X218539060Y-81219040D02*
X217711020Y-80391000D01*
X218622880Y-81219040D02*
X218539060Y-81219040D01*
X212193068Y-78135480D02*
X211223324Y-77165736D01*
X213763860Y-78135480D02*
X212193068Y-78135480D01*
%TO.N,d16*%
X218863278Y-82349340D02*
X218279078Y-81765140D01*
X219146120Y-82349340D02*
X218863278Y-82349340D01*
X218279078Y-81765140D02*
X217545920Y-81765140D01*
X216162281Y-81798821D02*
X215143741Y-81798821D01*
X216362280Y-81998820D02*
X216162281Y-81798821D01*
X215079580Y-81734660D02*
X215079580Y-81683860D01*
X215143741Y-81798821D02*
X215079580Y-81734660D01*
X212340558Y-78849220D02*
X210093560Y-76602222D01*
X212623400Y-78849220D02*
X212340558Y-78849220D01*
X210093560Y-76602222D02*
X210093560Y-76387960D01*
%TO.N,d15*%
X218699998Y-83644740D02*
X215239600Y-80184342D01*
X219108020Y-83644740D02*
X218699998Y-83644740D01*
X215239600Y-80184342D02*
X215239600Y-78201520D01*
X214701120Y-77299820D02*
X211909660Y-77299820D01*
X211909660Y-77299820D02*
X210078320Y-75468480D01*
%TO.N,d8*%
X220980000Y-82992858D02*
X215917780Y-77930638D01*
X220980000Y-87630000D02*
X220980000Y-82992858D01*
X215917780Y-77930638D02*
X215917780Y-77817980D01*
X215917780Y-77817980D02*
X215818720Y-77718920D01*
X212484895Y-71342325D02*
X210988985Y-71342325D01*
X210988985Y-71342325D02*
X210931760Y-71285100D01*
X214045800Y-69781420D02*
X212484895Y-71342325D01*
%TO.N,d7*%
X214722101Y-75093221D02*
X213541001Y-75093221D01*
X214922100Y-75293220D02*
X214722101Y-75093221D01*
X213541001Y-75093221D02*
X213301580Y-74853800D01*
X212981540Y-72372220D02*
X211340700Y-72372220D01*
X211340700Y-72372220D02*
X209095340Y-70126860D01*
X209095340Y-70174460D02*
X209161380Y-70240500D01*
X209095340Y-70126860D02*
X209095340Y-70174460D01*
%TO.N,d6*%
X211131519Y-68862599D02*
X209211521Y-68862599D01*
X211259420Y-68990500D02*
X211131519Y-68862599D01*
X209083620Y-68990500D02*
X209080100Y-68990500D01*
X209211521Y-68862599D02*
X209083620Y-68990500D01*
%TO.N,d5*%
X214250501Y-85537418D02*
X214250501Y-80354401D01*
X213360000Y-86427919D02*
X214250501Y-85537418D01*
X213360000Y-87630000D02*
X213360000Y-86427919D01*
X214250501Y-80354401D02*
X213601300Y-79705200D01*
X211199499Y-69683399D02*
X210807300Y-69291200D01*
X211199499Y-70312247D02*
X211199499Y-69683399D01*
X211839076Y-70951824D02*
X211199499Y-70312247D01*
X210540600Y-65096576D02*
X209032924Y-63588900D01*
X210540600Y-67830700D02*
X210540600Y-65096576D01*
X209032924Y-63588900D02*
X207175100Y-63588900D01*
%TO.N,d4*%
X210718400Y-70383400D02*
X210718400Y-69888100D01*
X210718400Y-69888100D02*
X210083400Y-69253100D01*
X209883401Y-68209500D02*
X209883401Y-64798601D01*
X209883401Y-64798601D02*
X209067400Y-63982600D01*
X209067400Y-63982600D02*
X206413100Y-63982600D01*
%TO.N,c18*%
X209410300Y-82111653D02*
X209388100Y-82133853D01*
X208292699Y-82232501D02*
X209283299Y-82232501D01*
X207530700Y-82994500D02*
X208292699Y-82232501D01*
X209410300Y-82105500D02*
X209410300Y-82111653D01*
X207530700Y-83036225D02*
X207530700Y-82994500D01*
X207276700Y-83290225D02*
X207530700Y-83036225D01*
X207276700Y-85509100D02*
X207276700Y-83290225D01*
X209283299Y-82232501D02*
X209410300Y-82105500D01*
X209823000Y-80689501D02*
X209823000Y-79533800D01*
X209623001Y-80889500D02*
X209823000Y-80689501D01*
X209823000Y-79533800D02*
X209889700Y-79533800D01*
X207350499Y-78730499D02*
X207044999Y-78424999D01*
X207044999Y-78424999D02*
X206820000Y-78200000D01*
X208816600Y-78730499D02*
X207350499Y-78730499D01*
%TO.N,c10*%
X209232501Y-80158959D02*
X209499200Y-79892260D01*
X209232501Y-80441801D02*
X209232501Y-80158959D01*
X209499200Y-72907500D02*
X209597600Y-72809100D01*
X209499200Y-79892260D02*
X209499200Y-72907500D01*
%TO.N,c9*%
X200096120Y-86161880D02*
X200654920Y-86161880D01*
X200654920Y-86161880D02*
X201914760Y-84902040D01*
X201914760Y-84902040D02*
X201914760Y-82707480D01*
%TO.N,c8*%
X196316600Y-87630000D02*
X196938900Y-87007700D01*
X195580000Y-87630000D02*
X196316600Y-87630000D01*
X196938900Y-87007700D02*
X196938900Y-86918800D01*
X196938900Y-86918800D02*
X196938900Y-86979999D01*
X204609700Y-81749900D02*
X204609700Y-80454500D01*
X206936859Y-79120999D02*
X209054699Y-79120999D01*
X206603475Y-79454383D02*
X206936859Y-79120999D01*
X206603475Y-79591951D02*
X206603475Y-79454383D01*
X209054699Y-79120999D02*
X209207100Y-78968598D01*
X209207100Y-78968598D02*
X209207100Y-72364600D01*
X209207100Y-72364600D02*
X209118200Y-72275700D01*
%TO.N,c7*%
X194080501Y-86589499D02*
X204380203Y-86589499D01*
X193040000Y-87630000D02*
X194080501Y-86589499D01*
X207073500Y-81864200D02*
X207095627Y-81886327D01*
X207095627Y-81886327D02*
X207095627Y-83112074D01*
X206692501Y-84277201D02*
X204380203Y-86589499D01*
X206692501Y-83515200D02*
X206692501Y-84277201D01*
X207095627Y-83112074D02*
X206692501Y-83515200D01*
%TO.N,c6*%
X191349999Y-83622225D02*
X194081400Y-80890824D01*
X191349999Y-86780001D02*
X191349999Y-83622225D01*
X190500000Y-87630000D02*
X191349999Y-86780001D01*
X194081400Y-80890824D02*
X194081400Y-80556100D01*
X206197201Y-82232501D02*
X207124300Y-81305402D01*
X196254797Y-80824499D02*
X197662799Y-82232501D01*
X194147725Y-80824499D02*
X196254797Y-80824499D01*
X197662799Y-82232501D02*
X206197201Y-82232501D01*
X194081400Y-80890824D02*
X194147725Y-80824499D01*
X207124300Y-81305402D02*
X207124300Y-79375000D01*
X207124300Y-79375000D02*
X207124300Y-79511500D01*
%TO.N,c5*%
X187960000Y-86653000D02*
X193014600Y-81598400D01*
X187960000Y-87630000D02*
X187960000Y-86653000D01*
X193014600Y-81598400D02*
X193014600Y-80568800D01*
X200456800Y-79333700D02*
X206238500Y-79333700D01*
X206238500Y-79333700D02*
X206289300Y-79333700D01*
X206289300Y-79333700D02*
X206425800Y-79197200D01*
X206425800Y-79197200D02*
X206425800Y-78730500D01*
%TO.N,MCLK*%
X211655000Y-74235000D02*
X215500000Y-74235000D01*
X208420000Y-71000000D02*
X211655000Y-74235000D01*
X215678060Y-74235000D02*
X215739980Y-74173080D01*
X215500000Y-74235000D02*
X215678060Y-74235000D01*
X217989759Y-73508261D02*
X217989759Y-70316699D01*
X217789760Y-73708260D02*
X217989759Y-73508261D01*
X217883740Y-70210680D02*
X217883740Y-70197980D01*
X217989759Y-70316699D02*
X217883740Y-70210680D01*
X219499180Y-63215520D02*
X227942140Y-54772560D01*
X219499180Y-67332860D02*
X219499180Y-63215520D01*
%TO.N,LRCK*%
X211180000Y-72960000D02*
X215500000Y-72960000D01*
X208420000Y-70200000D02*
X211180000Y-72960000D01*
X215500000Y-72960000D02*
X215500000Y-72960000D01*
X217402000Y-73230740D02*
X217402000Y-69625620D01*
X217932000Y-69095620D02*
X217932000Y-67942460D01*
X217402000Y-69625620D02*
X217932000Y-69095620D01*
X218830500Y-61344200D02*
X225402140Y-54772560D01*
X218830500Y-67510660D02*
X218830500Y-61344200D01*
%TO.N,SDATA*%
X215500000Y-70033000D02*
X215500000Y-70460000D01*
X214067000Y-68600000D02*
X215500000Y-70033000D01*
X208420000Y-68600000D02*
X214067000Y-68600000D01*
X216069780Y-70460000D02*
X216270840Y-70258940D01*
X215500000Y-70460000D02*
X216069780Y-70460000D01*
X216923620Y-67027158D02*
X217937080Y-66013698D01*
X216923620Y-67310000D02*
X216923620Y-67027158D01*
X217937080Y-66013698D02*
X217937080Y-65359280D01*
%TO.N,EN*%
X190982600Y-67284600D02*
X189484000Y-67284600D01*
X191999499Y-91334219D02*
X191999499Y-83676861D01*
X191999499Y-83676861D02*
X193126360Y-82550000D01*
X193014600Y-92349320D02*
X191999499Y-91334219D01*
X192501520Y-69291200D02*
X192307157Y-69096837D01*
X192501520Y-77663040D02*
X192501520Y-69291200D01*
%TO.N,INTERR*%
X193725800Y-66548000D02*
X187096400Y-66548000D01*
X186896401Y-66747999D02*
X187096400Y-66548000D01*
X188435441Y-78881383D02*
X186896401Y-77342343D01*
X188435441Y-85111657D02*
X188435441Y-78881383D01*
X186919499Y-86627599D02*
X188435441Y-85111657D01*
X186896401Y-77342343D02*
X186896401Y-66747999D01*
X186919499Y-88794219D02*
X186919499Y-86627599D01*
X190474600Y-92349320D02*
X186919499Y-88794219D01*
%TO.N,DATA*%
X192278000Y-66938500D02*
X192278000Y-68008500D01*
X191960500Y-78229460D02*
X191922400Y-78267560D01*
X191960500Y-76136500D02*
X191960500Y-78229460D01*
%TO.N,DCLK*%
X182580501Y-68759499D02*
X182389999Y-68950001D01*
X182389999Y-68950001D02*
X181540000Y-69800000D01*
X184120443Y-68759499D02*
X182580501Y-68759499D01*
X187627342Y-65252600D02*
X184120443Y-68759499D01*
X193497200Y-65252600D02*
X187627342Y-65252600D01*
X182389999Y-70649999D02*
X181540000Y-69800000D01*
X182580501Y-70840501D02*
X182389999Y-70649999D01*
X182580501Y-77460443D02*
X182580501Y-70840501D01*
X183580559Y-78460501D02*
X182580501Y-77460443D01*
X184120443Y-78460501D02*
X183580559Y-78460501D01*
X186234499Y-80574557D02*
X184120443Y-78460501D01*
X186234499Y-91626219D02*
X186234499Y-80574557D01*
X186957600Y-92349320D02*
X186234499Y-91626219D01*
X187934600Y-92349320D02*
X186957600Y-92349320D01*
D22*
%TO.N,Net-(R1-Pad1)*%
X216175000Y-71710000D02*
X215475000Y-71710000D01*
X216875000Y-72410000D02*
X216175000Y-71710000D01*
X216875000Y-74748602D02*
X216875000Y-72410000D01*
X215423602Y-76200000D02*
X216875000Y-74748602D01*
X213360000Y-76200000D02*
X215423602Y-76200000D01*
D23*
%TO.N,u1*%
X196408040Y-62507589D02*
X196408040Y-62590680D01*
X195420383Y-61519932D02*
X196408040Y-62507589D01*
X193855340Y-50274881D02*
X193855340Y-49072800D01*
X193855340Y-56738518D02*
X193855340Y-50274881D01*
X195846701Y-58729879D02*
X193855340Y-56738518D01*
X195846701Y-60010039D02*
X195846701Y-58729879D01*
X195554600Y-60302140D02*
X195846701Y-60010039D01*
%TO.N,r1*%
X197220000Y-64463500D02*
X197238620Y-64444880D01*
X197220000Y-64600000D02*
X197220000Y-64463500D01*
X198003160Y-50004980D02*
X198935340Y-49072800D01*
X198003160Y-60251340D02*
X198003160Y-50004980D01*
%TO.N,p1*%
X198393660Y-63428220D02*
X198393660Y-63536355D01*
X196519800Y-61554360D02*
X198393660Y-63428220D01*
%TO.N,n1*%
X198820000Y-64550060D02*
X198866760Y-64503300D01*
X198820000Y-64600000D02*
X198820000Y-64550060D01*
X201114660Y-61486440D02*
X201114660Y-59207400D01*
X199059800Y-63541300D02*
X201114660Y-61486440D01*
X201475340Y-57640220D02*
X201475340Y-49072800D01*
X201236580Y-57878980D02*
X201475340Y-57640220D01*
%TO.N,m1*%
X204015340Y-56490079D02*
X202369420Y-58135999D01*
X204015340Y-49072800D02*
X204015340Y-56490079D01*
X202023980Y-61282580D02*
X199864980Y-63441580D01*
X202023980Y-59245500D02*
X202023980Y-61282580D01*
%TO.N,l1*%
X200420000Y-64552800D02*
X200464420Y-64508380D01*
X200420000Y-64600000D02*
X200420000Y-64552800D01*
X202582780Y-61544200D02*
X202582780Y-59260740D01*
X200616820Y-63510160D02*
X202582780Y-61544200D01*
X202928995Y-58128675D02*
X204675740Y-56381930D01*
X204675740Y-50952400D02*
X206555340Y-49072800D01*
X204675740Y-56381930D02*
X204675740Y-50952400D01*
%TO.N,k1*%
X208245341Y-54261119D02*
X204416660Y-58089800D01*
X208245341Y-49922799D02*
X208245341Y-54261119D01*
X209095340Y-49072800D02*
X208245341Y-49922799D01*
X203992480Y-60896500D02*
X201447400Y-63441580D01*
X203992480Y-59189999D02*
X203992480Y-60896500D01*
%TO.N,j1*%
X202020000Y-64497715D02*
X201896134Y-64373849D01*
X202020000Y-64600000D02*
X202020000Y-64497715D01*
X204744320Y-60863480D02*
X204744320Y-59222640D01*
X202194160Y-63413640D02*
X204744320Y-60863480D01*
X211635340Y-50274881D02*
X211635340Y-49072800D01*
X209977441Y-52960501D02*
X211635340Y-51302602D01*
X211635340Y-51302602D02*
X211635340Y-50274881D01*
X209578979Y-52960501D02*
X209977441Y-52960501D01*
X208539080Y-54000400D02*
X209578979Y-52960501D01*
X208539080Y-57234862D02*
X208539080Y-54000400D01*
X207533441Y-58240501D02*
X208539080Y-57234862D01*
X205795083Y-58240501D02*
X207533441Y-58240501D01*
X205519922Y-57965340D02*
X205795083Y-58240501D01*
X205237080Y-57965340D02*
X205519922Y-57965340D01*
%TO.N,h1*%
X214175340Y-52360039D02*
X208399380Y-58135999D01*
X214175340Y-49072800D02*
X214175340Y-52360039D01*
X202820000Y-64281802D02*
X202820000Y-64600000D01*
X202820000Y-63564517D02*
X202820000Y-64281802D01*
X207194518Y-59189999D02*
X202820000Y-63564517D01*
X207477360Y-59189999D02*
X207194518Y-59189999D01*
%TD*%
M02*
