%TF.GenerationSoftware,KiCad,Pcbnew,5.1.5+dfsg1-2build2*%
%TF.CreationDate,2021-11-19T00:53:45-06:00*%
%TF.ProjectId,Audio_Dac_I2S,41756469-6f5f-4446-9163-5f4932532e6b,rev?*%
%TF.SameCoordinates,Original*%
%TF.FileFunction,Paste,Top*%
%TF.FilePolarity,Positive*%
%FSLAX46Y46*%
G04 Gerber Fmt 4.6, Leading zero omitted, Abs format (unit mm)*
G04 Created by KiCad (PCBNEW 5.1.5+dfsg1-2build2) date 2021-11-19 00:53:45*
%MOMM*%
%LPD*%
G04 APERTURE LIST*
%ADD10R,3.000000X1.250000*%
%ADD11R,2.000000X0.600000*%
%ADD12C,0.450000*%
G04 APERTURE END LIST*
D10*
%TO.C,U2*%
X233830000Y-57665000D03*
X233860000Y-48085000D03*
X243230000Y-49925000D03*
%TD*%
D11*
%TO.C,U1*%
X221575000Y-74210000D03*
X221575000Y-72985000D03*
X221575000Y-71735000D03*
X221575000Y-70460000D03*
X215500000Y-74235000D03*
X215500000Y-72960000D03*
X215475000Y-71710000D03*
X215500000Y-70460000D03*
%TD*%
D12*
%TO.C,IC1*%
X194820000Y-78200000D03*
X194820000Y-77400000D03*
X194820000Y-76600000D03*
X194820000Y-75800000D03*
X194820000Y-75000000D03*
X194820000Y-74200000D03*
X194820000Y-73400000D03*
X194820000Y-72600000D03*
X194820000Y-71800000D03*
X194820000Y-71000000D03*
X194820000Y-70200000D03*
X194820000Y-69400000D03*
X194820000Y-68600000D03*
X194820000Y-67800000D03*
X194820000Y-67000000D03*
X194820000Y-66200000D03*
X194820000Y-65400000D03*
X194820000Y-64600000D03*
X195620000Y-78200000D03*
X195620000Y-77400000D03*
X195620000Y-76600000D03*
X195620000Y-75800000D03*
X195620000Y-75000000D03*
X195620000Y-74200000D03*
X195620000Y-73400000D03*
X195620000Y-72600000D03*
X195620000Y-71800000D03*
X195620000Y-71000000D03*
X195620000Y-70200000D03*
X195620000Y-69400000D03*
X195620000Y-68600000D03*
X195620000Y-67800000D03*
X195620000Y-67000000D03*
X195620000Y-66200000D03*
X195620000Y-65400000D03*
X195620000Y-64600000D03*
X196420000Y-78200000D03*
X196420000Y-77400000D03*
X196420000Y-76600000D03*
X196420000Y-75800000D03*
X196420000Y-75000000D03*
X196420000Y-74200000D03*
X196420000Y-73400000D03*
X196420000Y-72600000D03*
X196420000Y-71800000D03*
X196420000Y-71000000D03*
X196420000Y-70200000D03*
X196420000Y-69400000D03*
X196420000Y-68600000D03*
X196420000Y-67800000D03*
X196420000Y-67000000D03*
X196420000Y-66200000D03*
X196420000Y-65400000D03*
X196420000Y-64600000D03*
X197220000Y-78200000D03*
X197220000Y-77400000D03*
X197220000Y-76600000D03*
X197220000Y-75800000D03*
X197220000Y-75000000D03*
X197220000Y-74200000D03*
X197220000Y-73400000D03*
X197220000Y-72600000D03*
X197220000Y-71800000D03*
X197220000Y-71000000D03*
X197220000Y-70200000D03*
X197220000Y-69400000D03*
X197220000Y-68600000D03*
X197220000Y-67800000D03*
X197220000Y-67000000D03*
X197220000Y-66200000D03*
X197220000Y-65400000D03*
X197220000Y-64600000D03*
X198020000Y-78200000D03*
X198020000Y-77400000D03*
X198020000Y-76600000D03*
X198020000Y-75800000D03*
X198020000Y-75000000D03*
X198020000Y-74200000D03*
X198020000Y-73400000D03*
X198020000Y-72600000D03*
X198020000Y-71800000D03*
X198020000Y-71000000D03*
X198020000Y-70200000D03*
X198020000Y-69400000D03*
X198020000Y-68600000D03*
X198020000Y-67800000D03*
X198020000Y-67000000D03*
X198020000Y-66200000D03*
X198020000Y-65400000D03*
X198020000Y-64600000D03*
X198820000Y-78200000D03*
X198820000Y-77400000D03*
X198820000Y-76600000D03*
X198820000Y-75800000D03*
X198820000Y-75000000D03*
X198820000Y-74200000D03*
X198820000Y-73400000D03*
X198820000Y-72600000D03*
X198820000Y-71800000D03*
X198820000Y-71000000D03*
X198820000Y-70200000D03*
X198820000Y-69400000D03*
X198820000Y-68600000D03*
X198820000Y-67800000D03*
X198820000Y-67000000D03*
X198820000Y-66200000D03*
X198820000Y-65400000D03*
X198820000Y-64600000D03*
X199620000Y-78200000D03*
X199620000Y-77400000D03*
X199620000Y-76600000D03*
X199620000Y-75800000D03*
X199620000Y-75000000D03*
X199620000Y-74200000D03*
X199620000Y-73400000D03*
X199620000Y-72600000D03*
X199620000Y-71800000D03*
X199620000Y-71000000D03*
X199620000Y-70200000D03*
X199620000Y-69400000D03*
X199620000Y-68600000D03*
X199620000Y-67800000D03*
X199620000Y-67000000D03*
X199620000Y-66200000D03*
X199620000Y-65400000D03*
X199620000Y-64600000D03*
X200420000Y-78200000D03*
X200420000Y-77400000D03*
X200420000Y-76600000D03*
X200420000Y-75800000D03*
X200420000Y-75000000D03*
X200420000Y-74200000D03*
X200420000Y-73400000D03*
X200420000Y-72600000D03*
X200420000Y-71800000D03*
X200420000Y-71000000D03*
X200420000Y-70200000D03*
X200420000Y-69400000D03*
X200420000Y-68600000D03*
X200420000Y-67800000D03*
X200420000Y-67000000D03*
X200420000Y-66200000D03*
X200420000Y-65400000D03*
X200420000Y-64600000D03*
X201220000Y-78200000D03*
X201220000Y-77400000D03*
X201220000Y-76600000D03*
X201220000Y-75800000D03*
X201220000Y-75000000D03*
X201220000Y-74200000D03*
X201220000Y-73400000D03*
X201220000Y-72600000D03*
X201220000Y-71800000D03*
X201220000Y-71000000D03*
X201220000Y-70200000D03*
X201220000Y-69400000D03*
X201220000Y-68600000D03*
X201220000Y-67800000D03*
X201220000Y-67000000D03*
X201220000Y-66200000D03*
X201220000Y-65400000D03*
X201220000Y-64600000D03*
X202020000Y-78200000D03*
X202020000Y-77400000D03*
X202020000Y-76600000D03*
X202020000Y-75800000D03*
X202020000Y-75000000D03*
X202020000Y-74200000D03*
X202020000Y-73400000D03*
X202020000Y-72600000D03*
X202020000Y-71800000D03*
X202020000Y-71000000D03*
X202020000Y-70200000D03*
X202020000Y-69400000D03*
X202020000Y-68600000D03*
X202020000Y-67800000D03*
X202020000Y-67000000D03*
X202020000Y-66200000D03*
X202020000Y-65400000D03*
X202020000Y-64600000D03*
X202820000Y-78200000D03*
X202820000Y-77400000D03*
X202820000Y-76600000D03*
X202820000Y-75800000D03*
X202820000Y-75000000D03*
X202820000Y-74200000D03*
X202820000Y-73400000D03*
X202820000Y-72600000D03*
X202820000Y-71800000D03*
X202820000Y-71000000D03*
X202820000Y-70200000D03*
X202820000Y-69400000D03*
X202820000Y-68600000D03*
X202820000Y-67800000D03*
X202820000Y-67000000D03*
X202820000Y-66200000D03*
X202820000Y-65400000D03*
X202820000Y-64600000D03*
X203620000Y-78200000D03*
X203620000Y-77400000D03*
X203620000Y-76600000D03*
X203620000Y-75800000D03*
X203620000Y-75000000D03*
X203620000Y-74200000D03*
X203620000Y-73400000D03*
X203620000Y-72600000D03*
X203620000Y-71800000D03*
X203620000Y-71000000D03*
X203620000Y-70200000D03*
X203620000Y-69400000D03*
X203620000Y-68600000D03*
X203620000Y-67800000D03*
X203620000Y-67000000D03*
X203620000Y-66200000D03*
X203620000Y-65400000D03*
X203620000Y-64600000D03*
X204420000Y-78200000D03*
X204420000Y-77400000D03*
X204420000Y-76600000D03*
X204420000Y-75800000D03*
X204420000Y-75000000D03*
X204420000Y-74200000D03*
X204420000Y-73400000D03*
X204420000Y-72600000D03*
X204420000Y-71800000D03*
X204420000Y-71000000D03*
X204420000Y-70200000D03*
X204420000Y-69400000D03*
X204420000Y-68600000D03*
X204420000Y-67800000D03*
X204420000Y-67000000D03*
X204420000Y-66200000D03*
X204420000Y-65400000D03*
X204420000Y-64600000D03*
X205220000Y-78200000D03*
X205220000Y-77400000D03*
X205220000Y-76600000D03*
X205220000Y-75800000D03*
X205220000Y-75000000D03*
X205220000Y-74200000D03*
X205220000Y-73400000D03*
X205220000Y-72600000D03*
X205220000Y-71800000D03*
X205220000Y-71000000D03*
X205220000Y-70200000D03*
X205220000Y-69400000D03*
X205220000Y-68600000D03*
X205220000Y-67800000D03*
X205220000Y-67000000D03*
X205220000Y-66200000D03*
X205220000Y-65400000D03*
X205220000Y-64600000D03*
X206020000Y-78200000D03*
X206020000Y-77400000D03*
X206020000Y-76600000D03*
X206020000Y-75800000D03*
X206020000Y-75000000D03*
X206020000Y-74200000D03*
X206020000Y-73400000D03*
X206020000Y-72600000D03*
X206020000Y-71800000D03*
X206020000Y-71000000D03*
X206020000Y-70200000D03*
X206020000Y-69400000D03*
X206020000Y-68600000D03*
X206020000Y-67800000D03*
X206020000Y-67000000D03*
X206020000Y-66200000D03*
X206020000Y-65400000D03*
X206020000Y-64600000D03*
X206820000Y-78200000D03*
X206820000Y-77400000D03*
X206820000Y-76600000D03*
X206820000Y-75800000D03*
X206820000Y-75000000D03*
X206820000Y-74200000D03*
X206820000Y-73400000D03*
X206820000Y-72600000D03*
X206820000Y-71800000D03*
X206820000Y-71000000D03*
X206820000Y-70200000D03*
X206820000Y-69400000D03*
X206820000Y-68600000D03*
X206820000Y-67800000D03*
X206820000Y-67000000D03*
X206820000Y-66200000D03*
X206820000Y-65400000D03*
X206820000Y-64600000D03*
X207620000Y-78200000D03*
X207620000Y-77400000D03*
X207620000Y-76600000D03*
X207620000Y-75800000D03*
X207620000Y-75000000D03*
X207620000Y-74200000D03*
X207620000Y-73400000D03*
X207620000Y-72600000D03*
X207620000Y-71800000D03*
X207620000Y-71000000D03*
X207620000Y-70200000D03*
X207620000Y-69400000D03*
X207620000Y-68600000D03*
X207620000Y-67800000D03*
X207620000Y-67000000D03*
X207620000Y-66200000D03*
X207620000Y-65400000D03*
X207620000Y-64600000D03*
X208420000Y-78200000D03*
X208420000Y-77400000D03*
X208420000Y-76600000D03*
X208420000Y-75800000D03*
X208420000Y-75000000D03*
X208420000Y-74200000D03*
X208420000Y-73400000D03*
X208420000Y-72600000D03*
X208420000Y-71800000D03*
X208420000Y-71000000D03*
X208420000Y-70200000D03*
X208420000Y-69400000D03*
X208420000Y-68600000D03*
X208420000Y-67800000D03*
X208420000Y-67000000D03*
X208420000Y-66200000D03*
X208420000Y-65400000D03*
X208420000Y-64600000D03*
%TD*%
M02*
