%TF.GenerationSoftware,KiCad,Pcbnew,5.1.5+dfsg1-2build2*%
%TF.CreationDate,2021-11-19T00:53:45-06:00*%
%TF.ProjectId,Audio_Dac_I2S,41756469-6f5f-4446-9163-5f4932532e6b,rev?*%
%TF.SameCoordinates,Original*%
%TF.FileFunction,Copper,L4,Bot*%
%TF.FilePolarity,Positive*%
%FSLAX46Y46*%
G04 Gerber Fmt 4.6, Leading zero omitted, Abs format (unit mm)*
G04 Created by KiCad (PCBNEW 5.1.5+dfsg1-2build2) date 2021-11-19 00:53:45*
%MOMM*%
%LPD*%
G04 APERTURE LIST*
%TA.AperFunction,ComponentPad*%
%ADD10O,1.700000X1.700000*%
%TD*%
%TA.AperFunction,ComponentPad*%
%ADD11R,1.700000X1.700000*%
%TD*%
%TA.AperFunction,ComponentPad*%
%ADD12O,1.400000X1.400000*%
%TD*%
%TA.AperFunction,ComponentPad*%
%ADD13C,1.400000*%
%TD*%
%TA.AperFunction,ComponentPad*%
%ADD14C,1.524000*%
%TD*%
%TA.AperFunction,ComponentPad*%
%ADD15O,1.800000X1.800000*%
%TD*%
%TA.AperFunction,ComponentPad*%
%ADD16R,1.800000X1.800000*%
%TD*%
%TA.AperFunction,ComponentPad*%
%ADD17C,1.600000*%
%TD*%
%TA.AperFunction,ViaPad*%
%ADD18C,0.400000*%
%TD*%
%TA.AperFunction,Conductor*%
%ADD19C,0.400000*%
%TD*%
%TA.AperFunction,Conductor*%
%ADD20C,0.127000*%
%TD*%
G04 APERTURE END LIST*
D10*
%TO.P,PI_OUT1,4*%
%TO.N,DATA*%
X195554600Y-92349320D03*
%TO.P,PI_OUT1,3*%
%TO.N,EN*%
X193014600Y-92349320D03*
%TO.P,PI_OUT1,2*%
%TO.N,INTERR*%
X190474600Y-92349320D03*
D11*
%TO.P,PI_OUT1,1*%
%TO.N,DCLK*%
X187934600Y-92349320D03*
%TD*%
D10*
%TO.P,J2,11*%
%TO.N,GND*%
X216715340Y-49072800D03*
%TO.P,J2,10*%
%TO.N,h1*%
X214175340Y-49072800D03*
%TO.P,J2,9*%
%TO.N,j1*%
X211635340Y-49072800D03*
%TO.P,J2,8*%
%TO.N,k1*%
X209095340Y-49072800D03*
%TO.P,J2,7*%
%TO.N,l1*%
X206555340Y-49072800D03*
%TO.P,J2,6*%
%TO.N,m1*%
X204015340Y-49072800D03*
%TO.P,J2,5*%
%TO.N,n1*%
X201475340Y-49072800D03*
%TO.P,J2,4*%
%TO.N,r1*%
X198935340Y-49072800D03*
%TO.P,J2,3*%
%TO.N,p1*%
X196395340Y-49072800D03*
%TO.P,J2,2*%
%TO.N,u1*%
X193855340Y-49072800D03*
D11*
%TO.P,J2,1*%
%TO.N,GND*%
X191315340Y-49072800D03*
%TD*%
D10*
%TO.P,DBG1,5*%
%TO.N,SDATA*%
X222862140Y-54772560D03*
%TO.P,DBG1,4*%
%TO.N,LRCK*%
X225402140Y-54772560D03*
%TO.P,DBG1,3*%
%TO.N,MCLK*%
X227942140Y-54772560D03*
%TO.P,DBG1,2*%
%TO.N,Net-(C2-Pad2)*%
X230482140Y-54772560D03*
D11*
%TO.P,DBG1,1*%
%TO.N,Net-(C4-Pad2)*%
X233022140Y-54772560D03*
%TD*%
D12*
%TO.P,R13,2*%
%TO.N,Net-(C4-Pad1)*%
X239306000Y-70739000D03*
D13*
%TO.P,R13,1*%
%TO.N,Net-(C7-Pad2)*%
X239306000Y-78359000D03*
%TD*%
D12*
%TO.P,10k,2*%
%TO.N,Net-(C2-Pad1)*%
X232590000Y-60610000D03*
D13*
%TO.P,10k,1*%
%TO.N,Net-(C6-Pad1)*%
X232590000Y-68230000D03*
%TD*%
D12*
%TO.P,R11,2*%
%TO.N,Net-(C4-Pad1)*%
X236220000Y-81280000D03*
D13*
%TO.P,R11,1*%
%TO.N,GND*%
X228600000Y-81280000D03*
%TD*%
D12*
%TO.P,10k,2*%
%TO.N,GND*%
X229600000Y-68280000D03*
D13*
%TO.P,10k,1*%
%TO.N,Net-(C2-Pad1)*%
X229600000Y-60660000D03*
%TD*%
D12*
%TO.P,R9,2*%
%TO.N,GND*%
X223370000Y-76990000D03*
D13*
%TO.P,R9,1*%
%TO.N,Net-(C4-Pad2)*%
X223370000Y-84610000D03*
%TD*%
D12*
%TO.P,267k,2*%
%TO.N,Net-(C2-Pad2)*%
X223340000Y-60840000D03*
D13*
%TO.P,267k,1*%
%TO.N,GND*%
X223340000Y-68460000D03*
%TD*%
D12*
%TO.P,R7,2*%
%TO.N,V3.3*%
X214630000Y-57150000D03*
D13*
%TO.P,R7,1*%
%TO.N,Net-(IC1-PadH8)*%
X214630000Y-64770000D03*
%TD*%
D12*
%TO.P,R6,2*%
%TO.N,V3.3*%
X217170000Y-54610000D03*
D13*
%TO.P,R6,1*%
%TO.N,Net-(IC1-PadG8)*%
X209550000Y-54610000D03*
%TD*%
D12*
%TO.P,R4,2*%
%TO.N,GND*%
X210820000Y-59690000D03*
D13*
%TO.P,R4,1*%
%TO.N,tck*%
X218440000Y-59690000D03*
%TD*%
D12*
%TO.P,R3,2*%
%TO.N,GND*%
X212090000Y-62230000D03*
D13*
%TO.P,R3,1*%
%TO.N,Net-(IC1-PadG9)*%
X212090000Y-69850000D03*
%TD*%
D12*
%TO.P,R2,2*%
%TO.N,V3.3*%
X217170000Y-52070000D03*
D13*
%TO.P,R2,1*%
%TO.N,Net-(IC1-PadH9)*%
X209550000Y-52070000D03*
%TD*%
D12*
%TO.P,R1,2*%
%TO.N,GND*%
X213360000Y-83820000D03*
D13*
%TO.P,R1,1*%
%TO.N,Net-(R1-Pad1)*%
X213360000Y-76200000D03*
%TD*%
D14*
%TO.P,J14,2*%
%TO.N,GND*%
X198120000Y-83820000D03*
%TO.P,J14,9*%
%TO.N,tdi*%
X198120000Y-81280000D03*
%TO.P,J14,8*%
%TO.N,Net-(J14-Pad8)*%
X200660000Y-83820000D03*
%TO.P,J14,7*%
%TO.N,Net-(J14-Pad7)*%
X200660000Y-81280000D03*
%TO.P,J14,6*%
%TO.N,Net-(J14-Pad6)*%
X203200000Y-83820000D03*
%TO.P,J14,5*%
%TO.N,tms*%
X203200000Y-81280000D03*
%TO.P,J14,4*%
%TO.N,V3.3*%
X205740000Y-83820000D03*
%TO.P,J14,3*%
%TO.N,tdo*%
X205740000Y-81280000D03*
%TO.P,J14,2*%
%TO.N,GND*%
X208280000Y-83820000D03*
%TO.P,J14,1*%
%TO.N,tck*%
X208280000Y-81280000D03*
%TD*%
D10*
%TO.P,J3,20*%
%TO.N,e5*%
X236220000Y-87630000D03*
%TO.P,J3,19*%
%TO.N,e4*%
X233680000Y-87630000D03*
%TO.P,J3,18*%
%TO.N,d18*%
X231140000Y-87630000D03*
%TO.P,J3,17*%
%TO.N,d17*%
X228600000Y-87630000D03*
%TO.P,J3,16*%
%TO.N,d16*%
X226060000Y-87630000D03*
%TO.P,J3,15*%
%TO.N,d15*%
X223520000Y-87630000D03*
%TO.P,J3,14*%
%TO.N,d8*%
X220980000Y-87630000D03*
%TO.P,J3,13*%
%TO.N,d7*%
X218440000Y-87630000D03*
%TO.P,J3,12*%
%TO.N,d6*%
X215900000Y-87630000D03*
%TO.P,J3,11*%
%TO.N,d5*%
X213360000Y-87630000D03*
%TO.P,J3,10*%
%TO.N,d4*%
X210820000Y-87630000D03*
%TO.P,J3,9*%
%TO.N,GND*%
X208280000Y-87630000D03*
%TO.P,J3,8*%
%TO.N,c18*%
X205740000Y-87630000D03*
%TO.P,J3,7*%
%TO.N,c17*%
X203200000Y-87630000D03*
%TO.P,J3,6*%
%TO.N,c10*%
X200660000Y-87630000D03*
%TO.P,J3,5*%
%TO.N,c9*%
X198120000Y-87630000D03*
%TO.P,J3,4*%
%TO.N,c8*%
X195580000Y-87630000D03*
%TO.P,J3,3*%
%TO.N,c7*%
X193040000Y-87630000D03*
%TO.P,J3,2*%
%TO.N,c6*%
X190500000Y-87630000D03*
D11*
%TO.P,J3,1*%
%TO.N,c5*%
X187960000Y-87630000D03*
%TD*%
D10*
%TO.P,J1,40*%
%TO.N,DATA*%
X181540000Y-92660000D03*
%TO.P,J1,39*%
%TO.N,GND*%
X184080000Y-92660000D03*
%TO.P,J1,26*%
%TO.N,Net-(J1-Pad26)*%
X181540000Y-74880000D03*
%TO.P,J1,25*%
%TO.N,GND*%
X184080000Y-74880000D03*
%TO.P,J1,22*%
%TO.N,DCLK*%
X181540000Y-69800000D03*
%TO.P,J1,21*%
%TO.N,Net-(J1-Pad21)*%
X184080000Y-69800000D03*
%TO.P,J1,30*%
%TO.N,GND*%
X181540000Y-79960000D03*
%TO.P,J1,29*%
%TO.N,Net-(J1-Pad29)*%
X184080000Y-79960000D03*
%TO.P,J1,8*%
%TO.N,Net-(J1-Pad8)*%
X181540000Y-52020000D03*
%TO.P,J1,7*%
%TO.N,Net-(J1-Pad7)*%
X184080000Y-52020000D03*
%TO.P,J1,32*%
%TO.N,Net-(J1-Pad32)*%
X181540000Y-82500000D03*
%TO.P,J1,31*%
%TO.N,Net-(J1-Pad31)*%
X184080000Y-82500000D03*
%TO.P,J1,18*%
%TO.N,INTERR*%
X181540000Y-64720000D03*
%TO.P,J1,17*%
%TO.N,V3.3*%
X184080000Y-64720000D03*
%TO.P,J1,36*%
%TO.N,Net-(J1-Pad36)*%
X181540000Y-87580000D03*
%TO.P,J1,35*%
%TO.N,Net-(J1-Pad35)*%
X184080000Y-87580000D03*
%TO.P,J1,34*%
%TO.N,GND*%
X181540000Y-85040000D03*
%TO.P,J1,33*%
%TO.N,Net-(J1-Pad33)*%
X184080000Y-85040000D03*
%TO.P,J1,38*%
%TO.N,Net-(J1-Pad38)*%
X181540000Y-90120000D03*
%TO.P,J1,37*%
%TO.N,Net-(J1-Pad37)*%
X184080000Y-90120000D03*
%TO.P,J1,20*%
%TO.N,GND*%
X181540000Y-67260000D03*
%TO.P,J1,19*%
%TO.N,Net-(J1-Pad19)*%
X184080000Y-67260000D03*
%TO.P,J1,10*%
%TO.N,Net-(J1-Pad10)*%
X181540000Y-54560000D03*
%TO.P,J1,9*%
%TO.N,GND*%
X184080000Y-54560000D03*
%TO.P,J1,14*%
X181540000Y-59640000D03*
%TO.P,J1,13*%
%TO.N,Net-(J1-Pad13)*%
X184080000Y-59640000D03*
%TO.P,J1,28*%
%TO.N,Net-(J1-Pad28)*%
X181540000Y-77420000D03*
%TO.P,J1,27*%
%TO.N,Net-(J1-Pad27)*%
X184080000Y-77420000D03*
%TO.P,J1,12*%
%TO.N,Net-(J1-Pad12)*%
X181540000Y-57100000D03*
%TO.P,J1,11*%
%TO.N,Net-(J1-Pad11)*%
X184080000Y-57100000D03*
%TO.P,J1,24*%
%TO.N,Net-(J1-Pad24)*%
X181540000Y-72340000D03*
%TO.P,J1,23*%
%TO.N,Net-(J1-Pad23)*%
X184080000Y-72340000D03*
D11*
%TO.P,J1,1*%
%TO.N,Net-(J1-Pad1)*%
X184080000Y-44400000D03*
D10*
%TO.P,J1,2*%
%TO.N,5Vin*%
X181540000Y-44400000D03*
%TO.P,J1,5*%
%TO.N,Net-(J1-Pad5)*%
X184080000Y-49480000D03*
%TO.P,J1,4*%
%TO.N,Net-(J1-Pad4)*%
X181540000Y-46940000D03*
%TO.P,J1,16*%
%TO.N,EN*%
X181540000Y-62180000D03*
%TO.P,J1,15*%
%TO.N,Net-(J1-Pad15)*%
X184080000Y-62180000D03*
%TO.P,J1,3*%
%TO.N,Net-(J1-Pad3)*%
X184080000Y-46940000D03*
%TO.P,J1,6*%
%TO.N,GND*%
X181540000Y-49480000D03*
%TD*%
D15*
%TO.P,D4,2*%
%TO.N,V3.3*%
X194945000Y-81915000D03*
D16*
%TO.P,D4,1*%
%TO.N,tms*%
X187325000Y-81915000D03*
%TD*%
%TO.P,D3,1*%
%TO.N,tdi*%
X189230000Y-57150000D03*
D15*
%TO.P,D3,2*%
%TO.N,V3.3*%
X196850000Y-57150000D03*
%TD*%
%TO.P,D2,2*%
%TO.N,V3.3*%
X207010000Y-57150000D03*
D16*
%TO.P,D2,1*%
%TO.N,tdo*%
X199390000Y-57150000D03*
%TD*%
D15*
%TO.P,D1,2*%
%TO.N,V3.3*%
X207010000Y-60960000D03*
D16*
%TO.P,D1,1*%
%TO.N,tck*%
X199390000Y-60960000D03*
%TD*%
D14*
%TO.P,clk1,4*%
%TO.N,V3.3*%
X186894200Y-43587080D03*
%TO.P,clk1,3*%
%TO.N,CLK*%
X186894200Y-59187080D03*
%TO.P,clk1,2*%
%TO.N,GND*%
X194894200Y-59187080D03*
%TO.P,clk1,1*%
%TO.N,Net-(clk1-Pad1)*%
X194894200Y-43587080D03*
%TD*%
D17*
%TO.P,C10,2*%
%TO.N,GND*%
X190500000Y-71835000D03*
%TO.P,C10,1*%
%TO.N,tms*%
X190500000Y-76835000D03*
%TD*%
%TO.P,C9,2*%
%TO.N,GND*%
X187960000Y-71940000D03*
%TO.P,C9,1*%
%TO.N,tdi*%
X187960000Y-76940000D03*
%TD*%
%TO.P,C8,2*%
%TO.N,GND*%
X216353400Y-79832200D03*
%TO.P,C8,1*%
%TO.N,tdo*%
X211353400Y-79832200D03*
%TD*%
%TO.P,C7,2*%
%TO.N,Net-(C7-Pad2)*%
X232410000Y-78740000D03*
%TO.P,C7,1*%
%TO.N,GND*%
X232410000Y-83740000D03*
%TD*%
%TO.P,C6,2*%
%TO.N,GND*%
X235520000Y-62150000D03*
%TO.P,C6,1*%
%TO.N,Net-(C6-Pad1)*%
X235520000Y-67150000D03*
%TD*%
%TO.P,C5,2*%
%TO.N,5Vin*%
X230110000Y-75810000D03*
%TO.P,C5,1*%
%TO.N,GND*%
X230110000Y-70810000D03*
%TD*%
%TO.P,C4,2*%
%TO.N,Net-(C4-Pad2)*%
X220910000Y-80680000D03*
%TO.P,C4,1*%
%TO.N,Net-(C4-Pad1)*%
X225910000Y-80680000D03*
%TD*%
%TO.P,C3,2*%
%TO.N,5Vin*%
X226610000Y-75710000D03*
%TO.P,C3,1*%
%TO.N,GND*%
X226610000Y-70710000D03*
%TD*%
%TO.P,C2,2*%
%TO.N,Net-(C2-Pad2)*%
X220780000Y-64410000D03*
%TO.P,C2,1*%
%TO.N,Net-(C2-Pad1)*%
X225780000Y-64410000D03*
%TD*%
%TO.P,C1,2*%
%TO.N,GND*%
X190500000Y-63500000D03*
%TO.P,C1,1*%
%TO.N,tck*%
X190500000Y-68500000D03*
%TD*%
D18*
%TO.N,GND*%
X242252500Y-49974500D03*
X243967000Y-49847500D03*
X220789500Y-72898000D03*
X222186500Y-73025000D03*
%TO.N,Net-(IC1-PadG8)*%
X203644500Y-70231000D03*
%TO.N,DATA*%
X208419700Y-66154300D03*
%TO.N,c9*%
X206799180Y-71122540D03*
%TO.N,V3.3*%
X204528420Y-68724780D03*
X203702920Y-67906900D03*
X202824080Y-67970400D03*
X202097640Y-67886580D03*
X201198480Y-67899280D03*
X200418700Y-67891660D03*
X199636380Y-67881500D03*
%TO.N,GND*%
X195640960Y-67040760D03*
X203702920Y-66997580D03*
X205216760Y-71805800D03*
X204472540Y-70291960D03*
%TO.N,V3.3*%
X205160880Y-70271640D03*
X205211680Y-71005700D03*
X204406500Y-70998080D03*
%TO.N,GND*%
X202011280Y-77411580D03*
X207604360Y-71683880D03*
X201218800Y-71003160D03*
X202013820Y-71826120D03*
X198821040Y-77398880D03*
X208521300Y-78226920D03*
X207627220Y-75826620D03*
X204421740Y-77419200D03*
X194873880Y-64546480D03*
%TO.N,CLK*%
X199616060Y-66174620D03*
%TO.N,GND*%
X198833740Y-65463420D03*
X201155300Y-68625720D03*
%TO.N,V3.3*%
X200423780Y-68610480D03*
X199621140Y-68592700D03*
%TO.N,GND*%
X195628260Y-71777860D03*
X195600320Y-74970640D03*
X194851020Y-78183740D03*
%TO.N,V3.3*%
X199580500Y-74185780D03*
X200319640Y-74152760D03*
X200362820Y-75006200D03*
X201178160Y-75026520D03*
X202003660Y-75023980D03*
X202021440Y-74132440D03*
X202811380Y-74193400D03*
X203624180Y-74211180D03*
%TO.N,GND*%
X205229460Y-74203560D03*
%TO.N,V3.3*%
X204457300Y-75018900D03*
X203614020Y-74993500D03*
%TO.N,GND*%
X202806300Y-74996040D03*
X201236580Y-74211180D03*
X199626220Y-75006200D03*
%TO.N,V3.3*%
X198020940Y-74206100D03*
%TO.N,GND*%
X198815960Y-73398380D03*
X198826120Y-71803260D03*
%TO.N,V3.3*%
X198003160Y-69395340D03*
X198821040Y-70993000D03*
X198010780Y-70993000D03*
X198015860Y-70205600D03*
%TO.N,GND*%
X197220840Y-69400420D03*
X198861680Y-67932300D03*
X200393300Y-67073780D03*
X203621640Y-65417700D03*
X208429860Y-64617600D03*
X205960980Y-66200020D03*
X207556100Y-68592700D03*
X205232000Y-68630800D03*
X209889700Y-78359000D03*
%TO.N,d15*%
X206019400Y-75806300D03*
%TO.N,d17*%
X206019400Y-77419200D03*
%TO.N,d18*%
X206019400Y-78193900D03*
%TO.N,e5*%
X205232000Y-67792600D03*
%TO.N,e4*%
X205244700Y-66992500D03*
%TO.N,d16*%
X205968600Y-76581000D03*
%TO.N,d8*%
X206057500Y-70281800D03*
%TO.N,d7*%
X206082900Y-69430900D03*
%TO.N,d6*%
X205968600Y-68618100D03*
%TO.N,d4*%
X206019400Y-66992500D03*
%TO.N,d5*%
X206019400Y-67792600D03*
X206019400Y-67792600D03*
%TO.N,c18*%
X206806800Y-78219300D03*
%TO.N,c17*%
X206806800Y-77381100D03*
%TO.N,c10*%
X206781400Y-71793100D03*
%TO.N,c5*%
X206844900Y-67703700D03*
%TO.N,tck*%
X190805872Y-64862090D03*
X202031600Y-70205600D03*
X202984100Y-78943200D03*
%TO.N,5Vin*%
X222591500Y-71691500D03*
%TO.N,Net-(C6-Pad1)*%
X238125000Y-66040000D03*
%TO.N,tdo*%
X201623027Y-68216440D03*
X202808867Y-67021100D03*
X189230000Y-77368400D03*
X201980800Y-78867000D03*
X196187060Y-60247622D03*
X197612000Y-58541920D03*
%TO.N,tdi*%
X188928474Y-77854274D03*
X193167000Y-61569600D03*
X194945000Y-61747400D03*
X202336400Y-64084200D03*
X202819000Y-66201900D03*
%TO.N,tms*%
X200820001Y-69819599D03*
X202031600Y-69392800D03*
X200863199Y-78943199D03*
%TO.N,CLK*%
X192022672Y-62899999D03*
X195900040Y-63662560D03*
X196699687Y-64054339D03*
%TO.N,Net-(IC1-PadH9)*%
X203225400Y-64033400D03*
X202844400Y-70993000D03*
%TO.N,Net-(IC1-PadH8)*%
X202819000Y-70154800D03*
%TO.N,Net-(IC1-PadG9)*%
X203657200Y-70967600D03*
%TO.N,Net-(IC1-PadG8)*%
X209550000Y-54610000D03*
%TO.N,e5*%
X221645480Y-77144880D03*
X212722460Y-67797680D03*
%TO.N,e4*%
X227398580Y-81836260D03*
X211721700Y-66868040D03*
X210976944Y-65965804D03*
X209204560Y-67111880D03*
%TO.N,d18*%
X219184220Y-79133700D03*
X216618820Y-77782420D03*
X211123813Y-78184727D03*
%TO.N,d17*%
X219882720Y-82478880D03*
X217711020Y-80391000D03*
X214802720Y-79174340D03*
X213763860Y-78135480D03*
X211223324Y-77165736D03*
%TO.N,d16*%
X219146120Y-82349340D03*
X217545920Y-81765140D03*
X216362280Y-81998820D03*
X215079580Y-81683860D03*
X213273640Y-80416400D03*
X212623400Y-78849220D03*
X210093560Y-76387960D03*
%TO.N,d15*%
X219108020Y-83644740D03*
X215239600Y-78201520D03*
X214701120Y-77299820D03*
X210078320Y-75468480D03*
%TO.N,d8*%
X215818720Y-77718920D03*
X214045800Y-69781420D03*
X210931760Y-71285100D03*
%TO.N,d7*%
X214922100Y-75293220D03*
X213301580Y-74853800D03*
X212981540Y-72372220D03*
X209161380Y-70240500D03*
%TO.N,d6*%
X211259420Y-68990500D03*
X209080100Y-68990500D03*
%TO.N,d5*%
X213601300Y-79705200D03*
X211839076Y-70951824D03*
X210807300Y-69291200D03*
X210540600Y-67830700D03*
X207175100Y-63588900D03*
%TO.N,d4*%
X210718400Y-70383400D03*
X210083400Y-69253100D03*
X209883401Y-68209500D03*
X206413100Y-63982600D03*
%TO.N,c18*%
X207276700Y-85509100D03*
X209388100Y-82133853D03*
X209623001Y-80889500D03*
X209889700Y-79533800D03*
X208816600Y-78730499D03*
%TO.N,c10*%
X209232501Y-80441801D03*
X209597600Y-72809100D03*
%TO.N,c9*%
X200096120Y-86161880D03*
X201914760Y-82707480D03*
X201914760Y-80705960D03*
X205639598Y-73800000D03*
%TO.N,c8*%
X196938900Y-86979999D03*
X204609700Y-81749900D03*
X204609700Y-80454500D03*
X206603475Y-79591951D03*
X209118200Y-72275700D03*
X206439598Y-72200000D03*
X206768700Y-70240500D03*
%TO.N,c7*%
X207095627Y-81886327D03*
X207657700Y-80086200D03*
X206810000Y-69418200D03*
X208013763Y-68986855D03*
%TO.N,c6*%
X207124300Y-79511500D03*
X206819500Y-68592700D03*
%TO.N,c5*%
X193014600Y-80568800D03*
X200456800Y-79333700D03*
X206425800Y-78730500D03*
%TO.N,MCLK*%
X215739980Y-74173080D03*
X217789760Y-73708260D03*
X217883740Y-70197980D03*
X219499180Y-67332860D03*
%TO.N,LRCK*%
X215500000Y-72960000D03*
X217402000Y-73230740D03*
X217932000Y-67942460D03*
X218830500Y-67510660D03*
%TO.N,SDATA*%
X216270840Y-70258940D03*
X216923620Y-67310000D03*
X217937080Y-65359280D03*
%TO.N,DCLK*%
X208407000Y-65405000D03*
%TO.N,EN*%
X208432400Y-67792600D03*
X190982600Y-67284600D03*
X189484000Y-67284600D03*
X193126360Y-82550000D03*
X192501520Y-77663040D03*
X192307157Y-69096837D03*
%TO.N,INTERR*%
X208407000Y-66979800D03*
X193725800Y-66548000D03*
X187096400Y-66548000D03*
%TO.N,DATA*%
X191922400Y-78267560D03*
X192278000Y-66938500D03*
X192278000Y-68008500D03*
X191960500Y-76136500D03*
%TO.N,DCLK*%
X193497200Y-65252600D03*
%TO.N,u1*%
X195554600Y-60302140D03*
X195420383Y-61519932D03*
X196408040Y-62590680D03*
X195620000Y-64582700D03*
%TO.N,r1*%
X197238620Y-64444880D03*
X198003160Y-60251340D03*
%TO.N,p1*%
X196519800Y-61554360D03*
X198393660Y-63536355D03*
X198020000Y-64582700D03*
%TO.N,n1*%
X198866760Y-64503300D03*
X199059800Y-63541300D03*
X201114660Y-59207400D03*
X201236580Y-57878980D03*
%TO.N,m1*%
X202369420Y-58135999D03*
X202023980Y-59245500D03*
X199864980Y-63441580D03*
X199620000Y-64582700D03*
%TO.N,l1*%
X200464420Y-64508380D03*
X200616820Y-63510160D03*
X202582780Y-59260740D03*
X202928995Y-58128675D03*
%TO.N,k1*%
X204416660Y-58089800D03*
X203992480Y-59189999D03*
X201447400Y-63441580D03*
X201220000Y-64582700D03*
%TO.N,j1*%
X201896134Y-64373849D03*
X202194160Y-63413640D03*
X204744320Y-59222640D03*
X205237080Y-57965340D03*
%TO.N,h1*%
X208399380Y-58135999D03*
X207477360Y-59189999D03*
%TO.N,e5*%
X209232500Y-66484500D03*
%TD*%
D19*
%TO.N,tck*%
X190455599Y-68455599D02*
X190500000Y-68500000D01*
X190455599Y-65495205D02*
X190455599Y-68455599D01*
X190805872Y-65144932D02*
X190455599Y-65495205D01*
X190805872Y-64862090D02*
X190805872Y-65144932D01*
D20*
X207314800Y-79121000D02*
X203073000Y-79121000D01*
X208280000Y-80086200D02*
X207314800Y-79121000D01*
X208280000Y-81280000D02*
X208280000Y-80086200D01*
D19*
%TO.N,Net-(C6-Pad1)*%
X236630000Y-66040000D02*
X235520000Y-67150000D01*
X238125000Y-66040000D02*
X236630000Y-66040000D01*
D20*
%TO.N,tdo*%
X204662370Y-81280000D02*
X202376370Y-78994000D01*
X205740000Y-81280000D02*
X204662370Y-81280000D01*
X202376370Y-78994000D02*
X202107800Y-78994000D01*
X202107800Y-78994000D02*
X201980800Y-78867000D01*
X201623638Y-68216440D02*
X201623027Y-68216440D01*
X201641099Y-68233901D02*
X201623638Y-68216440D01*
X189874501Y-67097159D02*
X189874501Y-67659557D01*
X189509499Y-66732157D02*
X189874501Y-67097159D01*
X189509499Y-63024559D02*
X189509499Y-66732157D01*
X190024559Y-62509499D02*
X189509499Y-63024559D01*
X189874501Y-67659557D02*
X189153800Y-68380258D01*
X189153800Y-68380258D02*
X189153800Y-77292200D01*
X189153800Y-77292200D02*
X189230000Y-77368400D01*
X195008758Y-62509499D02*
X195846700Y-61671557D01*
X194640101Y-62509499D02*
X195008758Y-62509499D01*
X194640101Y-62509499D02*
X190024559Y-62509499D01*
X195846700Y-60587982D02*
X196187060Y-60247622D01*
X195846700Y-61671557D02*
X195846700Y-60587982D01*
X199003920Y-57150000D02*
X199390000Y-57150000D01*
X197612000Y-58541920D02*
X199003920Y-57150000D01*
%TO.N,tdi*%
X187960000Y-76940000D02*
X188642400Y-77622400D01*
X188642400Y-77622400D02*
X188696600Y-77622400D01*
X188696600Y-77622400D02*
X188976000Y-77901800D01*
X188976000Y-77901800D02*
X188928474Y-77854274D01*
X193366999Y-61769599D02*
X194922801Y-61769599D01*
X193167000Y-61569600D02*
X193366999Y-61769599D01*
X194922801Y-61769599D02*
X194945000Y-61747400D01*
%TO.N,tms*%
X187325000Y-80010000D02*
X190500000Y-76835000D01*
X187325000Y-81915000D02*
X187325000Y-80010000D01*
X200863200Y-69862798D02*
X200820001Y-69819599D01*
X192379600Y-76835000D02*
X190500000Y-76835000D01*
X194487800Y-78943200D02*
X192379600Y-76835000D01*
X200863199Y-78943199D02*
X194487800Y-78943200D01*
X201041000Y-79121000D02*
X200863199Y-78943199D01*
X203200000Y-81280000D02*
X201041000Y-79121000D01*
X201041000Y-79121000D02*
X200863200Y-78943200D01*
X200863199Y-78943199D02*
X200863199Y-78943199D01*
X201604801Y-69819599D02*
X202031600Y-69392800D01*
X200820001Y-69819599D02*
X201604801Y-69819599D01*
%TO.N,V3.3*%
X203639420Y-67970400D02*
X203702920Y-67906900D01*
X202824080Y-67970400D02*
X203639420Y-67970400D01*
X201271821Y-67825939D02*
X201198480Y-67899280D01*
X201810468Y-67825939D02*
X201271821Y-67825939D01*
X201871109Y-67886580D02*
X201810468Y-67825939D01*
X202097640Y-67886580D02*
X201871109Y-67886580D01*
%TO.N,CLK*%
X195137479Y-62899999D02*
X195900040Y-63662560D01*
X192022672Y-62899999D02*
X195137479Y-62899999D01*
%TO.N,Net-(IC1-PadH9)*%
X209550000Y-52070000D02*
X203225400Y-58394600D01*
X203225400Y-58394600D02*
X203225400Y-64033400D01*
%TO.N,Net-(IC1-PadH8)*%
X214630000Y-64770000D02*
X212725000Y-64770000D01*
X209311899Y-68183101D02*
X204155699Y-68183101D01*
X212725000Y-64770000D02*
X209311899Y-68183101D01*
X204155699Y-68183101D02*
X204012800Y-68326000D01*
X204012800Y-68326000D02*
X204012800Y-69697600D01*
X204012800Y-69697600D02*
X203911200Y-69799200D01*
X203911200Y-69799200D02*
X203174600Y-69799200D01*
X203174600Y-69799200D02*
X202819000Y-70154800D01*
%TO.N,Net-(IC1-PadG9)*%
X212090000Y-69850000D02*
X211100051Y-69850000D01*
X211100051Y-69850000D02*
X204647800Y-69850000D01*
X204647800Y-69850000D02*
X204219624Y-69850000D01*
X204219624Y-69850000D02*
X204038200Y-70031424D01*
X204038200Y-70031424D02*
X204038200Y-70586600D01*
X204038200Y-70586600D02*
X203657200Y-70967600D01*
%TO.N,e5*%
X221645480Y-76803158D02*
X214304880Y-69462558D01*
X221645480Y-77144880D02*
X221645480Y-76803158D01*
X214304880Y-69462558D02*
X214304880Y-69380100D01*
X214304880Y-69380100D02*
X212722460Y-67797680D01*
%TO.N,e4*%
X227398580Y-79700638D02*
X223329500Y-75631558D01*
X227398580Y-81836260D02*
X227398580Y-79700638D01*
X223329500Y-75631558D02*
X223329500Y-70317360D01*
X223329500Y-70317360D02*
X219880180Y-66868040D01*
X219880180Y-66868040D02*
X211721700Y-66868040D01*
X210976944Y-65965804D02*
X210350636Y-65965804D01*
X210350636Y-65965804D02*
X209204560Y-67111880D01*
%TO.N,d18*%
X231140000Y-87630000D02*
X222643700Y-79133700D01*
X222643700Y-79133700D02*
X219184220Y-79133700D01*
%TO.N,d17*%
X223448880Y-82478880D02*
X219882720Y-82478880D01*
X228600000Y-87630000D02*
X223448880Y-82478880D01*
X215135361Y-78841699D02*
X214802720Y-79174340D01*
X216828841Y-78841699D02*
X215135361Y-78841699D01*
X217711020Y-79723878D02*
X216828841Y-78841699D01*
X217711020Y-80391000D02*
X217711020Y-79723878D01*
X211223324Y-77165736D02*
X208966336Y-77165736D01*
X208791199Y-76990599D02*
X206420061Y-76990599D01*
X208966336Y-77165736D02*
X208791199Y-76990599D01*
X206420061Y-77018539D02*
X206019400Y-77419200D01*
X206420061Y-76990599D02*
X206420061Y-77018539D01*
%TO.N,d16*%
X225019499Y-86589499D02*
X223386279Y-86589499D01*
X226060000Y-87630000D02*
X225019499Y-86589499D01*
X223386279Y-86589499D02*
X219146120Y-82349340D01*
X217545920Y-81765140D02*
X216448640Y-81765140D01*
X216362280Y-81851500D02*
X216362280Y-81998820D01*
X216448640Y-81765140D02*
X216362280Y-81851500D01*
X215079580Y-81683860D02*
X214541100Y-81683860D01*
X214541100Y-81683860D02*
X213273640Y-80416400D01*
X212623400Y-79305242D02*
X212623400Y-78849220D01*
X213273640Y-79955482D02*
X212623400Y-79305242D01*
X213273640Y-80416400D02*
X213273640Y-79955482D01*
X210093560Y-76387960D02*
X209016600Y-76387960D01*
X209016600Y-76387960D02*
X208848960Y-76220320D01*
X206329280Y-76220320D02*
X205968600Y-76581000D01*
X208848960Y-76220320D02*
X206329280Y-76220320D01*
%TO.N,d15*%
X223520000Y-87630000D02*
X219544900Y-83654900D01*
X219118180Y-83654900D02*
X219108020Y-83644740D01*
X219544900Y-83654900D02*
X219118180Y-83654900D01*
X215239600Y-77838300D02*
X214701120Y-77299820D01*
X215239600Y-78201520D02*
X215239600Y-77838300D01*
X206219399Y-75606301D02*
X206019400Y-75806300D01*
X206557219Y-75268481D02*
X206219399Y-75606301D01*
X209878321Y-75268481D02*
X206557219Y-75268481D01*
X210078320Y-75468480D02*
X209878321Y-75268481D01*
%TO.N,d8*%
X214531599Y-70267219D02*
X214045800Y-69781420D01*
X214531599Y-76431799D02*
X214531599Y-70267219D01*
X215818720Y-77718920D02*
X214531599Y-76431799D01*
X210931760Y-71285100D02*
X210294220Y-70647560D01*
X206423260Y-70647560D02*
X206057500Y-70281800D01*
X210294220Y-70647560D02*
X206423260Y-70647560D01*
%TO.N,d7*%
X218440000Y-87630000D02*
X218440000Y-78811120D01*
X218440000Y-78811120D02*
X214922100Y-75293220D01*
X213301580Y-74853800D02*
X213301580Y-72692260D01*
X213301580Y-72692260D02*
X212981540Y-72372220D01*
%TO.N,d6*%
X214250501Y-70692559D02*
X212465602Y-68907660D01*
X214250501Y-79449077D02*
X214250501Y-70692559D01*
X215900000Y-81098576D02*
X214250501Y-79449077D01*
X215900000Y-87630000D02*
X215900000Y-81098576D01*
X211342260Y-68907660D02*
X211259420Y-68990500D01*
X212465602Y-68907660D02*
X211342260Y-68907660D01*
%TO.N,d5*%
X213601300Y-79705200D02*
X213601300Y-79159100D01*
X213601300Y-79159100D02*
X212966300Y-78524100D01*
X212966300Y-78524100D02*
X212966300Y-77622400D01*
X212966300Y-77622400D02*
X212623400Y-77279500D01*
X212469499Y-76627441D02*
X212469499Y-74829901D01*
X212623400Y-76781342D02*
X212469499Y-76627441D01*
X212623400Y-77279500D02*
X212623400Y-76781342D01*
X212469499Y-74829901D02*
X212471000Y-74828400D01*
X212469499Y-71582247D02*
X211839076Y-70951824D01*
X212469499Y-74829901D02*
X212469499Y-71582247D01*
X210807300Y-68097400D02*
X210540600Y-67830700D01*
X210807300Y-69291200D02*
X210807300Y-68097400D01*
%TO.N,d4*%
X209883401Y-69053101D02*
X209883401Y-68214901D01*
X210083400Y-69253100D02*
X209883401Y-69053101D01*
X209883401Y-68214901D02*
X209883401Y-68209500D01*
X211669999Y-86780001D02*
X210820000Y-87630000D01*
X212343901Y-86106099D02*
X211669999Y-86780001D01*
X212343901Y-79356759D02*
X212343901Y-86106099D01*
X211797900Y-78810758D02*
X212343901Y-79356759D01*
X211797900Y-71462900D02*
X211797900Y-78810758D01*
X211797900Y-71462900D02*
X210718400Y-70383400D01*
%TO.N,c18*%
X205740000Y-87630000D02*
X207276700Y-86093300D01*
X207276700Y-86093300D02*
X207276700Y-85509100D01*
X209588099Y-81933854D02*
X209588099Y-80962499D01*
X209388100Y-82133853D02*
X209588099Y-81933854D01*
X209623001Y-80927597D02*
X209623001Y-80889500D01*
X209588099Y-80962499D02*
X209623001Y-80927597D01*
X209086399Y-78730499D02*
X208816600Y-78730499D01*
X209889700Y-79533800D02*
X209086399Y-78730499D01*
%TO.N,c17*%
X207670400Y-78244700D02*
X206806800Y-77381100D01*
X210013502Y-80587802D02*
X207670400Y-78244700D01*
X210013502Y-83496200D02*
X210013502Y-80587802D01*
X208407002Y-85102700D02*
X210013502Y-83496200D01*
X206727358Y-85102700D02*
X208407002Y-85102700D01*
X204200058Y-87630000D02*
X206727358Y-85102700D01*
X203200000Y-87630000D02*
X204200058Y-87630000D01*
%TO.N,c10*%
X208737201Y-82232501D02*
X209232501Y-81737201D01*
X208457797Y-82232501D02*
X208737201Y-82232501D01*
X209232501Y-81737201D02*
X209232501Y-80441801D01*
X207327499Y-83362799D02*
X208457797Y-82232501D01*
X207327499Y-83642203D02*
X207327499Y-83362799D01*
X204380203Y-86589499D02*
X207327499Y-83642203D01*
X201700501Y-86589499D02*
X204380203Y-86589499D01*
X200660000Y-87630000D02*
X201700501Y-86589499D01*
X209597600Y-72177158D02*
X208781742Y-71361300D01*
X209597600Y-72809100D02*
X209597600Y-72177158D01*
X207281121Y-71293379D02*
X206981399Y-71593101D01*
X206981399Y-71593101D02*
X206781400Y-71793100D01*
X207791801Y-71293379D02*
X207281121Y-71293379D01*
X207859722Y-71361300D02*
X207791801Y-71293379D01*
X208781742Y-71361300D02*
X207859722Y-71361300D01*
%TO.N,c9*%
X199588120Y-86161880D02*
X200096120Y-86161880D01*
X198120000Y-87630000D02*
X199588120Y-86161880D01*
X201914760Y-82707480D02*
X201914760Y-80705960D01*
X201914760Y-80705960D02*
X201914760Y-80705960D01*
X205639598Y-73800000D02*
X205639598Y-71515042D01*
X206032100Y-71122540D02*
X206799180Y-71122540D01*
X205888590Y-71266050D02*
X206032100Y-71122540D01*
X205639598Y-71515042D02*
X205888590Y-71266050D01*
%TO.N,c8*%
X196938900Y-86979999D02*
X198231999Y-85686900D01*
X202742802Y-85686900D02*
X204609700Y-83820002D01*
X198231999Y-85686900D02*
X202742802Y-85686900D01*
X204609700Y-83820002D02*
X204609700Y-81749900D01*
X204609700Y-81749900D02*
X204609700Y-81749900D01*
X204609700Y-80454500D02*
X205486000Y-79578200D01*
X205486000Y-79578200D02*
X206692500Y-79578200D01*
X206678749Y-79591951D02*
X206603475Y-79591951D01*
X206692500Y-79578200D02*
X206678749Y-79591951D01*
X208835358Y-72275700D02*
X208771858Y-72212200D01*
X209118200Y-72275700D02*
X208835358Y-72275700D01*
X208771858Y-72212200D02*
X206451200Y-72212200D01*
X206439598Y-72200598D02*
X206439598Y-72200000D01*
X206451200Y-72212200D02*
X206439598Y-72200598D01*
%TO.N,c7*%
X207095627Y-81886327D02*
X207095627Y-80648273D01*
X207095627Y-80648273D02*
X207657700Y-80086200D01*
X207241345Y-68986855D02*
X206810000Y-69418200D01*
X208013763Y-68986855D02*
X207241345Y-68986855D01*
%TO.N,c5*%
X193014600Y-80568800D02*
X194284600Y-79298800D01*
X194284600Y-79298800D02*
X200456800Y-79298800D01*
X200456800Y-79298800D02*
X200456800Y-79333700D01*
%TO.N,MCLK*%
X215739980Y-74173080D02*
X217324940Y-74173080D01*
X217324940Y-74173080D02*
X217789760Y-73708260D01*
X219499180Y-68582540D02*
X219499180Y-67332860D01*
X217883740Y-70197980D02*
X219499180Y-68582540D01*
%TO.N,LRCK*%
X217131260Y-72960000D02*
X217402000Y-73230740D01*
X215500000Y-72960000D02*
X217131260Y-72960000D01*
X218398700Y-67942460D02*
X218830500Y-67510660D01*
X217932000Y-67942460D02*
X218398700Y-67942460D01*
%TO.N,SDATA*%
X216470839Y-70058941D02*
X216470839Y-67762781D01*
X216270840Y-70258940D02*
X216470839Y-70058941D01*
X216470839Y-67762781D02*
X216923620Y-67310000D01*
X217937080Y-65359280D02*
X217937080Y-65044320D01*
X222012141Y-55622559D02*
X222862140Y-54772560D01*
X222012141Y-60969259D02*
X222012141Y-55622559D01*
X217937080Y-65044320D02*
X222012141Y-60969259D01*
%TO.N,EN*%
X191109600Y-67411600D02*
X190982600Y-67284600D01*
X182389999Y-63029999D02*
X181540000Y-62180000D01*
X183039499Y-63679499D02*
X182389999Y-63029999D01*
X185878899Y-63679499D02*
X183039499Y-63679499D01*
X189484000Y-67284600D02*
X185878899Y-63679499D01*
X207032341Y-67313199D02*
X206657459Y-67313199D01*
X207130742Y-67411600D02*
X207032341Y-67313199D01*
X208432400Y-67792600D02*
X208051400Y-67411600D01*
X208051400Y-67411600D02*
X207213200Y-67411600D01*
X207213200Y-67411600D02*
X207130742Y-67411600D01*
X191182599Y-67484599D02*
X190982600Y-67284600D01*
X202923310Y-67484599D02*
X191182599Y-67484599D01*
X203005810Y-67402099D02*
X202923310Y-67484599D01*
X206187743Y-67402099D02*
X203005810Y-67402099D01*
X206276643Y-67313199D02*
X206187743Y-67402099D01*
X207032341Y-67313199D02*
X206276643Y-67313199D01*
X193126360Y-82550000D02*
X192501520Y-81925160D01*
X192501520Y-81925160D02*
X192501520Y-77663040D01*
X192307157Y-68609157D02*
X190982600Y-67284600D01*
X192307157Y-69096837D02*
X192307157Y-68609157D01*
%TO.N,INTERR*%
X208407000Y-66979800D02*
X208026000Y-66598800D01*
X208026000Y-66598800D02*
X193776600Y-66598800D01*
X193776600Y-66598800D02*
X193725800Y-66548000D01*
X182389999Y-65569999D02*
X181540000Y-64720000D01*
X182580501Y-65760501D02*
X182389999Y-65569999D01*
X186308901Y-65760501D02*
X182580501Y-65760501D01*
X187096400Y-66548000D02*
X186308901Y-65760501D01*
%TO.N,DATA*%
X182389999Y-93509999D02*
X181540000Y-92660000D01*
X182580501Y-93700501D02*
X182389999Y-93509999D01*
X194203419Y-93700501D02*
X182580501Y-93700501D01*
X195554600Y-92349320D02*
X194203419Y-93700501D01*
X184579441Y-88620501D02*
X191922400Y-81277542D01*
X184039557Y-88620501D02*
X184579441Y-88620501D01*
X183039499Y-89620559D02*
X184039557Y-88620501D01*
X183039499Y-91160501D02*
X183039499Y-89620559D01*
X181540000Y-92660000D02*
X183039499Y-91160501D01*
X191922400Y-81277542D02*
X191922400Y-78267560D01*
X192697658Y-69474424D02*
X192306842Y-69865240D01*
X192697658Y-68428158D02*
X192697658Y-69474424D01*
X192278000Y-68008500D02*
X192697658Y-68428158D01*
X192306842Y-75790158D02*
X191960500Y-76136500D01*
X192306842Y-69865240D02*
X192306842Y-75790158D01*
X193205101Y-66011399D02*
X192278000Y-66938500D01*
X200294899Y-65808201D02*
X200137559Y-65650861D01*
X200137559Y-65650861D02*
X199224241Y-65650861D01*
X208073601Y-65808201D02*
X200294899Y-65808201D01*
X208419700Y-66154300D02*
X208073601Y-65808201D01*
X192477999Y-66738501D02*
X192278000Y-66938500D01*
X199021181Y-65853921D02*
X193362579Y-65853921D01*
X193362579Y-65853921D02*
X192477999Y-66738501D01*
X199224241Y-65650861D02*
X199021181Y-65853921D01*
%TO.N,DCLK*%
X208407000Y-65405000D02*
X207975200Y-64973200D01*
X207975200Y-64973200D02*
X193776600Y-64973200D01*
X193776600Y-64973200D02*
X193497200Y-65252600D01*
%TO.N,u1*%
X195554600Y-61385715D02*
X195420383Y-61519932D01*
X195554600Y-60302140D02*
X195554600Y-61385715D01*
X196408040Y-63794660D02*
X195620000Y-64582700D01*
X196408040Y-62590680D02*
X196408040Y-63794660D01*
%TO.N,r1*%
X198003160Y-63680340D02*
X198003160Y-60251340D01*
X197238620Y-64444880D02*
X198003160Y-63680340D01*
%TO.N,p1*%
X196577561Y-61496599D02*
X196519800Y-61554360D01*
X196577561Y-60060181D02*
X196577561Y-61496599D01*
X196395340Y-49072800D02*
X195545341Y-49922799D01*
X198393660Y-64209040D02*
X198020000Y-64582700D01*
X198393660Y-63536355D02*
X198393660Y-64209040D01*
X195545341Y-57459283D02*
X195545341Y-49922799D01*
X196577561Y-58491503D02*
X195545341Y-57459283D01*
X196577561Y-60060181D02*
X196577561Y-58491503D01*
%TO.N,n1*%
X198866760Y-63734340D02*
X199059800Y-63541300D01*
X198866760Y-64503300D02*
X198866760Y-63734340D01*
X201114660Y-58000900D02*
X201236580Y-57878980D01*
X201114660Y-59207400D02*
X201114660Y-58000900D01*
%TO.N,m1*%
X202369420Y-58900060D02*
X202023980Y-59245500D01*
X202369420Y-58135999D02*
X202369420Y-58900060D01*
X199864980Y-64337720D02*
X199620000Y-64582700D01*
X199864980Y-63441580D02*
X199864980Y-64337720D01*
%TO.N,l1*%
X200464420Y-63662560D02*
X200616820Y-63510160D01*
X200464420Y-64508380D02*
X200464420Y-63662560D01*
X202928995Y-58914525D02*
X202928995Y-58128675D01*
X202582780Y-59260740D02*
X202928995Y-58914525D01*
%TO.N,k1*%
X203992480Y-58513980D02*
X203992480Y-59189999D01*
X204416660Y-58089800D02*
X203992480Y-58513980D01*
X201447400Y-64355300D02*
X201220000Y-64582700D01*
X201447400Y-63441580D02*
X201447400Y-64355300D01*
%TO.N,j1*%
X201896134Y-64373849D02*
X201896134Y-63696426D01*
X202178920Y-63413640D02*
X202194160Y-63413640D01*
X201896134Y-63696426D02*
X202178920Y-63413640D01*
X204744320Y-58458100D02*
X205237080Y-57965340D01*
X204744320Y-59222640D02*
X204744320Y-58458100D01*
%TO.N,h1*%
X207477360Y-59058019D02*
X207477360Y-59189999D01*
X208399380Y-58135999D02*
X207477360Y-59058019D01*
%TD*%
M02*
