M48
; DRILL file {KiCad 5.1.5+dfsg1-2build2} date Fri 19 Nov 2021 12:53:50 AM CST
; FORMAT={-:-/ absolute / inch / decimal}
; #@! TF.CreationDate,2021-11-19T00:53:50-06:00
; #@! TF.GenerationSoftware,Kicad,Pcbnew,5.1.5+dfsg1-2build2
; #@! TF.FileFunction,Plated,1,4,PTH
FMAT,2
INCH
T1C0.0079
T2C0.0276
T3C0.0300
T4C0.0315
T5C0.0354
T6C0.0394
%
G90
G05
T1
X7.366Y-2.62
X7.4381Y-3.0651
X7.45Y-3.046
X7.46Y-2.649
X7.512Y-2.5536
X7.519Y-2.649
X7.556Y-3.0814
X7.5575Y-2.9975
X7.5599Y-2.4764
X7.57Y-2.6354
X7.57Y-2.6775
X7.5711Y-2.7203
X7.5788Y-3.0576
X7.599Y-3.172
X7.6034Y-3.25
X7.605Y-2.424
X7.618Y-2.569
X7.627Y-2.62
X7.6713Y-3.0781
X7.6722Y-2.5412
X7.675Y-2.431
X7.6937Y-2.422
X7.699Y-2.3741
X7.7008Y-2.9516
X7.7016Y-2.5426
X7.7019Y-2.8259
X7.7024Y-2.6394
X7.7126Y-2.5064
X7.7239Y-2.372
X7.7326Y-2.4642
X7.737Y-2.4234
X7.7441Y-2.5218
X7.7535Y-3.4244
X7.7646Y-2.7323
X7.7653Y-2.5372
X7.78Y-2.3048
X7.7954Y-2.3721
X7.7954Y-2.7321
X7.7957Y-2.795
X7.7959Y-2.764
X7.7961Y-2.5426
X7.7961Y-2.9215
X7.8108Y-2.5014
X7.8274Y-2.8897
X7.8276Y-2.795
X7.8276Y-3.0472
X7.8278Y-2.8269
X7.8281Y-2.5773
X7.8292Y-2.6745
X7.8294Y-2.5395
X7.837Y-2.5016
X7.8575Y-2.9207
X7.8589Y-2.6053
X7.8591Y-2.5426
X7.8591Y-2.7005
X7.8593Y-2.953
X7.8597Y-2.6725
X7.8687Y-2.4977
X7.8778Y-3.3922
X7.8866Y-2.9194
X7.8883Y-2.953
X7.8895Y-2.6407
X7.8905Y-2.6729
X7.8907Y-2.7012
X7.892Y-3.1234
X7.8923Y-2.5397
X7.8983Y-2.5004
X7.9063Y-2.7488
X7.908Y-3.108
X7.9179Y-2.331
X7.9195Y-2.7018
X7.9204Y-2.9538
X7.9212Y-2.6732
X7.922Y-2.7954
X7.922Y-2.5426
X7.9227Y-2.2787
X7.9227Y-2.9217
X7.931Y-2.4977
X7.9379Y-2.6857
X7.9487Y-2.5344
X7.9494Y-3.1774
X7.9494Y-3.2562
X7.952Y-3.105
X7.9529Y-2.9537
X7.9532Y-3.0477
X7.9533Y-2.8278
X7.9536Y-2.9186
X7.9537Y-2.3325
X7.954Y-2.732
X7.954Y-2.764
X7.9566Y-2.6727
X7.9604Y-2.4966
X7.966Y-2.523
X7.9673Y-2.2888
X7.9757Y-2.3331
X7.9845Y-2.9526
X7.9846Y-2.6386
X7.9847Y-2.921
X7.985Y-2.6064
X7.985Y-2.762
X7.9852Y-2.676
X7.986Y-2.795
X7.9893Y-2.2885
X7.9915Y-3.108
X8.001Y-2.521
X8.0163Y-2.9525
X8.0166Y-2.5755
X8.0167Y-2.9217
X8.0175Y-2.765
X8.018Y-2.794
X8.0198Y-2.6377
X8.0198Y-2.6735
X8.0312Y-2.3303
X8.0475Y-2.7952
X8.0479Y-2.287
X8.0481Y-3.048
X8.0495Y-2.9535
X8.0501Y-2.7674
X8.0523Y-2.7057
X8.0555Y-3.1675
X8.0555Y-3.2185
X8.0608Y-2.3316
X8.0772Y-2.7666
X8.0792Y-2.7955
X8.0794Y-2.827
X8.0799Y-2.9214
X8.08Y-2.669
X8.08Y-2.702
X8.0802Y-2.2821
X8.0805Y-2.6375
X8.096Y-2.9055
X8.1087Y-2.6063
X8.109Y-2.7015
X8.109Y-3.015
X8.111Y-2.6375
X8.111Y-2.669
X8.111Y-2.669
X8.111Y-2.9845
X8.111Y-3.048
X8.111Y-3.0785
X8.1125Y-2.767
X8.1135Y-2.7335
X8.1265Y-2.519
X8.127Y-3.0996
X8.1275Y-2.8425
X8.134Y-3.1335
X8.1405Y-2.7654
X8.141Y-2.8265
X8.1417Y-2.8001
X8.142Y-3.0465
X8.142Y-3.0795
X8.1421Y-2.733
X8.1425Y-2.7005
X8.1435Y-2.6655
X8.1534Y-3.2239
X8.1545Y-3.1304
X8.1565Y-2.5035
X8.1605Y-3.3665
X8.1684Y-2.3303
X8.1715Y-2.7005
X8.1734Y-2.8222
X8.1743Y-2.9853
X8.1755Y-3.153
X8.1895Y-2.716
X8.2047Y-2.2888
X8.205Y-2.575
X8.205Y-2.637
X8.2055Y-2.6045
X8.2059Y-2.544
X8.206Y-2.669
X8.2095Y-3.0798
X8.2211Y-3.0996
X8.2315Y-2.7162
X8.233Y-2.8455
X8.2347Y-2.7654
X8.2364Y-2.6422
X8.2375Y-2.6175
X8.2375Y-3.167
X8.2436Y-3.2336
X8.25Y-2.15
X8.2519Y-2.8665
X8.2529Y-3.1846
X8.2631Y-2.6854
X8.2634Y-3.085
X8.2634Y-3.1313
X8.2708Y-2.9712
X8.271Y-2.7265
X8.2714Y-3.0074
X8.289Y-2.6705
X8.296Y-2.771
X8.2995Y-2.728
X8.3044Y-2.8065
X8.3062Y-2.5971
X8.312Y-3.0781
X8.3159Y-3.038
X8.3173Y-2.7162
X8.3355Y-2.6326
X8.3401Y-2.7934
X8.371Y-3.1043
X8.3749Y-2.6692
X8.3851Y-2.8493
X8.3966Y-3.166
X8.3977Y-2.947
X8.4095Y-3.138
X8.4159Y-3.0762
X8.427Y-2.7473
X8.4528Y-3.0433
X8.4568Y-3.1171
X8.4615Y-2.9643
X8.4677Y-3.2159
X8.474Y-3.0788
X8.4843Y-2.8724
X8.4937Y-2.9202
X8.4968Y-3.0598
X8.5146Y-2.7661
X8.5182Y-3.2283
X8.5283Y-3.0623
X8.5403Y-2.65
X8.5591Y-2.8831
X8.5648Y-3.2191
X8.5713Y-3.165
X8.5744Y-2.9019
X8.5781Y-2.7637
X8.58Y-2.6749
X8.5802Y-2.5732
X8.6154Y-2.6579
X8.6263Y-3.2931
X8.6278Y-3.2421
X8.6293Y-3.1155
X8.6417Y-2.6509
X8.6568Y-3.2472
X8.6925Y-2.87
X8.7262Y-3.0372
X8.7475Y-2.875
X8.7634Y-2.8225
X8.9527Y-3.2219
X9.375Y-2.6
X9.5375Y-1.9675
X9.605Y-1.9625
T2
X9.0394Y-2.3882
X9.0394Y-2.6882
X8.7929Y-2.3953
X8.7929Y-2.6953
X9.1571Y-2.3862
X9.1571Y-2.6862
X8.7941Y-3.0311
X8.7941Y-3.3311
X8.4Y-3.0
X8.4Y-3.3
X8.3Y-2.35
X8.6Y-2.35
X8.45Y-2.25
X8.45Y-2.55
X9.4215Y-2.785
X9.4215Y-3.085
X8.25Y-2.15
X8.55Y-2.15
X9.0Y-3.2
X9.3Y-3.2
X8.35Y-2.45
X8.35Y-2.75
X8.25Y-2.05
X8.55Y-2.05
T3
X7.358Y-1.716
X7.358Y-2.3302
X7.673Y-1.716
X7.673Y-2.3302
X7.8Y-3.2
X7.8Y-3.3
X7.9Y-3.2
X7.9Y-3.3
X8.0Y-3.2
X8.0Y-3.3
X8.1Y-3.2
X8.1Y-3.3
X8.2Y-3.2
X8.2Y-3.3
T4
X9.0594Y-2.7878
X9.0594Y-2.9846
X7.5Y-2.8281
X7.5Y-3.025
X8.6972Y-3.1764
X8.8941Y-3.1764
X9.15Y-3.1
X9.15Y-3.2969
X7.5Y-2.5
X7.5Y-2.6969
X8.321Y-3.143
X8.5179Y-3.143
X8.6921Y-2.5358
X8.889Y-2.5358
X9.2724Y-2.4469
X9.2724Y-2.6437
X7.4Y-2.8323
X7.4Y-3.0291
X8.9217Y-2.7839
X8.9217Y-2.9807
T5
X7.45Y-2.25
X7.75Y-2.25
X7.375Y-3.225
X7.675Y-3.225
X7.85Y-2.4
X8.15Y-2.4
X7.85Y-2.25
X8.15Y-2.25
T6
X8.7741Y-2.1564
X8.8741Y-2.1564
X8.9741Y-2.1564
X9.0741Y-2.1564
X9.1741Y-2.1564
X7.4Y-3.45
X7.5Y-3.45
X7.6Y-3.45
X7.7Y-3.45
X7.8Y-3.45
X7.9Y-3.45
X8.0Y-3.45
X8.1Y-3.45
X8.2Y-3.45
X8.3Y-3.45
X8.4Y-3.45
X8.5Y-3.45
X8.6Y-3.45
X8.7Y-3.45
X8.8Y-3.45
X8.9Y-3.45
X9.0Y-3.45
X9.1Y-3.45
X9.2Y-3.45
X9.3Y-3.45
X7.1472Y-1.748
X7.1472Y-1.848
X7.1472Y-1.948
X7.1472Y-2.048
X7.1472Y-2.148
X7.1472Y-2.248
X7.1472Y-2.348
X7.1472Y-2.448
X7.1472Y-2.548
X7.1472Y-2.648
X7.1472Y-2.748
X7.1472Y-2.848
X7.1472Y-2.948
X7.1472Y-3.048
X7.1472Y-3.148
X7.1472Y-3.248
X7.1472Y-3.348
X7.1472Y-3.448
X7.1472Y-3.548
X7.1472Y-3.648
X7.2472Y-1.748
X7.2472Y-1.848
X7.2472Y-1.948
X7.2472Y-2.048
X7.2472Y-2.148
X7.2472Y-2.248
X7.2472Y-2.348
X7.2472Y-2.448
X7.2472Y-2.548
X7.2472Y-2.648
X7.2472Y-2.748
X7.2472Y-2.848
X7.2472Y-2.948
X7.2472Y-3.048
X7.2472Y-3.148
X7.2472Y-3.248
X7.2472Y-3.348
X7.2472Y-3.448
X7.2472Y-3.548
X7.2472Y-3.648
X7.399Y-3.6358
X7.499Y-3.6358
X7.599Y-3.6358
X7.699Y-3.6358
X7.5321Y-1.932
X7.6321Y-1.932
X7.7321Y-1.932
X7.8321Y-1.932
X7.9321Y-1.932
X8.0321Y-1.932
X8.1321Y-1.932
X8.2321Y-1.932
X8.3321Y-1.932
X8.4321Y-1.932
X8.5321Y-1.932
T0
M30
