%TF.GenerationSoftware,KiCad,Pcbnew,5.1.5+dfsg1-2build2*%
%TF.CreationDate,2021-11-19T00:53:45-06:00*%
%TF.ProjectId,Audio_Dac_I2S,41756469-6f5f-4446-9163-5f4932532e6b,rev?*%
%TF.SameCoordinates,Original*%
%TF.FileFunction,Legend,Bot*%
%TF.FilePolarity,Positive*%
%FSLAX46Y46*%
G04 Gerber Fmt 4.6, Leading zero omitted, Abs format (unit mm)*
G04 Created by KiCad (PCBNEW 5.1.5+dfsg1-2build2) date 2021-11-19 00:53:45*
%MOMM*%
%LPD*%
G04 APERTURE LIST*
%ADD10C,0.120000*%
%ADD11C,0.150000*%
%ADD12C,0.254000*%
G04 APERTURE END LIST*
D10*
%TO.C,R11*%
X230490000Y-82200000D02*
X230490000Y-80360000D01*
X230490000Y-80360000D02*
X234330000Y-80360000D01*
X234330000Y-80360000D02*
X234330000Y-82200000D01*
X234330000Y-82200000D02*
X230490000Y-82200000D01*
X229540000Y-81280000D02*
X230490000Y-81280000D01*
X235280000Y-81280000D02*
X234330000Y-81280000D01*
%TO.C,R4*%
X216550000Y-58770000D02*
X216550000Y-60610000D01*
X216550000Y-60610000D02*
X212710000Y-60610000D01*
X212710000Y-60610000D02*
X212710000Y-58770000D01*
X212710000Y-58770000D02*
X216550000Y-58770000D01*
X217500000Y-59690000D02*
X216550000Y-59690000D01*
X211760000Y-59690000D02*
X212710000Y-59690000D01*
%TO.C,clk1*%
X185894200Y-42587080D02*
X185894200Y-60587080D01*
X185894200Y-60587080D02*
X195894200Y-60587080D01*
X195894200Y-60587080D02*
X195894200Y-42587080D01*
X195894200Y-42587080D02*
X185894200Y-42587080D01*
X193494200Y-45987080D02*
G75*
G03X193494200Y-45987080I-400000J0D01*
G01*
%TO.C,C8*%
X210233400Y-80952200D02*
X217473400Y-80952200D01*
X210233400Y-78712200D02*
X217473400Y-78712200D01*
X210233400Y-80952200D02*
X210233400Y-78712200D01*
X217473400Y-80952200D02*
X217473400Y-78712200D01*
%TO.C,C5*%
X228990000Y-69690000D02*
X228990000Y-76930000D01*
X231230000Y-69690000D02*
X231230000Y-76930000D01*
X228990000Y-69690000D02*
X231230000Y-69690000D01*
X228990000Y-76930000D02*
X231230000Y-76930000D01*
%TO.C,C4*%
X227030000Y-79560000D02*
X219790000Y-79560000D01*
X227030000Y-81800000D02*
X219790000Y-81800000D01*
X227030000Y-79560000D02*
X227030000Y-81800000D01*
X219790000Y-79560000D02*
X219790000Y-81800000D01*
%TO.C,C3*%
X225490000Y-69590000D02*
X225490000Y-76830000D01*
X227730000Y-69590000D02*
X227730000Y-76830000D01*
X225490000Y-69590000D02*
X227730000Y-69590000D01*
X225490000Y-76830000D02*
X227730000Y-76830000D01*
%TO.C,C2*%
X226900000Y-63290000D02*
X219660000Y-63290000D01*
X226900000Y-65530000D02*
X219660000Y-65530000D01*
X226900000Y-63290000D02*
X226900000Y-65530000D01*
X219660000Y-63290000D02*
X219660000Y-65530000D01*
%TO.C,R11*%
D11*
X233052857Y-83652380D02*
X233386190Y-83176190D01*
X233624285Y-83652380D02*
X233624285Y-82652380D01*
X233243333Y-82652380D01*
X233148095Y-82700000D01*
X233100476Y-82747619D01*
X233052857Y-82842857D01*
X233052857Y-82985714D01*
X233100476Y-83080952D01*
X233148095Y-83128571D01*
X233243333Y-83176190D01*
X233624285Y-83176190D01*
X232100476Y-83652380D02*
X232671904Y-83652380D01*
X232386190Y-83652380D02*
X232386190Y-82652380D01*
X232481428Y-82795238D01*
X232576666Y-82890476D01*
X232671904Y-82938095D01*
X231148095Y-83652380D02*
X231719523Y-83652380D01*
X231433809Y-83652380D02*
X231433809Y-82652380D01*
X231529047Y-82795238D01*
X231624285Y-82890476D01*
X231719523Y-82938095D01*
X233100476Y-81732380D02*
X233671904Y-81732380D01*
X233386190Y-81732380D02*
X233386190Y-80732380D01*
X233481428Y-80875238D01*
X233576666Y-80970476D01*
X233671904Y-81018095D01*
X232481428Y-80732380D02*
X232386190Y-80732380D01*
X232290952Y-80780000D01*
X232243333Y-80827619D01*
X232195714Y-80922857D01*
X232148095Y-81113333D01*
X232148095Y-81351428D01*
X232195714Y-81541904D01*
X232243333Y-81637142D01*
X232290952Y-81684761D01*
X232386190Y-81732380D01*
X232481428Y-81732380D01*
X232576666Y-81684761D01*
X232624285Y-81637142D01*
X232671904Y-81541904D01*
X232719523Y-81351428D01*
X232719523Y-81113333D01*
X232671904Y-80922857D01*
X232624285Y-80827619D01*
X232576666Y-80780000D01*
X232481428Y-80732380D01*
X231719523Y-81732380D02*
X231719523Y-80732380D01*
X231148095Y-81732380D02*
X231576666Y-81160952D01*
X231148095Y-80732380D02*
X231719523Y-81303809D01*
%TO.C,R4*%
X214796666Y-60142380D02*
X215130000Y-59666190D01*
X215368095Y-60142380D02*
X215368095Y-59142380D01*
X214987142Y-59142380D01*
X214891904Y-59190000D01*
X214844285Y-59237619D01*
X214796666Y-59332857D01*
X214796666Y-59475714D01*
X214844285Y-59570952D01*
X214891904Y-59618571D01*
X214987142Y-59666190D01*
X215368095Y-59666190D01*
X213939523Y-59475714D02*
X213939523Y-60142380D01*
X214177619Y-59094761D02*
X214415714Y-59809047D01*
X213796666Y-59809047D01*
X215320476Y-62062380D02*
X215891904Y-62062380D01*
X215606190Y-62062380D02*
X215606190Y-61062380D01*
X215701428Y-61205238D01*
X215796666Y-61300476D01*
X215891904Y-61348095D01*
X214701428Y-61062380D02*
X214606190Y-61062380D01*
X214510952Y-61110000D01*
X214463333Y-61157619D01*
X214415714Y-61252857D01*
X214368095Y-61443333D01*
X214368095Y-61681428D01*
X214415714Y-61871904D01*
X214463333Y-61967142D01*
X214510952Y-62014761D01*
X214606190Y-62062380D01*
X214701428Y-62062380D01*
X214796666Y-62014761D01*
X214844285Y-61967142D01*
X214891904Y-61871904D01*
X214939523Y-61681428D01*
X214939523Y-61443333D01*
X214891904Y-61252857D01*
X214844285Y-61157619D01*
X214796666Y-61110000D01*
X214701428Y-61062380D01*
X213939523Y-62062380D02*
X213939523Y-61062380D01*
X213368095Y-62062380D02*
X213796666Y-61490952D01*
X213368095Y-61062380D02*
X213939523Y-61633809D01*
%TO.C,IC1*%
D12*
X200380238Y-71694523D02*
X200380238Y-70424523D01*
X201710714Y-71573571D02*
X201650238Y-71634047D01*
X201468809Y-71694523D01*
X201347857Y-71694523D01*
X201166428Y-71634047D01*
X201045476Y-71513095D01*
X200985000Y-71392142D01*
X200924523Y-71150238D01*
X200924523Y-70968809D01*
X200985000Y-70726904D01*
X201045476Y-70605952D01*
X201166428Y-70485000D01*
X201347857Y-70424523D01*
X201468809Y-70424523D01*
X201650238Y-70485000D01*
X201710714Y-70545476D01*
X202920238Y-71694523D02*
X202194523Y-71694523D01*
X202557380Y-71694523D02*
X202557380Y-70424523D01*
X202436428Y-70605952D01*
X202315476Y-70726904D01*
X202194523Y-70787380D01*
%TO.C,clk1*%
D11*
X190798961Y-50682318D02*
X190846580Y-50587080D01*
X190846580Y-50396603D01*
X190798961Y-50301365D01*
X190751342Y-50253746D01*
X190656104Y-50206127D01*
X190370390Y-50206127D01*
X190275152Y-50253746D01*
X190227533Y-50301365D01*
X190179914Y-50396603D01*
X190179914Y-50587080D01*
X190227533Y-50682318D01*
X190846580Y-51253746D02*
X190798961Y-51158508D01*
X190703723Y-51110889D01*
X189846580Y-51110889D01*
X190846580Y-51634699D02*
X189846580Y-51634699D01*
X190465628Y-51729937D02*
X190846580Y-52015651D01*
X190179914Y-52015651D02*
X190560866Y-51634699D01*
X190846580Y-52968032D02*
X190846580Y-52396603D01*
X190846580Y-52682318D02*
X189846580Y-52682318D01*
X189989438Y-52587080D01*
X190084676Y-52491841D01*
X190132295Y-52396603D01*
X187251342Y-53363270D02*
X187298961Y-53315651D01*
X187346580Y-53172794D01*
X187346580Y-53077556D01*
X187298961Y-52934699D01*
X187203723Y-52839460D01*
X187108485Y-52791841D01*
X186918009Y-52744222D01*
X186775152Y-52744222D01*
X186584676Y-52791841D01*
X186489438Y-52839460D01*
X186394200Y-52934699D01*
X186346580Y-53077556D01*
X186346580Y-53172794D01*
X186394200Y-53315651D01*
X186441819Y-53363270D01*
X187346580Y-54268032D02*
X187346580Y-53791841D01*
X186346580Y-53791841D01*
X187346580Y-54601365D02*
X186346580Y-54601365D01*
X187346580Y-55172794D02*
X186775152Y-54744222D01*
X186346580Y-55172794D02*
X186918009Y-54601365D01*
X186346580Y-55791841D02*
X186346580Y-55982318D01*
X186394200Y-56077556D01*
X186489438Y-56172794D01*
X186679914Y-56220413D01*
X187013247Y-56220413D01*
X187203723Y-56172794D01*
X187298961Y-56077556D01*
X187346580Y-55982318D01*
X187346580Y-55791841D01*
X187298961Y-55696603D01*
X187203723Y-55601365D01*
X187013247Y-55553746D01*
X186679914Y-55553746D01*
X186489438Y-55601365D01*
X186394200Y-55696603D01*
X186346580Y-55791841D01*
X186346580Y-56648984D02*
X187156104Y-56648984D01*
X187251342Y-56696603D01*
X187298961Y-56744222D01*
X187346580Y-56839460D01*
X187346580Y-57029937D01*
X187298961Y-57125175D01*
X187251342Y-57172794D01*
X187156104Y-57220413D01*
X186346580Y-57220413D01*
X186346580Y-57553746D02*
X186346580Y-58125175D01*
X187346580Y-57839460D02*
X186346580Y-57839460D01*
X194394200Y-55825175D02*
X194346580Y-55729937D01*
X194346580Y-55587080D01*
X194394200Y-55444222D01*
X194489438Y-55348984D01*
X194584676Y-55301365D01*
X194775152Y-55253746D01*
X194918009Y-55253746D01*
X195108485Y-55301365D01*
X195203723Y-55348984D01*
X195298961Y-55444222D01*
X195346580Y-55587080D01*
X195346580Y-55682318D01*
X195298961Y-55825175D01*
X195251342Y-55872794D01*
X194918009Y-55872794D01*
X194918009Y-55682318D01*
X195346580Y-56301365D02*
X194346580Y-56301365D01*
X195346580Y-56872794D01*
X194346580Y-56872794D01*
X195346580Y-57348984D02*
X194346580Y-57348984D01*
X194346580Y-57587080D01*
X194394200Y-57729937D01*
X194489438Y-57825175D01*
X194584676Y-57872794D01*
X194775152Y-57920413D01*
X194918009Y-57920413D01*
X195108485Y-57872794D01*
X195203723Y-57825175D01*
X195298961Y-57729937D01*
X195346580Y-57587080D01*
X195346580Y-57348984D01*
X193979200Y-44529937D02*
X193979200Y-45482318D01*
X195298961Y-44720413D02*
X195346580Y-44863270D01*
X195346580Y-45101365D01*
X195298961Y-45196603D01*
X195251342Y-45244222D01*
X195156104Y-45291841D01*
X195060866Y-45291841D01*
X194965628Y-45244222D01*
X194918009Y-45196603D01*
X194870390Y-45101365D01*
X194822771Y-44910889D01*
X194775152Y-44815651D01*
X194727533Y-44768032D01*
X194632295Y-44720413D01*
X194537057Y-44720413D01*
X194441819Y-44768032D01*
X194394200Y-44815651D01*
X194346580Y-44910889D01*
X194346580Y-45148984D01*
X194394200Y-45291841D01*
X193979200Y-45482318D02*
X193979200Y-46244222D01*
X194346580Y-45577556D02*
X194346580Y-46148984D01*
X195346580Y-45863270D02*
X194346580Y-45863270D01*
X186346580Y-44853746D02*
X187346580Y-45187080D01*
X186346580Y-45520413D01*
X187251342Y-46425175D02*
X187298961Y-46377556D01*
X187346580Y-46234699D01*
X187346580Y-46139460D01*
X187298961Y-45996603D01*
X187203723Y-45901365D01*
X187108485Y-45853746D01*
X186918009Y-45806127D01*
X186775152Y-45806127D01*
X186584676Y-45853746D01*
X186489438Y-45901365D01*
X186394200Y-45996603D01*
X186346580Y-46139460D01*
X186346580Y-46234699D01*
X186394200Y-46377556D01*
X186441819Y-46425175D01*
X187251342Y-47425175D02*
X187298961Y-47377556D01*
X187346580Y-47234699D01*
X187346580Y-47139460D01*
X187298961Y-46996603D01*
X187203723Y-46901365D01*
X187108485Y-46853746D01*
X186918009Y-46806127D01*
X186775152Y-46806127D01*
X186584676Y-46853746D01*
X186489438Y-46901365D01*
X186394200Y-46996603D01*
X186346580Y-47139460D01*
X186346580Y-47234699D01*
X186394200Y-47377556D01*
X186441819Y-47425175D01*
%TO.C,C8*%
X214020066Y-82439342D02*
X214067685Y-82486961D01*
X214210542Y-82534580D01*
X214305780Y-82534580D01*
X214448638Y-82486961D01*
X214543876Y-82391723D01*
X214591495Y-82296485D01*
X214639114Y-82106009D01*
X214639114Y-81963152D01*
X214591495Y-81772676D01*
X214543876Y-81677438D01*
X214448638Y-81582200D01*
X214305780Y-81534580D01*
X214210542Y-81534580D01*
X214067685Y-81582200D01*
X214020066Y-81629819D01*
X213448638Y-81963152D02*
X213543876Y-81915533D01*
X213591495Y-81867914D01*
X213639114Y-81772676D01*
X213639114Y-81725057D01*
X213591495Y-81629819D01*
X213543876Y-81582200D01*
X213448638Y-81534580D01*
X213258161Y-81534580D01*
X213162923Y-81582200D01*
X213115304Y-81629819D01*
X213067685Y-81725057D01*
X213067685Y-81772676D01*
X213115304Y-81867914D01*
X213162923Y-81915533D01*
X213258161Y-81963152D01*
X213448638Y-81963152D01*
X213543876Y-82010771D01*
X213591495Y-82058390D01*
X213639114Y-82153628D01*
X213639114Y-82344104D01*
X213591495Y-82439342D01*
X213543876Y-82486961D01*
X213448638Y-82534580D01*
X213258161Y-82534580D01*
X213162923Y-82486961D01*
X213115304Y-82439342D01*
X213067685Y-82344104D01*
X213067685Y-82153628D01*
X213115304Y-82058390D01*
X213162923Y-82010771D01*
X213258161Y-81963152D01*
X214924828Y-78034580D02*
X215496257Y-78034580D01*
X215210542Y-78034580D02*
X215210542Y-77034580D01*
X215305780Y-77177438D01*
X215401019Y-77272676D01*
X215496257Y-77320295D01*
X214305780Y-77034580D02*
X214210542Y-77034580D01*
X214115304Y-77082200D01*
X214067685Y-77129819D01*
X214020066Y-77225057D01*
X213972447Y-77415533D01*
X213972447Y-77653628D01*
X214020066Y-77844104D01*
X214067685Y-77939342D01*
X214115304Y-77986961D01*
X214210542Y-78034580D01*
X214305780Y-78034580D01*
X214401019Y-77986961D01*
X214448638Y-77939342D01*
X214496257Y-77844104D01*
X214543876Y-77653628D01*
X214543876Y-77415533D01*
X214496257Y-77225057D01*
X214448638Y-77129819D01*
X214401019Y-77082200D01*
X214305780Y-77034580D01*
X213543876Y-77367914D02*
X213543876Y-78367914D01*
X213543876Y-77415533D02*
X213448638Y-77367914D01*
X213258161Y-77367914D01*
X213162923Y-77415533D01*
X213115304Y-77463152D01*
X213067685Y-77558390D01*
X213067685Y-77844104D01*
X213115304Y-77939342D01*
X213162923Y-77986961D01*
X213258161Y-78034580D01*
X213448638Y-78034580D01*
X213543876Y-77986961D01*
X212305780Y-77510771D02*
X212639114Y-77510771D01*
X212639114Y-78034580D02*
X212639114Y-77034580D01*
X212162923Y-77034580D01*
%TO.C,C5*%
X233021142Y-73239333D02*
X233068761Y-73191714D01*
X233116380Y-73048857D01*
X233116380Y-72953619D01*
X233068761Y-72810761D01*
X232973523Y-72715523D01*
X232878285Y-72667904D01*
X232687809Y-72620285D01*
X232544952Y-72620285D01*
X232354476Y-72667904D01*
X232259238Y-72715523D01*
X232164000Y-72810761D01*
X232116380Y-72953619D01*
X232116380Y-73048857D01*
X232164000Y-73191714D01*
X232211619Y-73239333D01*
X232116380Y-74144095D02*
X232116380Y-73667904D01*
X232592571Y-73620285D01*
X232544952Y-73667904D01*
X232497333Y-73763142D01*
X232497333Y-74001238D01*
X232544952Y-74096476D01*
X232592571Y-74144095D01*
X232687809Y-74191714D01*
X232925904Y-74191714D01*
X233021142Y-74144095D01*
X233068761Y-74096476D01*
X233116380Y-74001238D01*
X233116380Y-73763142D01*
X233068761Y-73667904D01*
X233021142Y-73620285D01*
X230576380Y-73143333D02*
X230576380Y-72571904D01*
X230576380Y-72857619D02*
X229576380Y-72857619D01*
X229719238Y-72762380D01*
X229814476Y-72667142D01*
X229862095Y-72571904D01*
X229909714Y-74000476D02*
X230576380Y-74000476D01*
X229909714Y-73571904D02*
X230433523Y-73571904D01*
X230528761Y-73619523D01*
X230576380Y-73714761D01*
X230576380Y-73857619D01*
X230528761Y-73952857D01*
X230481142Y-74000476D01*
%TO.C,C4*%
X223576666Y-78787142D02*
X223624285Y-78834761D01*
X223767142Y-78882380D01*
X223862380Y-78882380D01*
X224005238Y-78834761D01*
X224100476Y-78739523D01*
X224148095Y-78644285D01*
X224195714Y-78453809D01*
X224195714Y-78310952D01*
X224148095Y-78120476D01*
X224100476Y-78025238D01*
X224005238Y-77930000D01*
X223862380Y-77882380D01*
X223767142Y-77882380D01*
X223624285Y-77930000D01*
X223576666Y-77977619D01*
X222719523Y-78215714D02*
X222719523Y-78882380D01*
X222957619Y-77834761D02*
X223195714Y-78549047D01*
X222576666Y-78549047D01*
X225338571Y-82382380D02*
X224719523Y-82382380D01*
X225052857Y-82763333D01*
X224910000Y-82763333D01*
X224814761Y-82810952D01*
X224767142Y-82858571D01*
X224719523Y-82953809D01*
X224719523Y-83191904D01*
X224767142Y-83287142D01*
X224814761Y-83334761D01*
X224910000Y-83382380D01*
X225195714Y-83382380D01*
X225290952Y-83334761D01*
X225338571Y-83287142D01*
X224290952Y-83287142D02*
X224243333Y-83334761D01*
X224290952Y-83382380D01*
X224338571Y-83334761D01*
X224290952Y-83287142D01*
X224290952Y-83382380D01*
X223910000Y-82382380D02*
X223290952Y-82382380D01*
X223624285Y-82763333D01*
X223481428Y-82763333D01*
X223386190Y-82810952D01*
X223338571Y-82858571D01*
X223290952Y-82953809D01*
X223290952Y-83191904D01*
X223338571Y-83287142D01*
X223386190Y-83334761D01*
X223481428Y-83382380D01*
X223767142Y-83382380D01*
X223862380Y-83334761D01*
X223910000Y-83287142D01*
X222433809Y-82715714D02*
X222433809Y-83382380D01*
X222862380Y-82715714D02*
X222862380Y-83239523D01*
X222814761Y-83334761D01*
X222719523Y-83382380D01*
X222576666Y-83382380D01*
X222481428Y-83334761D01*
X222433809Y-83287142D01*
X221624285Y-82858571D02*
X221957619Y-82858571D01*
X221957619Y-83382380D02*
X221957619Y-82382380D01*
X221481428Y-82382380D01*
%TO.C,C3*%
X224893142Y-73043333D02*
X224940761Y-72995714D01*
X224988380Y-72852857D01*
X224988380Y-72757619D01*
X224940761Y-72614761D01*
X224845523Y-72519523D01*
X224750285Y-72471904D01*
X224559809Y-72424285D01*
X224416952Y-72424285D01*
X224226476Y-72471904D01*
X224131238Y-72519523D01*
X224036000Y-72614761D01*
X223988380Y-72757619D01*
X223988380Y-72852857D01*
X224036000Y-72995714D01*
X224083619Y-73043333D01*
X223988380Y-73376666D02*
X223988380Y-73995714D01*
X224369333Y-73662380D01*
X224369333Y-73805238D01*
X224416952Y-73900476D01*
X224464571Y-73948095D01*
X224559809Y-73995714D01*
X224797904Y-73995714D01*
X224893142Y-73948095D01*
X224940761Y-73900476D01*
X224988380Y-73805238D01*
X224988380Y-73519523D01*
X224940761Y-73424285D01*
X224893142Y-73376666D01*
X226020380Y-71937714D02*
X226020380Y-72032952D01*
X226068000Y-72128190D01*
X226115619Y-72175809D01*
X226210857Y-72223428D01*
X226401333Y-72271047D01*
X226639428Y-72271047D01*
X226829904Y-72223428D01*
X226925142Y-72175809D01*
X226972761Y-72128190D01*
X227020380Y-72032952D01*
X227020380Y-71937714D01*
X226972761Y-71842476D01*
X226925142Y-71794857D01*
X226829904Y-71747238D01*
X226639428Y-71699619D01*
X226401333Y-71699619D01*
X226210857Y-71747238D01*
X226115619Y-71794857D01*
X226068000Y-71842476D01*
X226020380Y-71937714D01*
X226925142Y-72699619D02*
X226972761Y-72747238D01*
X227020380Y-72699619D01*
X226972761Y-72652000D01*
X226925142Y-72699619D01*
X227020380Y-72699619D01*
X227020380Y-73699619D02*
X227020380Y-73128190D01*
X227020380Y-73413904D02*
X226020380Y-73413904D01*
X226163238Y-73318666D01*
X226258476Y-73223428D01*
X226306095Y-73128190D01*
X226353714Y-74556761D02*
X227020380Y-74556761D01*
X226353714Y-74128190D02*
X226877523Y-74128190D01*
X226972761Y-74175809D01*
X227020380Y-74271047D01*
X227020380Y-74413904D01*
X226972761Y-74509142D01*
X226925142Y-74556761D01*
%TO.C,C2*%
X223446666Y-62517142D02*
X223494285Y-62564761D01*
X223637142Y-62612380D01*
X223732380Y-62612380D01*
X223875238Y-62564761D01*
X223970476Y-62469523D01*
X224018095Y-62374285D01*
X224065714Y-62183809D01*
X224065714Y-62040952D01*
X224018095Y-61850476D01*
X223970476Y-61755238D01*
X223875238Y-61660000D01*
X223732380Y-61612380D01*
X223637142Y-61612380D01*
X223494285Y-61660000D01*
X223446666Y-61707619D01*
X223065714Y-61707619D02*
X223018095Y-61660000D01*
X222922857Y-61612380D01*
X222684761Y-61612380D01*
X222589523Y-61660000D01*
X222541904Y-61707619D01*
X222494285Y-61802857D01*
X222494285Y-61898095D01*
X222541904Y-62040952D01*
X223113333Y-62612380D01*
X222494285Y-62612380D01*
X225208571Y-66112380D02*
X224589523Y-66112380D01*
X224922857Y-66493333D01*
X224780000Y-66493333D01*
X224684761Y-66540952D01*
X224637142Y-66588571D01*
X224589523Y-66683809D01*
X224589523Y-66921904D01*
X224637142Y-67017142D01*
X224684761Y-67064761D01*
X224780000Y-67112380D01*
X225065714Y-67112380D01*
X225160952Y-67064761D01*
X225208571Y-67017142D01*
X224160952Y-67017142D02*
X224113333Y-67064761D01*
X224160952Y-67112380D01*
X224208571Y-67064761D01*
X224160952Y-67017142D01*
X224160952Y-67112380D01*
X223780000Y-66112380D02*
X223160952Y-66112380D01*
X223494285Y-66493333D01*
X223351428Y-66493333D01*
X223256190Y-66540952D01*
X223208571Y-66588571D01*
X223160952Y-66683809D01*
X223160952Y-66921904D01*
X223208571Y-67017142D01*
X223256190Y-67064761D01*
X223351428Y-67112380D01*
X223637142Y-67112380D01*
X223732380Y-67064761D01*
X223780000Y-67017142D01*
X222303809Y-66445714D02*
X222303809Y-67112380D01*
X222732380Y-66445714D02*
X222732380Y-66969523D01*
X222684761Y-67064761D01*
X222589523Y-67112380D01*
X222446666Y-67112380D01*
X222351428Y-67064761D01*
X222303809Y-67017142D01*
X221494285Y-66588571D02*
X221827619Y-66588571D01*
X221827619Y-67112380D02*
X221827619Y-66112380D01*
X221351428Y-66112380D01*
%TD*%
M02*
