%TF.GenerationSoftware,KiCad,Pcbnew,5.1.5+dfsg1-2build2*%
%TF.CreationDate,2021-11-19T00:53:45-06:00*%
%TF.ProjectId,Audio_Dac_I2S,41756469-6f5f-4446-9163-5f4932532e6b,rev?*%
%TF.SameCoordinates,Original*%
%TF.FileFunction,Soldermask,Top*%
%TF.FilePolarity,Negative*%
%FSLAX46Y46*%
G04 Gerber Fmt 4.6, Leading zero omitted, Abs format (unit mm)*
G04 Created by KiCad (PCBNEW 5.1.5+dfsg1-2build2) date 2021-11-19 00:53:45*
%MOMM*%
%LPD*%
G04 APERTURE LIST*
%ADD10O,1.700000X1.700000*%
%ADD11R,1.700000X1.700000*%
%ADD12R,3.000000X1.250000*%
%ADD13R,2.000000X0.600000*%
%ADD14O,1.400000X1.400000*%
%ADD15C,1.400000*%
%ADD16C,1.524000*%
%ADD17C,0.450000*%
%ADD18O,1.800000X1.800000*%
%ADD19R,1.800000X1.800000*%
%ADD20C,1.600000*%
G04 APERTURE END LIST*
D10*
%TO.C,PI_OUT1*%
X195554600Y-92349320D03*
X193014600Y-92349320D03*
X190474600Y-92349320D03*
D11*
X187934600Y-92349320D03*
%TD*%
D10*
%TO.C,J2*%
X216715340Y-49072800D03*
X214175340Y-49072800D03*
X211635340Y-49072800D03*
X209095340Y-49072800D03*
X206555340Y-49072800D03*
X204015340Y-49072800D03*
X201475340Y-49072800D03*
X198935340Y-49072800D03*
X196395340Y-49072800D03*
X193855340Y-49072800D03*
D11*
X191315340Y-49072800D03*
%TD*%
D10*
%TO.C,DBG1*%
X222862140Y-54772560D03*
X225402140Y-54772560D03*
X227942140Y-54772560D03*
X230482140Y-54772560D03*
D11*
X233022140Y-54772560D03*
%TD*%
D12*
%TO.C,U2*%
X233830000Y-57665000D03*
X233860000Y-48085000D03*
X243230000Y-49925000D03*
%TD*%
D13*
%TO.C,U1*%
X221575000Y-74210000D03*
X221575000Y-72985000D03*
X221575000Y-71735000D03*
X221575000Y-70460000D03*
X215500000Y-74235000D03*
X215500000Y-72960000D03*
X215475000Y-71710000D03*
X215500000Y-70460000D03*
%TD*%
D14*
%TO.C,R13*%
X239306000Y-70739000D03*
D15*
X239306000Y-78359000D03*
%TD*%
D14*
%TO.C,10k*%
X232590000Y-60610000D03*
D15*
X232590000Y-68230000D03*
%TD*%
D14*
%TO.C,R11*%
X236220000Y-81280000D03*
D15*
X228600000Y-81280000D03*
%TD*%
D14*
%TO.C,10k*%
X229600000Y-68280000D03*
D15*
X229600000Y-60660000D03*
%TD*%
D14*
%TO.C,R9*%
X223370000Y-76990000D03*
D15*
X223370000Y-84610000D03*
%TD*%
D14*
%TO.C,267k*%
X223340000Y-60840000D03*
D15*
X223340000Y-68460000D03*
%TD*%
D14*
%TO.C,R7*%
X214630000Y-57150000D03*
D15*
X214630000Y-64770000D03*
%TD*%
D14*
%TO.C,R6*%
X217170000Y-54610000D03*
D15*
X209550000Y-54610000D03*
%TD*%
D14*
%TO.C,R4*%
X210820000Y-59690000D03*
D15*
X218440000Y-59690000D03*
%TD*%
D14*
%TO.C,R3*%
X212090000Y-62230000D03*
D15*
X212090000Y-69850000D03*
%TD*%
D14*
%TO.C,R2*%
X217170000Y-52070000D03*
D15*
X209550000Y-52070000D03*
%TD*%
D14*
%TO.C,R1*%
X213360000Y-83820000D03*
D15*
X213360000Y-76200000D03*
%TD*%
D16*
%TO.C,J14*%
X198120000Y-83820000D03*
X198120000Y-81280000D03*
X200660000Y-83820000D03*
X200660000Y-81280000D03*
X203200000Y-83820000D03*
X203200000Y-81280000D03*
X205740000Y-83820000D03*
X205740000Y-81280000D03*
X208280000Y-83820000D03*
X208280000Y-81280000D03*
%TD*%
D10*
%TO.C,J3*%
X236220000Y-87630000D03*
X233680000Y-87630000D03*
X231140000Y-87630000D03*
X228600000Y-87630000D03*
X226060000Y-87630000D03*
X223520000Y-87630000D03*
X220980000Y-87630000D03*
X218440000Y-87630000D03*
X215900000Y-87630000D03*
X213360000Y-87630000D03*
X210820000Y-87630000D03*
X208280000Y-87630000D03*
X205740000Y-87630000D03*
X203200000Y-87630000D03*
X200660000Y-87630000D03*
X198120000Y-87630000D03*
X195580000Y-87630000D03*
X193040000Y-87630000D03*
X190500000Y-87630000D03*
D11*
X187960000Y-87630000D03*
%TD*%
D10*
%TO.C,J1*%
X181540000Y-92660000D03*
X184080000Y-92660000D03*
X181540000Y-74880000D03*
X184080000Y-74880000D03*
X181540000Y-69800000D03*
X184080000Y-69800000D03*
X181540000Y-79960000D03*
X184080000Y-79960000D03*
X181540000Y-52020000D03*
X184080000Y-52020000D03*
X181540000Y-82500000D03*
X184080000Y-82500000D03*
X181540000Y-64720000D03*
X184080000Y-64720000D03*
X181540000Y-87580000D03*
X184080000Y-87580000D03*
X181540000Y-85040000D03*
X184080000Y-85040000D03*
X181540000Y-90120000D03*
X184080000Y-90120000D03*
X181540000Y-67260000D03*
X184080000Y-67260000D03*
X181540000Y-54560000D03*
X184080000Y-54560000D03*
X181540000Y-59640000D03*
X184080000Y-59640000D03*
X181540000Y-77420000D03*
X184080000Y-77420000D03*
X181540000Y-57100000D03*
X184080000Y-57100000D03*
X181540000Y-72340000D03*
X184080000Y-72340000D03*
D11*
X184080000Y-44400000D03*
D10*
X181540000Y-44400000D03*
X184080000Y-49480000D03*
X181540000Y-46940000D03*
X181540000Y-62180000D03*
X184080000Y-62180000D03*
X184080000Y-46940000D03*
X181540000Y-49480000D03*
%TD*%
D17*
%TO.C,IC1*%
X194820000Y-78200000D03*
X194820000Y-77400000D03*
X194820000Y-76600000D03*
X194820000Y-75800000D03*
X194820000Y-75000000D03*
X194820000Y-74200000D03*
X194820000Y-73400000D03*
X194820000Y-72600000D03*
X194820000Y-71800000D03*
X194820000Y-71000000D03*
X194820000Y-70200000D03*
X194820000Y-69400000D03*
X194820000Y-68600000D03*
X194820000Y-67800000D03*
X194820000Y-67000000D03*
X194820000Y-66200000D03*
X194820000Y-65400000D03*
X194820000Y-64600000D03*
X195620000Y-78200000D03*
X195620000Y-77400000D03*
X195620000Y-76600000D03*
X195620000Y-75800000D03*
X195620000Y-75000000D03*
X195620000Y-74200000D03*
X195620000Y-73400000D03*
X195620000Y-72600000D03*
X195620000Y-71800000D03*
X195620000Y-71000000D03*
X195620000Y-70200000D03*
X195620000Y-69400000D03*
X195620000Y-68600000D03*
X195620000Y-67800000D03*
X195620000Y-67000000D03*
X195620000Y-66200000D03*
X195620000Y-65400000D03*
X195620000Y-64600000D03*
X196420000Y-78200000D03*
X196420000Y-77400000D03*
X196420000Y-76600000D03*
X196420000Y-75800000D03*
X196420000Y-75000000D03*
X196420000Y-74200000D03*
X196420000Y-73400000D03*
X196420000Y-72600000D03*
X196420000Y-71800000D03*
X196420000Y-71000000D03*
X196420000Y-70200000D03*
X196420000Y-69400000D03*
X196420000Y-68600000D03*
X196420000Y-67800000D03*
X196420000Y-67000000D03*
X196420000Y-66200000D03*
X196420000Y-65400000D03*
X196420000Y-64600000D03*
X197220000Y-78200000D03*
X197220000Y-77400000D03*
X197220000Y-76600000D03*
X197220000Y-75800000D03*
X197220000Y-75000000D03*
X197220000Y-74200000D03*
X197220000Y-73400000D03*
X197220000Y-72600000D03*
X197220000Y-71800000D03*
X197220000Y-71000000D03*
X197220000Y-70200000D03*
X197220000Y-69400000D03*
X197220000Y-68600000D03*
X197220000Y-67800000D03*
X197220000Y-67000000D03*
X197220000Y-66200000D03*
X197220000Y-65400000D03*
X197220000Y-64600000D03*
X198020000Y-78200000D03*
X198020000Y-77400000D03*
X198020000Y-76600000D03*
X198020000Y-75800000D03*
X198020000Y-75000000D03*
X198020000Y-74200000D03*
X198020000Y-73400000D03*
X198020000Y-72600000D03*
X198020000Y-71800000D03*
X198020000Y-71000000D03*
X198020000Y-70200000D03*
X198020000Y-69400000D03*
X198020000Y-68600000D03*
X198020000Y-67800000D03*
X198020000Y-67000000D03*
X198020000Y-66200000D03*
X198020000Y-65400000D03*
X198020000Y-64600000D03*
X198820000Y-78200000D03*
X198820000Y-77400000D03*
X198820000Y-76600000D03*
X198820000Y-75800000D03*
X198820000Y-75000000D03*
X198820000Y-74200000D03*
X198820000Y-73400000D03*
X198820000Y-72600000D03*
X198820000Y-71800000D03*
X198820000Y-71000000D03*
X198820000Y-70200000D03*
X198820000Y-69400000D03*
X198820000Y-68600000D03*
X198820000Y-67800000D03*
X198820000Y-67000000D03*
X198820000Y-66200000D03*
X198820000Y-65400000D03*
X198820000Y-64600000D03*
X199620000Y-78200000D03*
X199620000Y-77400000D03*
X199620000Y-76600000D03*
X199620000Y-75800000D03*
X199620000Y-75000000D03*
X199620000Y-74200000D03*
X199620000Y-73400000D03*
X199620000Y-72600000D03*
X199620000Y-71800000D03*
X199620000Y-71000000D03*
X199620000Y-70200000D03*
X199620000Y-69400000D03*
X199620000Y-68600000D03*
X199620000Y-67800000D03*
X199620000Y-67000000D03*
X199620000Y-66200000D03*
X199620000Y-65400000D03*
X199620000Y-64600000D03*
X200420000Y-78200000D03*
X200420000Y-77400000D03*
X200420000Y-76600000D03*
X200420000Y-75800000D03*
X200420000Y-75000000D03*
X200420000Y-74200000D03*
X200420000Y-73400000D03*
X200420000Y-72600000D03*
X200420000Y-71800000D03*
X200420000Y-71000000D03*
X200420000Y-70200000D03*
X200420000Y-69400000D03*
X200420000Y-68600000D03*
X200420000Y-67800000D03*
X200420000Y-67000000D03*
X200420000Y-66200000D03*
X200420000Y-65400000D03*
X200420000Y-64600000D03*
X201220000Y-78200000D03*
X201220000Y-77400000D03*
X201220000Y-76600000D03*
X201220000Y-75800000D03*
X201220000Y-75000000D03*
X201220000Y-74200000D03*
X201220000Y-73400000D03*
X201220000Y-72600000D03*
X201220000Y-71800000D03*
X201220000Y-71000000D03*
X201220000Y-70200000D03*
X201220000Y-69400000D03*
X201220000Y-68600000D03*
X201220000Y-67800000D03*
X201220000Y-67000000D03*
X201220000Y-66200000D03*
X201220000Y-65400000D03*
X201220000Y-64600000D03*
X202020000Y-78200000D03*
X202020000Y-77400000D03*
X202020000Y-76600000D03*
X202020000Y-75800000D03*
X202020000Y-75000000D03*
X202020000Y-74200000D03*
X202020000Y-73400000D03*
X202020000Y-72600000D03*
X202020000Y-71800000D03*
X202020000Y-71000000D03*
X202020000Y-70200000D03*
X202020000Y-69400000D03*
X202020000Y-68600000D03*
X202020000Y-67800000D03*
X202020000Y-67000000D03*
X202020000Y-66200000D03*
X202020000Y-65400000D03*
X202020000Y-64600000D03*
X202820000Y-78200000D03*
X202820000Y-77400000D03*
X202820000Y-76600000D03*
X202820000Y-75800000D03*
X202820000Y-75000000D03*
X202820000Y-74200000D03*
X202820000Y-73400000D03*
X202820000Y-72600000D03*
X202820000Y-71800000D03*
X202820000Y-71000000D03*
X202820000Y-70200000D03*
X202820000Y-69400000D03*
X202820000Y-68600000D03*
X202820000Y-67800000D03*
X202820000Y-67000000D03*
X202820000Y-66200000D03*
X202820000Y-65400000D03*
X202820000Y-64600000D03*
X203620000Y-78200000D03*
X203620000Y-77400000D03*
X203620000Y-76600000D03*
X203620000Y-75800000D03*
X203620000Y-75000000D03*
X203620000Y-74200000D03*
X203620000Y-73400000D03*
X203620000Y-72600000D03*
X203620000Y-71800000D03*
X203620000Y-71000000D03*
X203620000Y-70200000D03*
X203620000Y-69400000D03*
X203620000Y-68600000D03*
X203620000Y-67800000D03*
X203620000Y-67000000D03*
X203620000Y-66200000D03*
X203620000Y-65400000D03*
X203620000Y-64600000D03*
X204420000Y-78200000D03*
X204420000Y-77400000D03*
X204420000Y-76600000D03*
X204420000Y-75800000D03*
X204420000Y-75000000D03*
X204420000Y-74200000D03*
X204420000Y-73400000D03*
X204420000Y-72600000D03*
X204420000Y-71800000D03*
X204420000Y-71000000D03*
X204420000Y-70200000D03*
X204420000Y-69400000D03*
X204420000Y-68600000D03*
X204420000Y-67800000D03*
X204420000Y-67000000D03*
X204420000Y-66200000D03*
X204420000Y-65400000D03*
X204420000Y-64600000D03*
X205220000Y-78200000D03*
X205220000Y-77400000D03*
X205220000Y-76600000D03*
X205220000Y-75800000D03*
X205220000Y-75000000D03*
X205220000Y-74200000D03*
X205220000Y-73400000D03*
X205220000Y-72600000D03*
X205220000Y-71800000D03*
X205220000Y-71000000D03*
X205220000Y-70200000D03*
X205220000Y-69400000D03*
X205220000Y-68600000D03*
X205220000Y-67800000D03*
X205220000Y-67000000D03*
X205220000Y-66200000D03*
X205220000Y-65400000D03*
X205220000Y-64600000D03*
X206020000Y-78200000D03*
X206020000Y-77400000D03*
X206020000Y-76600000D03*
X206020000Y-75800000D03*
X206020000Y-75000000D03*
X206020000Y-74200000D03*
X206020000Y-73400000D03*
X206020000Y-72600000D03*
X206020000Y-71800000D03*
X206020000Y-71000000D03*
X206020000Y-70200000D03*
X206020000Y-69400000D03*
X206020000Y-68600000D03*
X206020000Y-67800000D03*
X206020000Y-67000000D03*
X206020000Y-66200000D03*
X206020000Y-65400000D03*
X206020000Y-64600000D03*
X206820000Y-78200000D03*
X206820000Y-77400000D03*
X206820000Y-76600000D03*
X206820000Y-75800000D03*
X206820000Y-75000000D03*
X206820000Y-74200000D03*
X206820000Y-73400000D03*
X206820000Y-72600000D03*
X206820000Y-71800000D03*
X206820000Y-71000000D03*
X206820000Y-70200000D03*
X206820000Y-69400000D03*
X206820000Y-68600000D03*
X206820000Y-67800000D03*
X206820000Y-67000000D03*
X206820000Y-66200000D03*
X206820000Y-65400000D03*
X206820000Y-64600000D03*
X207620000Y-78200000D03*
X207620000Y-77400000D03*
X207620000Y-76600000D03*
X207620000Y-75800000D03*
X207620000Y-75000000D03*
X207620000Y-74200000D03*
X207620000Y-73400000D03*
X207620000Y-72600000D03*
X207620000Y-71800000D03*
X207620000Y-71000000D03*
X207620000Y-70200000D03*
X207620000Y-69400000D03*
X207620000Y-68600000D03*
X207620000Y-67800000D03*
X207620000Y-67000000D03*
X207620000Y-66200000D03*
X207620000Y-65400000D03*
X207620000Y-64600000D03*
X208420000Y-78200000D03*
X208420000Y-77400000D03*
X208420000Y-76600000D03*
X208420000Y-75800000D03*
X208420000Y-75000000D03*
X208420000Y-74200000D03*
X208420000Y-73400000D03*
X208420000Y-72600000D03*
X208420000Y-71800000D03*
X208420000Y-71000000D03*
X208420000Y-70200000D03*
X208420000Y-69400000D03*
X208420000Y-68600000D03*
X208420000Y-67800000D03*
X208420000Y-67000000D03*
X208420000Y-66200000D03*
X208420000Y-65400000D03*
X208420000Y-64600000D03*
%TD*%
D18*
%TO.C,D4*%
X194945000Y-81915000D03*
D19*
X187325000Y-81915000D03*
%TD*%
%TO.C,D3*%
X189230000Y-57150000D03*
D18*
X196850000Y-57150000D03*
%TD*%
%TO.C,D2*%
X207010000Y-57150000D03*
D19*
X199390000Y-57150000D03*
%TD*%
D18*
%TO.C,D1*%
X207010000Y-60960000D03*
D19*
X199390000Y-60960000D03*
%TD*%
D16*
%TO.C,clk1*%
X186894200Y-43587080D03*
X186894200Y-59187080D03*
X194894200Y-59187080D03*
X194894200Y-43587080D03*
%TD*%
D20*
%TO.C,C10*%
X190500000Y-71835000D03*
X190500000Y-76835000D03*
%TD*%
%TO.C,C9*%
X187960000Y-71940000D03*
X187960000Y-76940000D03*
%TD*%
%TO.C,C8*%
X216353400Y-79832200D03*
X211353400Y-79832200D03*
%TD*%
%TO.C,C7*%
X232410000Y-78740000D03*
X232410000Y-83740000D03*
%TD*%
%TO.C,C6*%
X235520000Y-62150000D03*
X235520000Y-67150000D03*
%TD*%
%TO.C,C5*%
X230110000Y-75810000D03*
X230110000Y-70810000D03*
%TD*%
%TO.C,C4*%
X220910000Y-80680000D03*
X225910000Y-80680000D03*
%TD*%
%TO.C,C3*%
X226610000Y-75710000D03*
X226610000Y-70710000D03*
%TD*%
%TO.C,C2*%
X220780000Y-64410000D03*
X225780000Y-64410000D03*
%TD*%
%TO.C,C1*%
X190500000Y-63500000D03*
X190500000Y-68500000D03*
%TD*%
M02*
